<svg width="34" height="24" viewBox="0 0 34 24" fill="none" xmlns="http://www.w3.org/2000/svg">
<rect width="34" height="24" rx="12" fill="#32A7E2"/>
<path d="M19.4661 12.9665C19.3582 13.0711 19.3086 13.2223 19.3332 13.3707L19.7036 15.4207C19.7348 15.5944 19.6615 15.7703 19.5161 15.8707C19.3736 15.9748 19.184 15.9873 19.0286 15.904L17.1832 14.9415C17.119 14.9073 17.0478 14.889 16.9748 14.8869H16.8619C16.8228 14.8928 16.7844 14.9053 16.7494 14.9244L14.9036 15.8915C14.8123 15.9373 14.709 15.9536 14.6078 15.9373C14.3611 15.8907 14.1965 15.6557 14.2369 15.4078L14.6078 13.3578C14.6323 13.2082 14.5828 13.0561 14.4748 12.9498L12.9703 11.4915C12.8444 11.3694 12.8007 11.1861 12.8582 11.0207C12.914 10.8557 13.0565 10.7353 13.2286 10.7082L15.2994 10.4078C15.4569 10.3915 15.5953 10.2957 15.6661 10.154L16.5786 8.28317C16.6003 8.2415 16.6282 8.20317 16.6619 8.17067L16.6994 8.1415C16.719 8.11984 16.7415 8.10192 16.7665 8.08734L16.8119 8.07067L16.8828 8.0415H17.0582C17.2148 8.05775 17.3528 8.1515 17.4248 8.2915L18.3494 10.154C18.4161 10.2903 18.5457 10.3848 18.6953 10.4078L20.7661 10.7082C20.9411 10.7332 21.0873 10.854 21.1453 11.0207C21.1998 11.1878 21.1528 11.3711 21.0244 11.4915L19.4661 12.9665Z" fill="#FBF6F0"/>
</svg>
