<svg width="34" height="34" viewBox="0 0 34 34" fill="none" xmlns="http://www.w3.org/2000/svg">
<circle cx="17" cy="17" r="17" fill="white"/>
<path opacity="0.3" d="M18 22C16.9 22 16 21.1 16 20V14C16 12.9 16.9 12 18 12H24V10H10V24H24V22H18Z" fill="#EA8928"/>
<path d="M26 12.28V10C26 8.9 25.1 8 24 8H10C9.46957 8 8.96086 8.21071 8.58579 8.58579C8.21071 8.96086 8 9.46957 8 10V24C8 24.5304 8.21071 25.0391 8.58579 25.4142C8.96086 25.7893 9.46957 26 10 26H24C25.1 26 26 25.1 26 24V21.72C26.3023 21.5455 26.5536 21.2949 26.7291 20.9932C26.9045 20.6914 26.9979 20.349 27 20V14C27 13.26 26.59 12.62 26 12.28ZM25 14V20H18V14H25ZM10 24V10H24V12H18C16.9 12 16 12.9 16 14V20C16 21.1 16.9 22 18 22H24V24H10Z" fill="#EA8928"/>
<path d="M21 18.5C21.8284 18.5 22.5 17.8284 22.5 17C22.5 16.1716 21.8284 15.5 21 15.5C20.1716 15.5 19.5 16.1716 19.5 17C19.5 17.8284 20.1716 18.5 21 18.5Z" fill="#EA8928"/>
</svg>
