<svg width="19" height="22" viewBox="0 0 19 22" fill="none" xmlns="http://www.w3.org/2000/svg">
<path d="M17.2188 3.4375H1.78125C1.45283 3.4375 1.1875 3.74473 1.1875 4.125V7.5625H17.8125V4.125C17.8125 3.74473 17.5472 3.4375 17.2188 3.4375ZM1.1875 17.875C1.1875 18.2553 1.45283 18.5625 1.78125 18.5625H17.2188C17.5472 18.5625 17.8125 18.2553 17.8125 17.875V9.45312H1.1875V17.875ZM11.9307 13.9219C11.9307 13.8273 11.9975 13.75 12.0791 13.75H15.1406C15.2223 13.75 15.2891 13.8273 15.2891 13.9219V15.4688C15.2891 15.5633 15.2223 15.6406 15.1406 15.6406H12.0791C11.9975 15.6406 11.9307 15.5633 11.9307 15.4688V13.9219Z" fill="#D6DBDE"/>
</svg>
