<svg width="21" height="21" viewBox="0 0 21 21" fill="none" xmlns="http://www.w3.org/2000/svg">
<path d="M6.5625 11.8125H11.8125V13.125H6.5625V11.8125Z" fill="#D6DBDE"/>
<path d="M6.5625 8.53125H14.4375V9.84375H6.5625V8.53125Z" fill="#D6DBDE"/>
<path d="M6.5625 15.0938H9.84375V16.4062H6.5625V15.0938Z" fill="#D6DBDE"/>
<path d="M16.4062 3.28125H14.4375V2.625C14.4375 2.2769 14.2992 1.94306 14.0531 1.69692C13.8069 1.45078 13.4731 1.3125 13.125 1.3125H7.875C7.5269 1.3125 7.19306 1.45078 6.94692 1.69692C6.70078 1.94306 6.5625 2.2769 6.5625 2.625V3.28125H4.59375C4.24565 3.28125 3.91181 3.41953 3.66567 3.66567C3.41953 3.91181 3.28125 4.24565 3.28125 4.59375V18.375C3.28125 18.7231 3.41953 19.0569 3.66567 19.3031C3.91181 19.5492 4.24565 19.6875 4.59375 19.6875H16.4062C16.7543 19.6875 17.0882 19.5492 17.3343 19.3031C17.5805 19.0569 17.7188 18.7231 17.7188 18.375V4.59375C17.7188 4.24565 17.5805 3.91181 17.3343 3.66567C17.0882 3.41953 16.7543 3.28125 16.4062 3.28125ZM7.875 2.625H13.125V5.25H7.875V2.625ZM16.4062 18.375H4.59375V4.59375H6.5625V6.5625H14.4375V4.59375H16.4062V18.375Z" fill="#D6DBDE"/>
</svg>
