<svg width="311" height="221" viewBox="0 0 311 221" fill="none" xmlns="http://www.w3.org/2000/svg">
<path d="M53.3784 198.843C109.881 228.386 201.492 228.386 257.995 198.843C314.498 169.3 314.498 121.467 257.995 91.9516C201.492 62.436 109.881 62.4085 53.3784 91.9516C-3.12451 121.495 -3.12451 169.32 53.3784 198.843Z" fill="#F5F5F5"/>
<path d="M84.591 63.0611L98.2083 55.2013L84.591 47.3415L70.85 55.2013L84.591 63.0611Z" stroke="#EBEBEB" stroke-width="1.08419" stroke-linecap="round" stroke-linejoin="round"/>
<path d="M74.0173 55.2082L84.5979 24.6276V61.316L74.0173 55.2082Z" fill="#E0E0E0"/>
<path d="M84.5979 61.316L95.1716 55.2082L84.5979 24.6276V61.316Z" fill="#FBF6F0"/>
<path d="M67.9507 72.6524L81.568 64.7925L67.9507 56.9327L54.2097 64.7925L67.9507 72.6524Z" stroke="#EBEBEB" stroke-width="1.08419" stroke-linecap="round" stroke-linejoin="round"/>
<path d="M57.377 64.7994L67.9507 19.3854V70.9073L57.377 64.7994Z" fill="#E0E0E0"/>
<path d="M67.9507 70.9073L78.5244 64.7994L67.9507 19.3854V70.9073Z" fill="#FBF6F0"/>
<path d="M51.3104 82.2436L64.9277 74.3837L51.3104 66.5239L37.5625 74.3837L51.3104 82.2436Z" stroke="#EBEBEB" stroke-width="1.08419" stroke-linecap="round" stroke-linejoin="round"/>
<path d="M40.7367 74.3906L51.3104 47.3415V80.4984L40.7367 74.3906Z" fill="#E0E0E0"/>
<path d="M51.3104 80.4984L61.884 74.3906L51.3104 47.3415V80.4984Z" fill="#FBF6F0"/>
<path d="M34.67 91.8348L48.2873 83.9749L34.67 76.1151L20.9222 83.9749L34.67 91.8348Z" stroke="#EBEBEB" stroke-width="1.08419" stroke-linecap="round" stroke-linejoin="round"/>
<path d="M24.0895 83.9818L34.67 38.0594V90.0897L24.0895 83.9818Z" fill="#E0E0E0"/>
<path d="M34.67 90.0897L45.2437 83.9818L34.67 38.0594V90.0897Z" fill="#FBF6F0"/>
<path d="M216.154 52.6111L288.775 94.5349" stroke="#EBEBEB" stroke-width="1.08419" stroke-miterlimit="10" stroke-linecap="round"/>
<path d="M288.775 90.0897C288.687 84.8269 288.318 79.5727 287.669 74.3494C286.982 68.6744 285.608 59.0969 280.146 55.9365C274.684 52.776 272.623 58.4923 271.832 61.3023C270.802 64.9505 265.45 62.6421 264.708 56.6304C263.966 50.6187 263.478 31.4638 257.061 27.7743C250.644 24.0849 248.576 32.9822 247.848 35.4693C246.412 40.3542 242.2 39.0076 240.826 35.7716C239.452 32.5356 235.701 31.7455 234.285 36.3006C232.87 40.8557 231.997 46.0842 227.415 43.3978C223.389 41.0412 225.237 36.7472 221.314 34.7066C218.208 33.0989 216.766 40.7664 216.766 48.5232L288.775 90.0897Z" fill="#E0E0E0"/>
<path d="M283.499 50.1103C283.499 50.9485 282.743 51.1889 281.822 50.6599L276.326 47.472C275.874 47.2159 275.488 46.8587 275.197 46.4285C274.906 45.9982 274.719 45.5065 274.649 44.9918C274.649 44.1604 275.405 43.9131 276.326 44.449L281.822 47.6369C282.274 47.8915 282.66 48.2473 282.951 48.6765C283.242 49.1057 283.429 49.5965 283.499 50.1103Z" fill="#FBF6F0"/>
<path d="M260.936 23.1574C260.936 23.9956 260.187 24.236 259.26 23.707L253.763 20.5191C253.31 20.2642 252.923 19.9074 252.632 19.4769C252.341 19.0464 252.154 18.554 252.087 18.0388C252.087 17.2075 252.836 16.9602 253.763 17.4961L259.26 20.684C259.712 20.9377 260.099 21.2934 260.39 21.7227C260.681 22.152 260.868 22.6432 260.936 23.1574Z" fill="#FBF6F0"/>
<path d="M243.066 28.1178C243.066 28.956 242.317 29.1965 241.396 28.6674L235.9 25.4795C235.447 25.2247 235.06 24.8679 234.769 24.4374C234.478 24.0069 234.291 23.5145 234.223 22.9993C234.223 22.168 234.972 21.9206 235.9 22.4565L241.396 25.6444C241.847 25.8994 242.232 26.2555 242.522 26.6847C242.812 27.1139 242.998 27.6045 243.066 28.1178Z" fill="#FBF6F0"/>
<path d="M226.123 29.7599C226.123 30.5981 225.374 30.8385 224.447 30.3026L218.95 27.1216C218.499 26.8651 218.114 26.5077 217.824 26.0774C217.535 25.6471 217.349 25.1556 217.281 24.6413C217.281 23.81 218.03 23.5627 218.95 24.0986L224.447 27.2796C224.899 27.5353 225.286 27.8924 225.576 28.3227C225.867 28.7531 226.054 29.245 226.123 29.7599Z" fill="#FBF6F0"/>
<path d="M213.131 46.4208V1" stroke="#EBEBEB" stroke-width="1.08419" stroke-miterlimit="10" stroke-linecap="round"/>
<path d="M37.1022 146.888C37.1022 146.888 38.2289 136.802 35.1029 127.197C32.1623 118.114 26.2537 113.298 22.6742 111.855C15.9067 109.155 15.3021 116.61 20.3725 121.769C24.0895 125.562 33.0349 133.381 34.5738 146.641L37.1022 146.888Z" fill="#FFDA77"/>
<path opacity="0.7" d="M37.1022 146.888C37.1022 146.888 38.2289 136.802 35.1029 127.197C32.1623 118.114 26.2537 113.298 22.6742 111.855C15.9067 109.155 15.3021 116.61 20.3725 121.769C24.0895 125.562 33.0349 133.381 34.5738 146.641L37.1022 146.888Z" fill="white"/>
<path d="M20.8466 113.937C24.9345 116.685 35.9204 124.621 36.3189 146.812" stroke="#FAFAFA" stroke-width="1.08419" stroke-miterlimit="10" stroke-linecap="round"/>
<path d="M34.2234 153.779C32.1211 143.611 27.827 139.921 20.1527 135.991C16.8686 134.315 13.0211 132.446 11.6333 130.31C10.2454 128.173 10.9462 125.301 15.6731 125.363C24.3093 125.48 34.1479 135.888 35.4601 147.293L34.2234 153.779Z" fill="#FFDA77"/>
<path opacity="0.8" d="M34.2234 153.779C32.1211 143.611 27.827 139.921 20.1527 135.991C16.8686 134.315 13.0211 132.446 11.6333 130.31C10.2454 128.173 10.9462 125.301 15.6731 125.363C24.3093 125.48 34.1479 135.888 35.4601 147.293L34.2234 153.779Z" fill="white"/>
<path d="M14.9449 127.575C21.465 128.461 31.7638 136.06 35.0342 149.561" stroke="#FAFAFA" stroke-width="1.08419" stroke-miterlimit="10" stroke-linecap="round"/>
<path d="M275.096 142.127C277.741 137.043 279.795 122.779 276.395 116.184C272.994 109.588 267.937 110.117 267.154 112.254C266.467 114.226 268.164 117.75 270.362 121.948C272.561 126.146 274.416 135.139 272.334 139.33L275.096 142.127Z" fill="#FFDA77"/>
<path opacity="0.7" d="M275.096 142.127C277.741 137.043 279.795 122.779 276.395 116.184C272.994 109.588 267.937 110.117 267.154 112.254C266.467 114.226 268.164 117.75 270.362 121.948C272.561 126.146 274.416 135.139 272.334 139.33L275.096 142.127Z" fill="white"/>
<path d="M270.493 112.597C272.657 114.336 278.854 124.964 274.519 139.55" stroke="#FAFAFA" stroke-width="1.08419" stroke-miterlimit="10" stroke-linecap="round"/>
<path d="M274.258 147.513C272.664 144.325 269.174 139.049 271.551 135.428C273.928 131.807 276.415 135.009 278.325 132.645C280.235 130.282 278.05 126.462 279.699 124.401C282.887 120.347 285.196 125.054 287.696 124.435C289.503 123.989 291.516 119.983 296.717 120.471C301.918 120.959 301.657 125.081 299.342 127.019C297.027 128.956 294.278 130.887 296.065 133.793C297.645 136.369 298.462 141.131 293.055 142.979C287.889 144.744 290.445 146.984 289.62 149.513C288.796 152.041 283.918 154.439 278.73 152.487L274.258 147.513Z" fill="#FFDA77"/>
<path opacity="0.8" d="M274.258 147.513C272.664 144.325 269.174 139.049 271.551 135.428C273.928 131.807 276.415 135.009 278.325 132.645C280.235 130.282 278.05 126.462 279.699 124.401C282.887 120.347 285.196 125.054 287.696 124.435C289.503 123.989 291.516 119.983 296.717 120.471C301.918 120.959 301.657 125.081 299.342 127.019C297.027 128.956 294.278 130.887 296.065 133.793C297.645 136.369 298.462 141.131 293.055 142.979C287.889 144.744 290.445 146.984 289.62 149.513C288.796 152.041 283.918 154.439 278.73 152.487L274.258 147.513Z" fill="white"/>
<path d="M297.432 122.807C291.798 124.318 278.305 135.284 277.164 149.045" stroke="#FAFAFA" stroke-width="1.08419" stroke-miterlimit="10" stroke-linecap="round"/>
<path d="M293.372 137.256C290.589 136.624 283.519 136.534 280.874 137.819" stroke="#FAFAFA" stroke-width="1.08419" stroke-miterlimit="10" stroke-linecap="round"/>
<path d="M282.447 125.61C282.447 125.61 284.509 129.602 284.213 132.962" stroke="#FAFAFA" stroke-width="1.08419" stroke-miterlimit="10" stroke-linecap="round"/>
<path d="M205.594 86.6201C204.673 83.4316 203.027 80.4993 200.785 78.0526C198.135 75.1625 195.035 72.7195 191.606 70.8179C187.624 68.5624 183.39 66.7844 178.992 65.5208C174.146 64.1223 169.176 63.2019 164.151 62.7726C158.961 62.2985 153.739 62.2985 148.548 62.7726C143.526 63.2018 138.558 64.1223 133.715 65.5208C129.314 66.7831 125.078 68.5612 121.094 70.8179C117.665 72.7361 114.567 75.1953 111.922 78.1007C109.681 80.5489 108.036 83.4806 107.112 86.6682C106.292 89.6168 106.292 92.7336 107.112 95.6822C108.028 98.8708 109.675 101.802 111.922 104.243C114.569 107.151 117.669 109.612 121.101 111.532C125.08 113.787 129.312 115.563 133.708 116.823C138.553 118.227 143.523 119.157 148.548 119.598C153.739 120.066 158.961 120.066 164.151 119.598C169.179 119.155 174.151 118.223 178.998 116.816C183.395 115.556 187.627 113.781 191.606 111.526C195.039 109.607 198.139 107.146 200.785 104.236C203.028 101.793 204.675 98.8625 205.594 95.6754C206.416 92.7129 206.416 89.5825 205.594 86.6201Z" fill="#37474F"/>
<path d="M106.494 86.6338H206.206V91.718L106.494 91.4363V86.6338Z" fill="#37474F"/>
<path d="M148.548 58.2174L156.34 86.62L133.715 60.9931C138.557 59.5853 143.525 58.6556 148.548 58.2174Z" fill="#FFA45B"/>
<path d="M164.151 58.2175L156.36 86.6201L148.569 58.2037C153.753 57.7355 158.968 57.7401 164.151 58.2175Z" fill="#FFA45B"/>
<path d="M178.992 60.9931L156.36 86.6201L164.151 58.2037C169.177 58.6464 174.148 59.5807 178.992 60.9931Z" fill="#FFA45B"/>
<path d="M200.778 73.5661C203.019 76.0165 204.665 78.9506 205.587 82.1405L156.367 86.6201L200.778 73.5661Z" fill="#FFA45B"/>
<path d="M205.594 82.1474C206.408 85.0946 206.408 88.2074 205.594 91.1546L156.367 86.6201L205.594 82.1474Z" fill="#FFA45B"/>
<path d="M205.594 91.1546C204.673 94.3432 203.027 97.2755 200.785 99.7221L156.367 86.6682L205.594 91.1546Z" fill="#FFA45B"/>
<path d="M200.785 99.7221C198.138 102.629 195.039 105.089 191.606 107.005L156.353 86.6201L200.785 99.7221Z" fill="#FFA45B"/>
<path d="M156.36 86.6544L178.998 112.302C174.151 113.701 169.178 114.622 164.151 115.05L156.353 86.6338L156.36 86.6544Z" fill="#FFA45B"/>
<path d="M156.353 86.6613L164.151 115.078C158.961 115.552 153.739 115.552 148.548 115.078L156.353 86.6613Z" fill="#FFA45B"/>
<path d="M156.34 86.6544L148.535 115.071C143.508 114.642 138.535 113.722 133.688 112.323L156.34 86.6544Z" fill="#FFA45B"/>
<path d="M156.34 86.6544L133.667 112.302C129.271 111.037 125.04 109.259 121.06 107.005L156.34 86.6544Z" fill="#FFA45B"/>
<path d="M156.333 86.6201L111.915 99.674C109.669 97.2296 108.023 94.2966 107.106 91.1065L156.333 86.6201Z" fill="#FFA45B"/>
<path d="M156.333 86.6201L107.113 91.1546C106.292 88.2083 106.292 85.0937 107.113 82.1474L156.333 86.6201Z" fill="#FFA45B"/>
<path d="M156.333 86.62L107.112 82.1199C108.037 78.9308 109.683 75.9971 111.922 73.5455L156.333 86.62Z" fill="#FFA45B"/>
<path d="M121.094 66.2971L156.333 86.6201L111.922 73.5661C114.568 70.6655 117.666 68.211 121.094 66.2971Z" fill="#FFA45B"/>
<path d="M191.606 66.2971L156.36 86.62L178.992 60.9794C183.392 62.2466 187.626 64.0317 191.606 66.2971Z" fill="#FFA45B"/>
<path d="M191.606 66.2971C195.035 68.2092 198.133 70.6639 200.778 73.5661L156.367 86.6201L191.606 66.2971Z" fill="#FFA45B"/>
<path d="M156.34 86.6201L121.08 106.977C117.649 105.06 114.549 102.6 111.901 99.6946L156.319 86.6407L156.34 86.6201Z" fill="#FFA45B"/>
<path d="M133.715 60.9931L156.34 86.6201L121.094 66.2697C125.077 64.0173 129.314 62.2461 133.715 60.9931Z" fill="#FFA45B"/>
<path d="M156.36 86.6544L191.606 107.005C187.626 109.259 183.394 111.037 178.998 112.302L156.36 86.6544Z" fill="#FFA45B"/>
<path d="M126.199 57.9564L154.196 74.1158L152.822 51.2714C142.523 51.7111 133.777 53.9097 126.199 57.9564Z" fill="#FFDA77"/>
<path opacity="0.2" d="M126.199 57.9564L154.196 74.1158L152.822 51.2714C142.523 51.7111 133.777 53.9097 126.199 57.9564Z" fill="white"/>
<path d="M154.196 74.1158V82.9375L126.199 66.7712V57.9564L154.196 74.1158Z" fill="#FFDA77"/>
<path opacity="0.1" d="M154.196 74.1158V82.9375L126.199 66.7712V57.9564L154.196 74.1158Z" fill="black"/>
<path d="M190.493 60.2236L158.359 74.7204V83.5352L190.493 69.0385V60.2236Z" fill="#FFDA77"/>
<path opacity="0.3" d="M190.493 60.2236L158.359 74.7204V83.5352L190.493 69.0385V60.2236Z" fill="black"/>
<path d="M190.493 60.2237C181.843 54.3357 170.307 51.2302 156.937 51.189L157.796 65.4727L158.359 74.7204L190.493 60.2237Z" fill="#FFDA77"/>
<path opacity="0.1" d="M190.493 60.2237C181.843 54.3357 170.307 51.2302 156.937 51.189L157.796 65.4727L158.359 74.7204L190.493 60.2237Z" fill="black"/>
<path d="M156.93 51.189V60.0038L158.359 83.5352V74.7204L156.93 51.189Z" fill="#263238"/>
<path d="M164.893 91.6974L181.321 107.5C182.241 107.149 183.093 106.812 184.069 106.345C195.385 101.247 201.3 93.6074 201.293 85.8987V77.1732C200.05 73.8547 196.628 73.8616 193.049 70.9416L159.5 86.0567L159.163 86.2079L164.893 91.6974Z" fill="#FFDA77"/>
<path opacity="0.6" d="M164.893 91.6974L181.321 107.5C182.241 107.149 183.093 106.812 184.069 106.345C195.385 101.247 201.3 93.6074 201.293 85.8987V77.1732C200.05 73.8547 196.628 73.8616 193.049 70.9416L159.5 86.0567L159.163 86.2079L164.893 91.6974Z" fill="white"/>
<path d="M164.893 82.8825L181.321 98.6847C182.241 98.3343 183.093 97.9976 184.069 97.5236C203.011 88.9698 206.803 73.3051 193.062 62.0993L159.514 77.2144L159.177 77.3655L164.893 82.8825Z" fill="#FFDA77"/>
<path opacity="0.8" d="M164.893 82.8825L181.321 98.6847C182.241 98.3343 183.093 97.9976 184.069 97.5236C203.011 88.9698 206.803 73.3051 193.062 62.0993L159.514 77.2144L159.177 77.3655L164.893 82.8825Z" fill="white"/>
<path d="M181.293 107.486V98.6641L159.143 77.3861V86.201L181.293 107.486Z" fill="#FFDA77"/>
<path opacity="0.6" d="M181.293 107.486V98.6641L159.143 77.3861V86.201L181.293 107.486Z" fill="white"/>
<path d="M123.286 68.4545C118.566 71.4294 113.323 73.3051 111.413 76.9189V85.7407C111.413 90.337 113.55 94.9952 117.982 99.2549C124.165 105.184 133.956 109.375 145.587 111.045C156.352 112.634 167.334 111.834 177.755 108.702V99.887L163.293 94.8028L154.801 86.6201L123.286 68.4545Z" fill="#FFDA77"/>
<path opacity="0.6" d="M123.286 68.4545C118.566 71.4294 113.323 73.3051 111.413 76.9189V85.7407C111.413 90.337 113.55 94.9952 117.982 99.2549C124.165 105.184 133.956 109.375 145.587 111.045C156.352 112.634 167.334 111.834 177.755 108.702V99.887L163.293 94.8028L154.801 86.6201L123.286 68.4545Z" fill="black"/>
<path d="M123.286 59.6396C109.723 68.1728 107.538 80.4023 117.982 90.4332C124.165 96.3693 133.955 100.553 145.587 102.23C156.352 103.815 167.333 103.015 177.755 99.887L163.292 85.988L154.801 77.8327L123.286 59.6396Z" fill="#FFDA77"/>
<path opacity="0.3" d="M123.286 59.6396C109.723 68.1728 107.538 80.4023 117.982 90.4332C124.165 96.3693 133.955 100.553 145.587 102.23C156.352 103.815 167.333 103.015 177.755 99.887L163.292 85.988L154.801 77.8327L123.286 59.6396Z" fill="black"/>
<path d="M280.654 155.772C279.733 152.583 278.087 149.651 275.845 147.204C273.201 144.298 270.103 141.838 266.673 139.921C262.691 137.666 258.457 135.888 254.059 134.624C249.213 133.226 244.243 132.305 239.218 131.876C234.028 131.402 228.806 131.402 223.615 131.876C218.593 132.306 213.625 133.226 208.782 134.624C204.384 135.888 200.15 137.666 196.168 139.921C192.735 141.838 189.635 144.297 186.989 147.204C184.749 149.652 183.103 152.584 182.179 155.772C181.359 158.72 181.359 161.837 182.179 164.786C183.095 167.974 184.742 170.905 186.989 173.346C189.636 176.254 192.736 178.716 196.168 180.636C200.148 182.888 204.379 184.664 208.775 185.926C213.623 187.321 218.596 188.242 223.622 188.674C228.813 189.142 234.035 189.142 239.225 188.674C244.252 188.242 249.224 187.322 254.072 185.926C258.47 184.667 262.702 182.889 266.68 180.629C270.115 178.713 273.217 176.254 275.866 173.346C278.107 170.902 279.753 167.972 280.675 164.786C281.486 161.835 281.479 158.719 280.654 155.772Z" fill="#37474F"/>
<path d="M181.554 155.765H281.266V160.849L181.554 160.567V155.765Z" fill="#37474F"/>
<path d="M223.609 127.348L231.407 155.765L208.775 130.124C213.617 128.717 218.585 127.787 223.609 127.348Z" fill="#FFA45B"/>
<path d="M239.211 127.348L231.42 155.765L223.622 127.348C228.808 126.875 234.026 126.875 239.211 127.348Z" fill="#FFA45B"/>
<path d="M254.052 130.124L231.42 155.765L239.211 127.348C244.237 127.787 249.207 128.716 254.052 130.124Z" fill="#FFA45B"/>
<path d="M275.838 142.704C278.08 145.153 279.726 148.088 280.647 151.278L231.427 155.778L275.838 142.704Z" fill="#FFA45B"/>
<path d="M280.654 151.278C281.472 154.225 281.472 157.339 280.654 160.285L231.434 155.778L280.654 151.278Z" fill="#FFA45B"/>
<path d="M280.654 160.285C279.731 163.473 278.086 166.405 275.845 168.853L231.427 155.799L280.654 160.285Z" fill="#FFA45B"/>
<path d="M275.852 168.853C273.2 171.757 270.098 174.216 266.666 176.136L231.413 155.778L275.852 168.853Z" fill="#FFA45B"/>
<path d="M231.42 155.785L254.059 181.433C249.21 182.829 244.238 183.749 239.211 184.181L231.413 155.765L231.42 155.785Z" fill="#FFA45B"/>
<path d="M231.413 155.792L239.211 184.181C234.021 184.652 228.799 184.652 223.609 184.181L231.413 155.792Z" fill="#FFA45B"/>
<path d="M231.407 155.785L223.609 184.181C218.582 183.748 213.61 182.828 208.761 181.433L231.407 155.785Z" fill="#FFA45B"/>
<path d="M231.407 155.785L208.734 181.433C204.339 180.165 200.108 178.388 196.127 176.136L231.407 155.785Z" fill="#FFA45B"/>
<path d="M231.393 155.778L186.975 168.832C184.729 166.388 183.083 163.455 182.166 160.265L231.393 155.778Z" fill="#FFA45B"/>
<path d="M231.393 155.778L182.173 160.285C181.352 157.339 181.352 154.225 182.173 151.278L231.393 155.778Z" fill="#FFA45B"/>
<path d="M231.393 155.772L182.173 151.271C183.096 148.082 184.741 145.148 186.982 142.697L231.393 155.772Z" fill="#FFA45B"/>
<path d="M196.161 135.401L231.393 155.744L186.982 142.69C189.628 139.781 192.728 137.319 196.161 135.401Z" fill="#FFA45B"/>
<path d="M266.666 135.401L231.42 155.744L254.052 130.103C258.451 131.364 262.685 133.142 266.666 135.401Z" fill="#FFA45B"/>
<path d="M266.666 135.401C270.096 137.315 273.194 139.772 275.838 142.676L231.434 155.73L266.666 135.401Z" fill="#FFA45B"/>
<path d="M231.407 155.772L196.154 176.136C192.724 174.216 189.625 171.757 186.975 168.853L231.393 155.799L231.407 155.772Z" fill="#FFA45B"/>
<path d="M208.775 130.124L231.406 155.765L196.161 135.401C200.142 133.149 204.377 131.378 208.775 130.124Z" fill="#FFA45B"/>
<path d="M231.42 155.785L266.666 176.136C262.686 178.39 258.454 180.168 254.059 181.433L231.42 155.785Z" fill="#FFA45B"/>
<path d="M187.49 144.614V158.891C187.129 157.586 186.944 156.239 186.941 154.885V144.614H187.49Z" fill="#FFDA77"/>
<path opacity="0.3" d="M187.49 144.614V158.891C187.129 157.586 186.944 156.239 186.941 154.885V144.614H187.49Z" fill="black"/>
<path d="M231.393 144.628L187.49 148.64C186.762 146.012 186.762 143.236 187.49 140.608L231.393 144.628Z" fill="#FFDA77"/>
<path d="M231.393 144.614L187.49 140.595C188.315 137.75 189.785 135.133 191.784 132.948L231.393 144.614Z" fill="#FFDA77"/>
<path d="M199.967 126.469L231.393 144.614L191.784 132.934C194.147 130.354 196.91 128.17 199.967 126.469Z" fill="#FFDA77"/>
<path d="M211.221 121.742L231.407 144.607L199.967 126.469C203.519 124.454 207.296 122.868 211.221 121.742Z" fill="#FFDA77"/>
<path d="M224.454 119.269L231.407 144.607L211.221 121.742C215.54 120.486 219.972 119.657 224.454 119.269Z" fill="#FFDA77"/>
<path d="M238.408 119.269L231.42 144.607L224.467 119.269C229.104 118.841 233.771 118.841 238.408 119.269Z" fill="#FFDA77"/>
<path d="M251.606 121.742L231.42 144.607L238.408 119.269C242.877 119.659 247.298 120.488 251.606 121.742Z" fill="#FFDA77"/>
<g opacity="0.2">
<path opacity="0.2" d="M231.393 144.628L187.49 148.64C186.762 146.012 186.762 143.236 187.49 140.608L231.393 144.628Z" fill="white"/>
<path opacity="0.2" d="M231.393 144.614L187.49 140.595C188.315 137.75 189.785 135.133 191.784 132.948L231.393 144.614Z" fill="white"/>
<path opacity="0.2" d="M199.967 126.469L231.393 144.614L191.784 132.934C194.147 130.354 196.91 128.171 199.967 126.469Z" fill="white"/>
<path opacity="0.2" d="M211.221 121.742L231.407 144.607L199.967 126.469C203.519 124.454 207.296 122.868 211.221 121.742Z" fill="white"/>
<path opacity="0.2" d="M224.454 119.269L231.407 144.607L211.221 121.742C215.54 120.486 219.972 119.657 224.454 119.269Z" fill="white"/>
<path opacity="0.2" d="M238.408 119.269L231.42 144.607L224.467 119.269C229.104 118.841 233.771 118.841 238.408 119.269Z" fill="white"/>
<path opacity="0.2" d="M251.606 121.742L231.42 144.607L238.408 119.269C242.877 119.659 247.298 120.488 251.606 121.742Z" fill="white"/>
</g>
<path d="M268.638 151.471L262.049 157.654L257.04 162.388L252.265 166.881L251.626 167.479V177.737C255.551 176.612 259.328 175.028 262.88 173.017C265.941 171.3 268.706 169.103 271.07 166.51C273.069 164.332 274.534 161.719 275.35 158.877C275.714 157.573 275.901 156.226 275.907 154.872V144.621L268.638 151.471Z" fill="#FFDA77"/>
<path opacity="0.3" d="M268.638 151.471L262.049 157.654L257.04 162.388L252.265 166.881L251.626 167.479V177.737C255.551 176.612 259.328 175.028 262.88 173.017C265.941 171.3 268.706 169.103 271.07 166.51C273.069 164.332 274.534 161.719 275.35 158.877C275.714 157.573 275.901 156.226 275.907 154.872V144.621L268.638 151.471Z" fill="black"/>
<path d="M271.042 132.962C273.039 135.149 274.508 137.765 275.336 140.608L231.427 144.628L271.042 132.962Z" fill="#FFDA77"/>
<path d="M275.886 144.634C275.881 145.991 275.693 147.34 275.33 148.647L262.028 147.424L231.427 144.621L268.617 141.186L275.33 140.574C275.697 141.896 275.884 143.262 275.886 144.634Z" fill="#FFDA77"/>
<path d="M275.33 148.647C274.512 151.488 273.047 154.101 271.049 156.28L257.02 152.158L231.427 144.6L262.028 147.403L275.33 148.647Z" fill="#FFDA77"/>
<path d="M271.049 156.28C268.685 158.873 265.92 161.07 262.86 162.786L252.245 156.644L231.434 144.634L257.027 152.192L271.049 156.28Z" fill="#FFDA77"/>
<path d="M262.86 126.469L231.42 144.621L251.606 121.756C255.529 122.88 259.306 124.462 262.86 126.469Z" fill="#FFDA77"/>
<path d="M262.86 126.469C265.918 128.181 268.68 130.373 271.042 132.962L231.427 144.641L262.86 126.469Z" fill="#FFDA77"/>
<path d="M262.86 162.786C259.307 164.795 255.53 166.377 251.606 167.499L231.434 144.634L252.245 156.644L262.86 162.786Z" fill="#FFDA77"/>
<g opacity="0.2">
<path opacity="0.2" d="M271.042 132.962C273.039 135.149 274.508 137.765 275.336 140.608L231.427 144.628L271.042 132.962Z" fill="white"/>
<path opacity="0.2" d="M275.886 144.635C275.881 145.991 275.693 147.34 275.33 148.647L262.028 147.424L231.427 144.621L268.617 141.186L275.33 140.574C275.697 141.896 275.884 143.262 275.886 144.635Z" fill="white"/>
<path opacity="0.2" d="M275.33 148.647C274.512 151.488 273.047 154.101 271.049 156.28L257.02 152.158L231.427 144.6L262.028 147.403L275.33 148.647Z" fill="white"/>
<path opacity="0.2" d="M271.049 156.28C268.685 158.873 265.92 161.07 262.86 162.786L252.245 156.644L231.434 144.635L257.027 152.192L271.049 156.28Z" fill="white"/>
<path opacity="0.2" d="M262.86 126.469L231.42 144.621L251.606 121.756C255.529 122.88 259.306 124.462 262.86 126.469Z" fill="white"/>
<path opacity="0.2" d="M262.86 126.469C265.918 128.181 268.68 130.373 271.042 132.962L231.427 144.641L262.86 126.469Z" fill="white"/>
<path opacity="0.2" d="M262.86 162.786C259.307 164.795 255.53 166.377 251.606 167.5L231.434 144.635L252.245 156.644L262.86 162.786Z" fill="white"/>
</g>
<path d="M251.613 167.506V177.764L231.406 154.872V144.607L251.613 167.506Z" fill="#263238"/>
<path d="M231.407 154.872L187.49 158.904V148.64L231.407 144.607V154.872Z" fill="#FFDA77"/>
<path opacity="0.1" d="M231.407 154.872L187.49 158.904V148.64L231.407 144.607V154.872Z" fill="black"/>
<path d="M130.541 155.772C129.62 152.583 127.974 149.651 125.732 147.204C123.086 144.299 119.989 141.84 116.559 139.921C112.576 137.665 108.339 135.887 103.938 134.624C99.0955 133.226 94.1273 132.305 89.1049 131.876C83.9148 131.402 78.6922 131.402 73.502 131.876C68.4775 132.306 63.5071 133.226 58.6618 134.624C54.2587 135.887 50.02 137.665 46.0338 139.921C42.6035 141.838 39.5061 144.298 36.8617 147.204C34.6194 149.651 32.9734 152.583 32.0524 155.772C31.2381 158.721 31.2381 161.836 32.0524 164.786C32.9718 167.973 34.618 170.903 36.8617 173.346C39.5056 176.255 42.603 178.717 46.0338 180.636C50.0127 182.891 54.2446 184.667 58.6412 185.926C63.4893 187.322 68.4618 188.242 73.4883 188.674C78.6788 189.142 83.9007 189.142 89.0912 188.674C94.1177 188.242 99.0902 187.322 103.938 185.926C108.336 184.667 112.568 182.889 116.546 180.629C119.981 178.714 123.084 176.255 125.732 173.346C127.975 170.903 129.621 167.973 130.541 164.786C131.355 161.836 131.355 158.721 130.541 155.772Z" fill="#37474F"/>
<path d="M31.434 155.765H131.145V160.849L31.434 160.567V155.765Z" fill="#37474F"/>
<path d="M73.5158 127.348L81.3069 155.765L58.6755 130.124C63.5199 128.717 68.4903 127.787 73.5158 127.348Z" fill="#FFA45B"/>
<path d="M89.0911 127.348L81.3 155.765L73.5157 127.348C78.6968 126.876 83.9101 126.876 89.0911 127.348Z" fill="#FFA45B"/>
<path d="M103.925 130.124L81.3 155.765L89.0912 127.348C94.1145 127.787 99.0827 128.716 103.925 130.124Z" fill="#FFA45B"/>
<path d="M125.732 142.704C127.974 145.153 129.62 148.088 130.541 151.278L81.3138 155.778L125.732 142.704Z" fill="#FFA45B"/>
<path d="M130.541 151.278C131.355 154.225 131.355 157.338 130.541 160.285L81.3138 155.778L130.541 151.278Z" fill="#FFA45B"/>
<path d="M130.541 160.285C129.62 163.474 127.974 166.406 125.732 168.853L81.3138 155.799L130.541 160.285Z" fill="#FFA45B"/>
<path d="M125.732 168.853C123.082 171.757 119.983 174.216 116.553 176.136L81.2932 155.778L125.732 168.853Z" fill="#FFA45B"/>
<path d="M81.3001 155.785L103.938 181.433C99.0902 182.829 94.1177 183.749 89.0912 184.181L81.2863 155.765L81.3001 155.785Z" fill="#FFA45B"/>
<path d="M81.2863 155.792L89.0911 184.181C83.9099 184.65 78.697 184.65 73.5157 184.181L81.2863 155.792Z" fill="#FFA45B"/>
<path d="M81.2794 155.785L73.5158 184.181C68.4893 183.749 63.5167 182.829 58.6686 181.433L81.2794 155.785Z" fill="#FFA45B"/>
<path d="M81.2794 155.785L58.6068 181.433C54.2229 180.165 50.003 178.388 46.0338 176.136L81.2794 155.785Z" fill="#FFA45B"/>
<path d="M81.2725 155.778L36.8548 168.832C34.6123 166.386 32.9662 163.453 32.0455 160.265L81.2725 155.778Z" fill="#FFA45B"/>
<path d="M81.2726 155.778L32.0456 160.285C31.2315 157.338 31.2315 154.225 32.0456 151.278L81.2726 155.778Z" fill="#FFA45B"/>
<path d="M81.2725 155.772L32.0455 151.271C32.9664 148.081 34.6123 145.146 36.8548 142.697L81.2725 155.772Z" fill="#FFA45B"/>
<path d="M46.0338 135.401L81.2725 155.744L36.8617 142.69C39.5051 139.781 42.6026 137.319 46.0338 135.401Z" fill="#FFA45B"/>
<path d="M116.546 135.401L81.3 155.744L103.925 130.103C108.327 131.363 112.563 133.141 116.546 135.401Z" fill="#FFA45B"/>
<path d="M116.546 135.401C119.981 137.324 123.084 139.79 125.731 142.704L81.3206 155.758L116.546 135.401Z" fill="#FFA45B"/>
<path d="M81.2795 155.772L46.0338 176.136C42.6024 174.218 39.503 171.758 36.8549 168.853L81.2726 155.799L81.2795 155.772Z" fill="#FFA45B"/>
<path d="M58.648 130.124L81.2794 155.765L46.0338 135.401C50.0153 133.149 54.2496 131.378 58.648 130.124Z" fill="#FFA45B"/>
<path d="M81.3 155.785L116.546 176.136C112.566 178.39 108.334 180.168 103.938 181.433L81.3 155.785Z" fill="#FFA45B"/>
<path d="M94.5464 138.149L100.228 131.704C100.228 124.147 90.9944 123.961 86.9133 123.597C82.8322 123.233 75.8312 120.89 75.8312 129.492L77.7824 136.61C83.4164 136.248 89.0724 136.767 94.5464 138.149Z" fill="#FFDA77"/>
<path opacity="0.6" d="M94.5464 138.149L100.228 131.704C100.228 124.147 90.9944 123.961 86.9133 123.597C82.8322 123.233 75.8312 120.89 75.8312 129.492L77.7824 136.61C83.4164 136.248 89.0724 136.767 94.5464 138.149Z" fill="white"/>
<path d="M94.5464 128.029L100.228 121.591C92.2723 119.52 84.0298 118.773 75.8312 119.379L77.7824 126.469C83.4175 126.114 89.0735 126.64 94.5464 128.029Z" fill="#FFDA77"/>
<path opacity="0.8" d="M94.5464 128.029L100.228 121.591C92.2723 119.52 84.0298 118.773 75.8312 119.379L77.7824 126.469C83.4175 126.114 89.0735 126.64 94.5464 128.029Z" fill="white"/>
<path d="M77.7824 126.496V136.624L75.8312 129.506V119.379L77.7824 126.496Z" fill="#FFDA77"/>
<path d="M100.228 121.591L94.5463 128.028V138.162L100.228 131.718V121.591Z" fill="#FFDA77"/>
<g opacity="0.6">
<path opacity="0.6" d="M77.7824 126.496V136.624L75.8312 129.506V119.379L77.7824 126.496Z" fill="white"/>
<path opacity="0.6" d="M100.228 121.591L94.5464 128.028V138.162L100.228 131.718V121.591Z" fill="white"/>
</g>
<path d="M97.322 128.846V138.973C99.6927 139.739 101.981 140.74 104.151 141.962C106.046 143.037 107.786 144.364 109.325 145.906L120.469 142.628C118.253 140.367 115.73 138.428 112.973 136.871C109.929 135.126 106.673 128.049 97.322 128.846Z" fill="#FFDA77"/>
<path opacity="0.6" d="M97.322 128.846V138.973C99.6927 139.739 101.981 140.74 104.151 141.962C106.046 143.037 107.786 144.364 109.325 145.906L120.469 142.628C118.253 140.367 115.73 138.428 112.973 136.871C109.929 135.126 106.673 128.049 97.322 128.846Z" fill="black"/>
<path d="M103.004 122.415L97.322 128.846C99.6949 129.606 101.983 130.607 104.151 131.835C106.046 132.91 107.786 134.237 109.325 135.778L120.469 132.501C118.257 130.235 115.733 128.297 112.973 126.744C109.814 124.949 106.472 123.498 103.004 122.415Z" fill="#FFDA77"/>
<path opacity="0.3" d="M103.004 122.415L97.322 128.846C99.6949 129.606 101.983 130.607 104.151 131.835C106.046 132.91 107.786 134.237 109.325 135.778L120.469 132.501C118.257 130.235 115.733 128.297 112.973 126.744C109.814 124.949 106.472 123.498 103.004 122.415Z" fill="black"/>
<path d="M109.325 135.778L120.469 132.494V142.628L109.325 145.906V135.778Z" fill="#FFDA77"/>
<path opacity="0.6" d="M109.325 135.778L120.469 132.494V142.628L109.325 145.906V135.778Z" fill="black"/>
<path d="M126.061 144.765H122.296C122.159 144.586 122.042 144.408 121.905 144.229L110.747 137.359V147.493C113.124 150.55 114.024 153.889 113.406 157.166L125.731 158.314C125.94 157.292 126.044 156.251 126.041 155.208L126.061 144.765Z" fill="#FFDA77"/>
<path opacity="0.6" d="M126.061 144.765H122.296C122.159 144.586 122.042 144.408 121.905 144.229L110.747 137.359V147.493C113.124 150.55 114.024 153.889 113.406 157.166L125.731 158.314C125.94 157.292 126.044 156.251 126.041 155.208L126.061 144.765Z" fill="black"/>
<path d="M113.399 147.08L125.731 148.187C126.735 143.425 125.464 138.527 121.898 134.102L110.74 137.379C113.117 140.437 114.052 143.783 113.399 147.08Z" fill="#FFDA77"/>
<path opacity="0.3" d="M113.399 147.08L125.731 148.187C126.735 143.425 125.464 138.527 121.898 134.102L110.74 137.379C113.117 140.437 114.052 143.783 113.399 147.08Z" fill="black"/>
<path d="M125.732 148.187V158.321L113.399 157.187V147.06L125.732 148.187Z" fill="#FFDA77"/>
<path opacity="0.6" d="M125.732 148.187V158.321L113.399 157.187V147.06L125.732 148.187Z" fill="black"/>
<path d="M74.7044 136.912V126.778C67.8339 123.611 55.041 126.826 50.7538 136.259L59.5756 141.357C64.3139 138.987 69.4372 137.482 74.7044 136.912Z" fill="#FFDA77"/>
<path opacity="0.3" d="M74.7044 136.912V126.778C67.8339 123.611 55.041 126.826 50.7538 136.259L59.5756 141.357C64.3139 138.987 69.4372 137.482 74.7044 136.912Z" fill="black"/>
<path d="M74.7043 126.778L72.7463 119.64C64.4398 120.574 56.8342 122.862 50.7607 126.132L59.5824 131.223C64.3187 128.854 69.4395 127.349 74.7043 126.778Z" fill="#FFDA77"/>
<path opacity="0.1" d="M74.7043 126.778L72.7463 119.64C64.4398 120.574 56.8342 122.862 50.7607 126.132L59.5824 131.223C64.3187 128.854 69.4395 127.349 74.7043 126.778Z" fill="black"/>
<path d="M59.5756 131.223V141.357L50.7538 136.259V126.132L59.5756 131.223Z" fill="#263238"/>
<path d="M50.3485 132.501L48.5347 137.524C42.6054 141.192 38.861 145.61 37.322 150.234L49.6889 151.361C50.8225 148.193 53.4058 145.177 57.4045 142.635V132.501H50.3485Z" fill="#FFDA77"/>
<path opacity="0.3" d="M50.3485 132.501L48.5347 137.524C42.6054 141.192 38.861 145.61 37.322 150.234L49.6889 151.361C50.8225 148.193 53.4058 145.177 57.4045 142.635V132.501H50.3485Z" fill="black"/>
<path d="M57.377 132.501L48.5347 127.396C42.6054 131.058 38.861 135.483 37.322 140.1L49.6889 141.234C50.7951 138.066 53.3784 135.043 57.377 132.501Z" fill="#FFDA77"/>
<path opacity="0.1" d="M57.377 132.501L48.5347 127.396C42.6054 131.058 38.861 135.483 37.322 140.1L49.6889 141.234C50.7951 138.066 53.3784 135.043 57.377 132.501Z" fill="black"/>
<path d="M37.322 140.1V150.234L49.6614 151.361V141.234L37.322 140.1Z" fill="#263238"/>
<path d="M49.1736 153.14V143.006L45.5048 142.676L36.5182 145.019V155.139C36.5757 159.161 38.0335 163.036 40.6405 166.098L51.7982 162.821C49.4691 159.763 48.5622 156.417 49.1736 153.14Z" fill="#FFDA77"/>
<path opacity="0.3" d="M49.1736 153.14V143.006L45.5048 142.676L36.5182 145.019V155.139C36.5757 159.161 38.0335 163.036 40.6405 166.098L51.7982 162.821C49.4691 159.763 48.5622 156.417 49.1736 153.14Z" fill="black"/>
<path d="M40.6817 155.971L51.8394 152.687V162.821L40.6817 166.098V155.971Z" fill="#263238"/>
<path d="M49.1805 143.006L36.8136 141.879C35.8105 146.648 37.0816 151.539 40.6473 155.971L51.805 152.687C49.4691 149.629 48.5622 146.283 49.1805 143.006Z" fill="#FFDA77"/>
<path opacity="0.1" d="M49.1805 143.006L36.8136 141.879C35.8105 146.648 37.0816 151.539 40.6473 155.971L51.805 152.687C49.4691 149.629 48.5622 146.283 49.1805 143.006Z" fill="black"/>
<path d="M62.3787 166.084C57.1503 163.068 54.5395 159.117 54.5395 155.167V145.019H108.04V155.146C108.04 159.104 105.429 163.054 100.201 166.07C89.7576 172.116 72.8287 172.116 62.3787 166.084Z" fill="#37474F"/>
<path d="M81.2932 160.478C96.0651 160.478 108.04 153.563 108.04 145.033C108.04 136.503 96.0651 129.588 81.2932 129.588C66.5214 129.588 54.5464 136.503 54.5464 145.033C54.5464 153.563 66.5214 160.478 81.2932 160.478Z" fill="#FFA45B"/>
<path d="M59.5755 168.984V167.692L42.1039 157.572V167.692C44.3204 169.956 46.8463 171.894 49.6065 173.449C52.7651 175.245 56.1073 176.696 59.5755 177.778L65.2506 171.347C63.2989 170.712 61.4011 169.921 59.5755 168.984Z" fill="#FFDA77"/>
<path opacity="0.3" d="M59.5755 168.984V167.692L42.1039 157.572V167.692C44.3204 169.956 46.8463 171.894 49.6065 173.449C52.7651 175.245 56.1073 176.696 59.5755 177.778L65.2506 171.347C63.2989 170.712 61.4011 169.921 59.5755 168.984Z" fill="black"/>
<path d="M58.4007 158.231C56.5043 157.159 54.7618 155.834 53.2204 154.294L42.0764 157.572C44.2947 159.833 46.8203 161.772 49.579 163.329C52.7391 165.121 56.0809 166.572 59.5481 167.658L65.2231 161.22C62.8524 160.46 60.5662 159.459 58.4007 158.231Z" fill="#FFDA77"/>
<path opacity="0.1" d="M58.4007 158.231C56.5043 157.159 54.7618 155.834 53.2204 154.294L42.0764 157.572C44.2947 159.833 46.8203 161.772 49.579 163.329C52.7391 165.121 56.0809 166.572 59.5481 167.658L65.2231 161.22C62.8524 160.46 60.5662 159.459 58.4007 158.231Z" fill="black"/>
<path d="M59.5756 177.785V167.658L65.2506 161.22V171.354L59.5756 177.785Z" fill="#263238"/>
<path d="M62.3513 168.475V178.609C70.3072 180.68 78.5497 181.427 86.7484 180.821V170.694L62.3513 168.475Z" fill="#FFDA77"/>
<path opacity="0.1" d="M62.3513 168.475V178.609C70.3072 180.68 78.5497 181.427 86.7484 180.821V170.694L62.3513 168.475Z" fill="black"/>
<path d="M68.0194 162.037L62.3375 168.475C70.2937 170.545 78.5356 171.294 86.7346 170.694L84.7972 163.57C79.1589 163.935 73.4982 163.418 68.0194 162.037Z" fill="#FFDA77"/>
<path opacity="0.2" d="M68.0194 162.037L62.3375 168.475C70.2937 170.545 78.5356 171.294 86.7346 170.694L84.7972 163.57C79.1589 163.935 73.4982 163.418 68.0194 162.037Z" fill="white"/>
<path d="M105.203 167.692L114.052 172.804C119.981 169.142 123.725 164.717 125.264 160.093V149.966L112.897 158.966C111.784 162.134 109.201 165.157 105.203 167.692Z" fill="#FFDA77"/>
<path opacity="0.1" d="M105.203 167.692L114.052 172.804C119.981 169.142 123.725 164.717 125.264 160.093V149.966L112.897 158.966C111.784 162.134 109.201 165.157 105.203 167.692Z" fill="black"/>
<path d="M105.203 157.565L114.052 162.676C119.981 159.008 123.725 154.59 125.264 149.966L112.897 148.839C111.784 152.007 109.201 155.023 105.203 157.565Z" fill="#FFDA77"/>
<path opacity="0.2" d="M105.203 157.565L114.052 162.676C119.981 159.008 123.725 154.59 125.264 149.966L112.897 148.839C111.784 152.007 109.201 155.023 105.203 157.565Z" fill="white"/>
<path d="M114.045 162.676V172.804L105.203 167.699V157.565L114.045 162.676Z" fill="#FFDA77"/>
<path opacity="0.3" d="M114.045 162.676V172.804L105.203 167.699V157.565L114.045 162.676Z" fill="black"/>
<path d="M89.8332 170.44V173.188C89.1805 173.291 88.5347 173.381 87.8751 173.456L89.8332 180.588C97.8373 179.695 105.491 177.53 111.819 174.109V163.947L89.8332 170.44Z" fill="#FFDA77"/>
<path opacity="0.1" d="M89.8332 170.44V173.188C89.1805 173.291 88.5347 173.381 87.8751 173.456L89.8332 180.588C97.8373 179.695 105.491 177.53 111.819 174.109V163.947L89.8332 170.44Z" fill="black"/>
<path d="M87.8751 163.295L89.8332 170.44C97.8373 169.547 105.491 167.39 111.819 163.968L102.976 158.856C98.2501 161.231 93.1346 162.734 87.8751 163.295Z" fill="#FFDA77"/>
<path opacity="0.2" d="M87.8751 163.295L89.8332 170.44C97.8373 169.547 105.491 167.39 111.819 163.968L102.976 158.856C98.2501 161.231 93.1346 162.734 87.8751 163.295Z" fill="white"/>
<path d="M89.8332 170.419V180.547L87.8751 173.429V163.295L89.8332 170.419Z" fill="#FFDA77"/>
<path opacity="0.3" d="M89.8332 170.419V180.547L87.8751 173.429V163.295L89.8332 170.419Z" fill="black"/>
<path d="M261.293 102.656C261.269 102.209 261.14 101.774 260.917 101.386C260.693 100.999 260.382 100.669 260.008 100.423L241.403 89.6843C240.716 89.2721 240.118 89.6087 240.118 90.4332V108.413C240.142 108.86 240.27 109.296 240.493 109.684C240.717 110.072 241.028 110.401 241.403 110.646L249.194 115.139L251.654 125.095C251.646 125.277 251.71 125.455 251.833 125.59C251.956 125.724 252.128 125.805 252.31 125.813C252.492 125.821 252.67 125.756 252.805 125.633C252.939 125.51 253.02 125.339 253.028 125.157L255.281 118.65L260.043 121.398C260.73 121.811 261.327 121.474 261.327 120.656L261.293 102.656Z" fill="#FFDA77"/>
<path opacity="0.5" d="M261.293 102.656C261.269 102.209 261.14 101.774 260.917 101.386C260.693 100.999 260.382 100.669 260.008 100.423L241.403 89.6843C240.716 89.2721 240.118 89.6087 240.118 90.4332V108.413C240.142 108.86 240.27 109.296 240.493 109.684C240.717 110.072 241.028 110.401 241.403 110.646L249.194 115.139L251.654 125.095C251.646 125.277 251.71 125.455 251.833 125.59C251.956 125.724 252.128 125.805 252.31 125.813C252.492 125.821 252.67 125.756 252.805 125.633C252.939 125.51 253.02 125.339 253.028 125.157L255.281 118.65L260.043 121.398C260.73 121.811 261.327 121.474 261.327 120.656L261.293 102.656Z" fill="white"/>
<path d="M247.167 97.8739C247.547 98.0899 247.898 98.3531 248.212 98.6572C248.492 98.9301 248.743 99.2318 248.961 99.5572C249.149 99.8451 249.304 100.154 249.421 100.478C249.518 100.753 249.58 101.039 249.606 101.33C249.606 101.625 249.641 101.934 249.641 102.257C249.641 102.58 249.641 102.876 249.606 103.15C249.59 103.372 249.526 103.587 249.421 103.783C249.318 103.963 249.155 104.102 248.961 104.174C248.715 104.241 248.457 104.241 248.212 104.174C247.842 104.089 247.489 103.942 247.167 103.741C246.786 103.528 246.433 103.267 246.116 102.965C245.835 102.7 245.586 102.402 245.374 102.079C245.015 101.548 244.791 100.937 244.721 100.299C244.721 100.004 244.721 99.6946 244.721 99.3717C244.721 99.0488 244.721 98.7533 244.721 98.4854C244.743 98.2618 244.808 98.0446 244.914 97.8464C245.013 97.6632 245.177 97.5236 245.374 97.4548C245.614 97.3791 245.87 97.3673 246.116 97.4205C246.491 97.5085 246.846 97.662 247.167 97.8739ZM253.736 102.058C253.806 102.006 253.889 101.975 253.976 101.969C254.101 101.977 254.222 102.017 254.326 102.086L255.309 102.656C255.422 102.72 255.52 102.806 255.597 102.91C255.662 102.998 255.698 103.103 255.701 103.212C255.703 103.235 255.703 103.258 255.701 103.281C255.689 103.306 255.672 103.33 255.652 103.35L247.559 109.327C247.489 109.379 247.406 109.412 247.319 109.423C247.193 109.415 247.071 109.372 246.968 109.3L245.986 108.736C245.871 108.671 245.773 108.582 245.697 108.475C245.631 108.39 245.593 108.287 245.587 108.18C245.582 108.155 245.582 108.129 245.587 108.104C245.597 108.077 245.613 108.054 245.635 108.035L253.736 102.058ZM248.033 102.058C248.043 101.958 248.043 101.856 248.033 101.756V100.869C248.042 100.762 248.042 100.654 248.033 100.547C248.011 100.305 247.938 100.071 247.82 99.8595C247.662 99.6022 247.436 99.3931 247.167 99.2549C246.851 99.0694 246.631 99.0213 246.48 99.1037C246.415 99.1559 246.363 99.2217 246.326 99.2965C246.289 99.3713 246.269 99.4532 246.267 99.5366C246.267 99.5984 246.267 99.6946 246.267 99.8389C246.267 99.9832 246.267 100.121 246.267 100.272C246.267 100.423 246.267 100.574 246.267 100.718C246.267 100.863 246.267 100.973 246.267 101.048C246.293 101.289 246.365 101.522 246.48 101.735C246.649 101.996 246.887 102.206 247.167 102.34C247.483 102.525 247.703 102.573 247.82 102.491C247.882 102.441 247.933 102.379 247.968 102.307C248.004 102.236 248.024 102.158 248.026 102.079L248.033 102.058ZM254.258 107.699C254.64 107.915 254.993 108.178 255.309 108.482C255.587 108.755 255.836 109.057 256.051 109.382C256.245 109.667 256.4 109.977 256.511 110.303C256.607 110.579 256.671 110.864 256.704 111.155C256.704 111.45 256.704 111.759 256.704 112.082C256.704 112.405 256.704 112.7 256.704 112.975C256.682 113.197 256.617 113.412 256.511 113.607C256.464 113.7 256.399 113.782 256.32 113.849C256.241 113.917 256.15 113.967 256.051 113.999C255.809 114.07 255.551 114.07 255.309 113.999C254.937 113.913 254.582 113.767 254.258 113.566C253.878 113.352 253.527 113.092 253.213 112.79C252.932 112.523 252.681 112.226 252.465 111.903C252.274 111.616 252.12 111.307 252.004 110.983C251.908 110.707 251.846 110.421 251.819 110.131C251.819 109.829 251.819 109.519 251.819 109.196C251.819 108.874 251.819 108.578 251.819 108.31C251.834 108.086 251.898 107.869 252.004 107.671C252.105 107.489 252.269 107.35 252.465 107.28C252.71 107.219 252.967 107.219 253.213 107.28C253.585 107.364 253.938 107.512 254.258 107.719V107.699ZM255.13 111.903C255.136 111.803 255.136 111.702 255.13 111.601V110.735C255.13 110.598 255.13 110.488 255.13 110.419C255.102 110.179 255.029 109.947 254.917 109.732C254.747 109.473 254.509 109.264 254.23 109.128C253.914 108.942 253.694 108.894 253.578 108.977C253.513 109.029 253.46 109.095 253.423 109.169C253.386 109.244 253.366 109.326 253.365 109.409C253.358 109.51 253.358 109.611 253.365 109.712C253.365 109.849 253.365 109.993 253.365 110.145C253.365 110.296 253.365 110.447 253.365 110.598C253.358 110.706 253.358 110.813 253.365 110.921C253.386 111.163 253.458 111.397 253.578 111.608C253.734 111.867 253.96 112.077 254.23 112.213C254.546 112.398 254.766 112.446 254.917 112.364C254.982 112.31 255.034 112.242 255.071 112.167C255.107 112.091 255.128 112.008 255.13 111.924V111.903Z" fill="#FAFAFA"/>
<path d="M180.805 33.7173C180.78 33.2706 180.651 32.836 180.428 32.4483C180.205 32.0605 179.894 31.7304 179.521 31.4844L160.915 20.7527C160.228 20.3404 159.63 20.6702 159.63 21.4947V39.4748C159.654 39.9226 159.783 40.3586 160.006 40.7476C160.229 41.1366 160.541 41.4678 160.915 41.7145L168.706 46.2078L171.166 56.1426C171.193 56.2965 171.271 56.4366 171.389 56.5398C171.506 56.6431 171.655 56.7033 171.811 56.7105C171.967 56.7177 172.121 56.6715 172.247 56.5795C172.374 56.4875 172.465 56.3552 172.506 56.2044L174.759 49.698L179.521 52.4462C180.208 52.8585 180.805 52.5287 180.805 51.7042V33.7173Z" fill="#FFDA77"/>
<path opacity="0.5" d="M180.805 33.7173C180.78 33.2706 180.651 32.836 180.428 32.4483C180.205 32.0605 179.894 31.7304 179.521 31.4844L160.915 20.7527C160.228 20.3404 159.63 20.6702 159.63 21.4947V39.4748C159.654 39.9226 159.783 40.3586 160.006 40.7476C160.229 41.1366 160.541 41.4678 160.915 41.7145L168.706 46.2078L171.166 56.1426C171.193 56.2965 171.271 56.4366 171.389 56.5398C171.506 56.6431 171.655 56.7033 171.811 56.7105C171.967 56.7177 172.121 56.6715 172.247 56.5795C172.374 56.4875 172.465 56.3552 172.506 56.2044L174.759 49.698L179.521 52.4462C180.208 52.8585 180.805 52.5287 180.805 51.7042V33.7173Z" fill="white"/>
<path d="M166.68 28.9629C167.059 29.1789 167.41 29.4421 167.724 29.7462C168.003 30.0206 168.254 30.3221 168.473 30.6462C168.664 30.9326 168.819 31.2419 168.933 31.5668C169.03 31.8421 169.092 32.1282 169.119 32.4188C169.119 32.7142 169.153 33.0234 169.153 33.3463C169.153 33.6692 169.153 33.9646 169.119 34.2394C169.103 34.4632 169.04 34.681 168.933 34.8784C168.833 35.0599 168.669 35.1973 168.473 35.2632C168.231 35.3421 167.972 35.3539 167.724 35.2975C167.353 35.2119 167 35.0632 166.68 34.8578C166.296 34.6464 165.943 34.3854 165.628 34.0814C165.347 33.8164 165.098 33.5189 164.886 33.1951C164.692 32.9103 164.538 32.6006 164.426 32.2745C164.33 31.9985 164.266 31.7128 164.234 31.4226C164.234 31.1203 164.234 30.8111 164.234 30.495C164.234 30.179 164.234 29.8698 164.234 29.6019C164.255 29.3783 164.32 29.1611 164.426 28.9629C164.525 28.7797 164.69 28.64 164.886 28.5713C165.13 28.5105 165.385 28.5105 165.628 28.5713C165.999 28.6402 166.354 28.7727 166.68 28.9629ZM173.248 33.147C173.32 33.0985 173.402 33.0679 173.488 33.0577C173.614 33.066 173.735 33.1088 173.839 33.1814L174.821 33.7448C174.932 33.8108 175.03 33.897 175.11 33.999C175.173 34.0873 175.209 34.1925 175.213 34.3013C175.215 34.3264 175.215 34.3517 175.213 34.3769C175.199 34.4013 175.183 34.4243 175.165 34.4456L167.071 40.4229C166.999 40.4714 166.917 40.5021 166.831 40.5122C166.705 40.504 166.584 40.4612 166.48 40.3885L165.498 39.8252C165.384 39.7629 165.285 39.6761 165.209 39.571C165.146 39.4826 165.11 39.3774 165.106 39.2687C165.1 39.2462 165.1 39.2224 165.106 39.1999C165.116 39.1711 165.132 39.1451 165.154 39.1244L173.248 33.147ZM167.545 33.147C167.555 33.0465 167.555 32.9453 167.545 32.8447V31.9585C167.555 31.8533 167.555 31.7475 167.545 31.6424C167.525 31.4006 167.452 31.1662 167.332 30.9554C167.176 30.6944 166.95 30.4825 166.68 30.3439C166.363 30.1652 166.144 30.1103 165.992 30.1996C165.929 30.253 165.877 30.3191 165.84 30.3936C165.804 30.4681 165.783 30.5495 165.78 30.6324C165.78 30.6874 165.78 30.7905 165.78 30.9279C165.78 31.0653 165.78 31.2096 165.78 31.3676C165.78 31.5256 165.78 31.6699 165.78 31.8142C165.78 31.9584 165.78 32.0684 165.78 32.1371C165.806 32.3775 165.879 32.6107 165.992 32.8241C166.161 33.0855 166.399 33.2948 166.68 33.4287C166.996 33.6142 167.215 33.6623 167.332 33.5799C167.396 33.5309 167.448 33.4686 167.484 33.3973C167.521 33.3261 167.542 33.2477 167.545 33.1677V33.147ZM173.77 38.7877C174.153 39.0037 174.507 39.2694 174.821 39.5778C175.101 39.8467 175.35 40.1463 175.563 40.471C175.756 40.7566 175.911 41.0661 176.023 41.3916C176.118 41.6678 176.183 41.9535 176.216 42.2436C176.216 42.5459 176.216 42.8551 176.216 43.178C176.216 43.5009 176.216 43.7963 176.216 44.0643C176.195 44.2879 176.129 44.5051 176.023 44.7032C175.924 44.8865 175.76 45.0261 175.563 45.0948C175.32 45.1629 175.064 45.1629 174.821 45.0948C174.449 45.0092 174.094 44.863 173.77 44.662C173.393 44.4442 173.043 44.1837 172.726 43.8856C172.445 43.615 172.194 43.3156 171.977 42.9925C171.788 42.7045 171.634 42.3955 171.516 42.0718C171.42 41.7966 171.357 41.5104 171.331 41.2199C171.331 40.9244 171.297 40.6153 171.297 40.2924C171.297 39.9694 171.296 39.674 171.331 39.3992C171.347 39.1756 171.411 38.958 171.516 38.7602C171.62 38.5816 171.783 38.4453 171.977 38.3755C172.219 38.2975 172.477 38.2833 172.726 38.3343C173.098 38.4309 173.452 38.5913 173.77 38.8083V38.7877ZM174.642 42.9925C174.648 42.8918 174.648 42.7908 174.642 42.6902V41.8245C174.642 41.6871 174.642 41.5771 174.642 41.5084C174.619 41.2673 174.546 41.0336 174.429 40.8214C174.261 40.558 174.024 40.3463 173.742 40.2099C173.426 40.0313 173.206 39.9763 173.09 40.0656C173.024 40.1168 172.97 40.1824 172.933 40.2574C172.896 40.3324 172.877 40.4149 172.877 40.4985C172.869 40.5968 172.869 40.6956 172.877 40.7939C172.877 40.9313 172.877 41.0756 172.877 41.2336C172.877 41.3916 172.877 41.5359 172.877 41.6802C172.87 41.7877 172.87 41.8956 172.877 42.0031C172.897 42.2449 172.97 42.4793 173.09 42.6902C173.246 42.9511 173.472 43.163 173.742 43.3016C174.058 43.4803 174.287 43.5284 174.429 43.4459C174.494 43.3937 174.547 43.3279 174.584 43.2531C174.621 43.1783 174.641 43.0964 174.642 43.0131V42.9925Z" fill="#FAFAFA"/>
<path d="M53.0692 102.099C53.0936 101.652 53.2226 101.218 53.4457 100.83C53.6689 100.442 53.98 100.112 54.354 99.8664L72.9592 89.1278C73.6463 88.7156 74.244 89.0522 74.244 89.8767V107.857C74.2207 108.304 74.0922 108.739 73.8689 109.127C73.6457 109.515 73.334 109.845 72.9592 110.09L65.1681 114.583L62.7085 124.525C62.7167 124.707 62.6521 124.885 62.5291 125.019C62.4061 125.154 62.2346 125.234 62.0523 125.243C61.8701 125.251 61.6921 125.186 61.5575 125.063C61.4228 124.94 61.3426 124.769 61.3344 124.586L59.0877 118.08L54.3265 120.828C53.6394 121.24 53.0417 120.904 53.0417 120.086L53.0692 102.099Z" fill="#FFDA77"/>
<g opacity="0.5">
<path opacity="0.5" d="M53.0692 102.099C53.0936 101.652 53.2226 101.218 53.4457 100.83C53.6689 100.442 53.98 100.112 54.354 99.8664L72.9592 89.1278C73.6463 88.7156 74.244 89.0522 74.244 89.8767V107.857C74.2207 108.304 74.0922 108.739 73.8689 109.127C73.6457 109.515 73.334 109.845 72.9592 110.09L65.1681 114.583L62.7085 124.525C62.7167 124.707 62.6521 124.885 62.5291 125.019C62.4061 125.154 62.2346 125.234 62.0523 125.243C61.8701 125.251 61.6921 125.186 61.5575 125.063C61.4228 124.94 61.3426 124.769 61.3344 124.586L59.0877 118.08L54.3265 120.828C53.6394 121.24 53.0417 120.904 53.0417 120.086L53.0692 102.099Z" fill="white"/>
</g>
<path d="M59.5686 100.76C59.9405 100.528 60.3496 100.363 60.7779 100.272C61.0654 100.214 61.3628 100.228 61.6435 100.313C61.8694 100.394 62.0575 100.556 62.1726 100.766C62.2954 100.993 62.3681 101.244 62.3856 101.502C62.413 101.818 62.4268 102.161 62.4268 102.532C62.4268 102.903 62.413 103.26 62.3856 103.604C62.3555 103.941 62.2839 104.273 62.1726 104.593C62.0409 104.967 61.8632 105.322 61.6435 105.651C61.3949 106.027 61.1045 106.372 60.7779 106.682C60.4127 107.03 60.0067 107.332 59.5686 107.582C59.1923 107.812 58.7818 107.981 58.3526 108.083C58.0682 108.147 57.7722 108.135 57.4938 108.049C57.2679 107.968 57.0798 107.806 56.9647 107.596C56.8397 107.369 56.7647 107.119 56.7449 106.861C56.7449 106.544 56.7449 106.173 56.7449 105.83C56.7449 105.486 56.7449 105.102 56.7449 104.758C56.7777 104.421 56.8516 104.088 56.9647 103.769C57.0935 103.394 57.2714 103.039 57.4938 102.711C57.7436 102.336 58.0314 101.989 58.3526 101.673C58.7192 101.32 59.1276 101.014 59.5686 100.76ZM67.1262 96.8365C67.2042 96.6862 67.2962 96.5435 67.401 96.4105C67.5166 96.2786 67.6537 96.1671 67.8064 96.0807L68.9469 95.3937C69.0416 95.3238 69.1602 95.2942 69.2767 95.3112C69.3591 95.3112 69.4003 95.4006 69.4003 95.5105C69.4051 95.547 69.4051 95.5839 69.4003 95.6204L69.3454 95.7647L59.9877 113.477C59.9098 113.625 59.8178 113.765 59.7129 113.896C59.5988 114.029 59.4615 114.141 59.3076 114.226L58.1739 114.913C58.0764 114.982 57.9559 115.012 57.8373 114.995C57.7548 114.995 57.7136 114.906 57.7136 114.796C57.7088 114.759 57.7088 114.723 57.7136 114.686L57.7686 114.542L67.1262 96.8365ZM60.5717 104.483C60.5811 104.36 60.5811 104.236 60.5717 104.112V103.089C60.5817 102.972 60.5817 102.855 60.5717 102.738C60.568 102.642 60.544 102.548 60.5014 102.461C60.4588 102.375 60.3985 102.298 60.3244 102.237C60.187 102.141 59.9328 102.237 59.5686 102.408C59.2876 102.55 59.0477 102.762 58.8721 103.023C58.6964 103.284 58.5908 103.586 58.5656 103.899C58.5555 104.025 58.5555 104.151 58.5656 104.277C58.5656 104.442 58.5656 104.614 58.5656 104.793C58.5656 104.971 58.5656 105.136 58.5656 105.301C58.5548 105.415 58.5548 105.53 58.5656 105.644C58.5655 105.741 58.5879 105.837 58.6307 105.924C58.6736 106.011 58.736 106.087 58.8129 106.146C58.9503 106.242 59.1976 106.18 59.5686 105.974C59.8787 105.819 60.1401 105.581 60.3244 105.287C60.4612 105.039 60.5454 104.765 60.5717 104.483ZM67.7651 102.697C68.1401 102.466 68.5511 102.298 68.9812 102.202C69.2664 102.144 69.5617 102.158 69.84 102.244C70.0659 102.325 70.254 102.486 70.3691 102.697C70.4941 102.923 70.5691 103.174 70.5889 103.432C70.5889 103.748 70.6233 104.119 70.6233 104.463C70.6233 104.806 70.6233 105.191 70.5889 105.535C70.5566 105.872 70.4828 106.204 70.3691 106.524C70.239 106.9 70.0612 107.258 69.84 107.589C69.3138 108.383 68.6076 109.042 67.7789 109.513C67.4058 109.744 66.9973 109.914 66.5697 110.014C66.2833 110.081 65.9842 110.069 65.704 109.98C65.4768 109.901 65.2879 109.739 65.175 109.526C65.0513 109.3 64.9786 109.049 64.962 108.791C64.962 108.482 64.9208 108.104 64.9208 107.767C64.9208 107.431 64.9208 107.032 64.962 106.689C64.9917 106.354 65.0632 106.024 65.175 105.706C65.3066 105.331 65.4843 104.973 65.704 104.641C65.9542 104.265 66.2444 103.917 66.5697 103.604C66.9254 103.243 67.3274 102.931 67.7651 102.676V102.697ZM68.7682 106.393C68.7776 106.27 68.7776 106.146 68.7682 106.022V105.005C68.7782 104.889 68.7782 104.772 68.7682 104.655C68.7688 104.558 68.7467 104.462 68.7038 104.375C68.6608 104.288 68.5982 104.212 68.5209 104.154C68.3835 104.057 68.1361 104.112 67.7651 104.325C67.4563 104.483 67.1953 104.72 67.0094 105.012C66.8767 105.257 66.7927 105.526 66.762 105.802C66.7554 105.926 66.7554 106.05 66.762 106.173C66.762 106.345 66.762 106.517 66.762 106.689C66.762 106.861 66.762 107.039 66.762 107.197C66.7549 107.312 66.7549 107.426 66.762 107.541C66.7658 107.637 66.7898 107.731 66.8324 107.818C66.875 107.904 66.9353 107.981 67.0094 108.042C67.1468 108.138 67.401 108.083 67.7651 107.87C68.0754 107.715 68.3368 107.477 68.5209 107.183C68.6626 106.935 68.7471 106.658 68.7682 106.373V106.393Z" fill="#FAFAFA"/>
</svg>
