<svg width="311" height="220" viewBox="0 0 311 220" fill="none" xmlns="http://www.w3.org/2000/svg">
<path d="M59.6862 198.884C112.601 227.039 198.399 227.039 251.314 198.884C304.229 170.729 304.229 125.08 251.314 96.9185C198.399 68.7575 112.625 68.7636 59.6862 96.9185C6.74707 125.073 6.79547 170.729 59.6862 198.884Z" fill="#F5F5F5"/>
<path d="M44.9359 152.711L27.7352 142.599V105.022L44.9359 115.14V152.711Z" fill="#AEE6E6"/>
<path d="M44.9359 115.14L69.5117 100.69V138.26L44.9359 152.711V115.14Z" fill="#EBEBEB"/>
<path d="M69.5117 100.69L44.9359 115.14L27.7352 105.022L52.311 90.5715L69.5117 100.69Z" fill="#F5F5F5"/>
<path d="M47.3983 116.582L67.0553 105.022L67.5091 105.287V119.207L47.846 130.767L47.3922 130.502L47.3983 116.582Z" fill="#AEE6E6"/>
<path d="M47.846 116.853L67.5091 105.287V119.207L47.846 130.767V116.853Z" fill="#F5F5F5"/>
<path d="M55.5539 114.678L58.8997 112.712C59.3293 112.453 59.6802 112.57 59.6802 112.971C59.649 113.216 59.5623 113.451 59.4268 113.656C59.2914 113.862 59.1109 114.032 58.8997 114.154L55.5539 116.12C55.1183 116.379 54.7674 116.262 54.7674 115.861C54.7988 115.615 54.8863 115.38 55.0228 115.174C55.1594 114.969 55.3413 114.799 55.5539 114.678Z" fill="#AEE6E6"/>
<path d="M46.9445 134.193L66.6016 122.633V136.554L67.0553 136.819L47.3922 148.379L46.9445 148.114V134.193Z" fill="#AEE6E6"/>
<path d="M47.3922 134.458L67.0553 122.898V136.819L47.3922 148.379V134.458Z" fill="#F5F5F5"/>
<path d="M55.1002 132.289L58.4762 130.33C58.9118 130.071 59.2627 130.188 59.2627 130.589C59.2313 130.835 59.1439 131.07 59.0073 131.275C58.8707 131.481 58.6888 131.651 58.4762 131.772L55.1304 133.737C54.6948 133.996 54.3439 133.879 54.3439 133.479C54.3711 133.234 54.4535 133 54.5848 132.793C54.716 132.587 54.8924 132.415 55.1002 132.289Z" fill="#AEE6E6"/>
<path d="M44.9359 112.971L27.7352 102.853V65.282L44.9359 75.3941V112.971Z" fill="#AEE6E6"/>
<path d="M44.9359 75.3941L69.5117 60.9438V98.5207L44.9359 112.971V75.3941Z" fill="#EBEBEB"/>
<path d="M69.5117 60.9439L44.9359 75.3941L27.7352 65.282L52.311 50.8318L69.5117 60.9439Z" fill="#F5F5F5"/>
<path d="M47.3922 76.8422L67.0553 65.282L67.5091 65.547V79.4673L47.846 91.0275L47.3922 90.7563V76.8422Z" fill="#AEE6E6"/>
<path d="M55.5539 74.9319L58.8937 72.9662C59.3293 72.7135 59.6802 72.8306 59.6802 73.2312C59.6479 73.4769 59.5601 73.7117 59.4236 73.917C59.2871 74.1223 59.1057 74.2925 58.8937 74.4143L55.5539 76.38C55.1183 76.6327 54.7674 76.5218 54.7674 76.1212C54.7993 75.8745 54.8869 75.6387 55.0234 75.4323C55.1598 75.226 55.3415 75.0547 55.5539 74.9319Z" fill="#AEE6E6"/>
<path d="M46.9445 94.4536L66.6016 82.8934V96.8076L67.0553 97.0726L47.3922 108.633L46.9445 108.368V94.4536Z" fill="#AEE6E6"/>
<path d="M47.3922 94.7186L67.0553 83.1584V97.0726L47.3922 108.633V94.7186Z" fill="#F5F5F5"/>
<path d="M55.1002 92.5434L58.4762 90.5776C58.9058 90.325 59.2627 90.4421 59.2627 90.8426C59.2287 91.0878 59.1401 91.3218 59.0038 91.5268C58.8675 91.7319 58.687 91.9025 58.4762 92.0257L55.1002 93.973C54.6646 94.2256 54.3137 94.1086 54.3137 93.7142C54.3481 93.4708 54.437 93.2386 54.5733 93.0357C54.7097 92.8327 54.8899 92.6643 55.1002 92.5434Z" fill="#AEE6E6"/>
<path d="M47.3922 76.8422L67.0553 65.282V79.1961L47.3922 90.7563V76.8422Z" fill="#AEE6E6"/>
<path d="M76.8869 72.159L66.1236 65.8304V78.0931L76.8869 84.4155V72.159Z" fill="#AEE6E6"/>
<path d="M54.7674 92.7406V75.3941L58.9844 72.9046L59.6802 73.9521L71.9681 66.7239V82.6223L54.7674 92.7406Z" fill="#EBEBEB"/>
<path d="M54.7674 92.7406L55.9956 77.5632L73.1963 67.4511L71.9681 82.6223L54.7674 92.7406Z" fill="#F5F5F5"/>
<path d="M57.2238 83.7192L47.846 78.204V90.4667L57.2238 95.9757V83.7192Z" fill="#EBEBEB"/>
<path d="M57.2238 82.6223L76.8869 71.0621V84.9763L57.2238 96.5365V82.6223Z" fill="#F5F5F5"/>
<path d="M64.9317 80.4471L68.2714 78.4814C68.707 78.2287 69.058 78.3458 69.058 78.7463C69.0252 78.9919 68.9372 79.2265 68.8008 79.4317C68.6643 79.637 68.4832 79.8073 68.2714 79.9295L64.9317 81.8952C64.4961 82.1478 64.1452 82.0308 64.1452 81.6364C64.177 81.3897 64.2646 81.1539 64.4011 80.9475C64.5376 80.7411 64.7192 80.5698 64.9317 80.4471Z" fill="#AEE6E6"/>
<path d="M57.2238 82.6223L56.5703 82.2403V96.1544L57.2238 96.5365V82.6223Z" fill="#AEE6E6"/>
<path d="M56.5703 82.2403L76.2274 70.6739L76.8869 71.0621L57.2238 82.6223L56.5703 82.2403Z" fill="#EBEBEB"/>
<path d="M248.15 129.948L230.943 119.829V82.2587L248.15 92.3708V129.948Z" fill="#AEE6E6"/>
<path d="M248.15 92.3709L272.725 77.9206V115.497L248.15 129.948V92.3709Z" fill="#EBEBEB"/>
<path d="M272.725 77.9206L248.15 92.3708L230.943 82.2587L255.525 67.8023L272.725 77.9206Z" fill="#F5F5F5"/>
<path d="M250.606 93.8189L270.269 82.2587L270.723 82.5237L270.717 96.4379L251.06 107.998L250.606 107.733V93.8189Z" fill="#AEE6E6"/>
<path d="M251.06 94.0839L270.723 82.5237L270.717 96.4379L251.06 107.998V94.0839Z" fill="#F5F5F5"/>
<path d="M258.768 91.9087L262.107 89.943C262.543 89.6903 262.894 89.8074 262.894 90.2018C262.862 90.4485 262.774 90.6843 262.638 90.8907C262.501 91.097 262.32 91.2683 262.107 91.3911L258.768 93.3568C258.332 93.6095 257.981 93.4924 257.981 93.098C258.013 92.8513 258.101 92.6155 258.237 92.4092C258.374 92.2028 258.555 92.0315 258.768 91.9087Z" fill="#AEE6E6"/>
<path d="M250.152 111.43L269.815 99.864V113.784L270.269 114.049L250.606 125.61L250.152 125.345V111.43Z" fill="#AEE6E6"/>
<path d="M250.606 111.695L270.269 100.135V114.049L250.606 125.61V111.695Z" fill="#F5F5F5"/>
<path d="M258.314 109.52L261.66 107.554C262.089 107.302 262.44 107.419 262.44 107.813C262.408 108.059 262.321 108.294 262.186 108.5C262.05 108.707 261.87 108.878 261.66 109.003L258.314 110.968C257.878 111.221 257.527 111.104 257.527 110.703C257.56 110.458 257.648 110.223 257.785 110.018C257.921 109.813 258.102 109.642 258.314 109.52Z" fill="#AEE6E6"/>
<path d="M84.492 169.219C84.492 169.219 84.5585 159.446 78.5083 152.119C73.1539 145.63 70.3043 141.514 71.9923 139.616C73.6803 137.718 77.3104 137.262 82.205 142.512C87.0996 147.763 87.4808 162.305 86.8031 165.596L84.492 169.219Z" fill="#FFDA77"/>
<path opacity="0.2" d="M84.492 169.219C84.492 169.219 84.5585 159.446 78.5083 152.119C73.1539 145.63 70.3043 141.514 71.9923 139.616C73.6803 137.718 77.3104 137.262 82.205 142.512C87.0996 147.763 87.4808 162.305 86.8031 165.596L84.492 169.219Z" fill="black"/>
<path d="M85.5084 158.713C85.4395 158.713 85.3726 158.689 85.3187 158.646C85.2648 158.602 85.2271 158.541 85.212 158.472C83.0944 148.385 77.6613 142.808 74.606 140.38C74.5427 140.33 74.5015 140.257 74.4913 140.176C74.4811 140.095 74.5027 140.014 74.5515 139.949C74.6016 139.884 74.6748 139.842 74.7551 139.832C74.8355 139.821 74.9167 139.843 74.9811 139.893C78.0969 142.358 83.645 148.064 85.8049 158.343C85.8137 158.382 85.8148 158.423 85.808 158.463C85.8012 158.502 85.7866 158.54 85.7652 158.574C85.7438 158.608 85.7159 158.637 85.6832 158.66C85.6506 158.683 85.6137 158.698 85.575 158.707L85.5084 158.713Z" fill="white"/>
<path d="M84.2621 172.849L81.7996 174.297C81.537 173.566 81.094 172.916 80.5133 172.41C79.9327 171.904 79.2338 171.558 78.4841 171.407C75.7918 170.791 72.9966 170.895 71.109 168.517C69.2213 166.138 71.5204 163.55 71.109 161.8C70.6976 160.05 70.4313 159.545 67.0553 157.795C63.6793 156.044 62.3483 153.142 64.8894 151.176C67.4305 149.211 71.5446 150.653 74.0373 152.409C76.2516 153.949 78.3571 154.356 80.8316 154.67C83.3061 154.985 87.3356 156.383 86.7184 162.237C86.3143 165.861 85.4898 169.423 84.2621 172.849Z" fill="#FFDA77"/>
<path d="M74.8117 165.158C74.7472 165.158 74.6845 165.137 74.6324 165.098C74.5804 165.059 74.5415 165.005 74.5213 164.943C74.4983 164.864 74.5064 164.78 74.5437 164.707C74.581 164.635 74.6446 164.58 74.7209 164.554C74.9387 164.487 80.1661 162.798 82.3865 164.61C82.4416 164.663 82.4752 164.735 82.4806 164.812C82.486 164.889 82.4628 164.965 82.4157 165.026C82.3685 165.086 82.3008 165.126 82.2259 165.138C82.1511 165.15 82.0745 165.133 82.0114 165.091C80.0511 163.488 74.9569 165.127 74.9024 165.146L74.8117 165.158Z" fill="white"/>
<path d="M84.5343 172.38C84.4607 172.381 84.3895 172.353 84.3347 172.303C84.2799 172.253 84.2454 172.184 84.2379 172.109C82.8887 159.132 67.5393 152.976 67.3881 152.914C67.3506 152.9 67.3162 152.878 67.2871 152.85C67.2579 152.822 67.2345 152.788 67.2181 152.751C67.2018 152.714 67.1929 152.674 67.192 152.633C67.191 152.592 67.1981 152.552 67.2126 152.514C67.2424 152.439 67.2991 152.379 67.3712 152.345C67.4433 152.312 67.5251 152.308 67.5998 152.335C67.7632 152.403 83.4513 158.688 84.8368 172.054C84.8453 172.135 84.8221 172.216 84.7723 172.279C84.7224 172.343 84.6499 172.383 84.5706 172.393L84.5343 172.38Z" fill="white"/>
<path d="M235.021 164.326C235.087 164.111 237.683 150.505 235.021 140.855C232.601 132.006 229.442 128.74 224.941 128.019C220.44 127.298 218.485 130.601 220.875 135.075C223.265 139.548 229.019 145.483 230.429 155.478C231.034 159.594 231.493 163.168 231.493 163.168L235.021 164.326Z" fill="#FFDA77"/>
<path opacity="0.2" d="M235.021 164.326C235.087 164.111 237.683 150.505 235.021 140.855C232.601 132.006 229.442 128.74 224.941 128.019C220.44 127.298 218.485 130.601 220.875 135.075C223.265 139.548 229.019 145.483 230.429 155.478C231.034 159.594 231.493 163.168 231.493 163.168L235.021 164.326Z" fill="black"/>
<path d="M233.502 156.513C233.462 156.51 233.423 156.5 233.388 156.482C233.352 156.465 233.32 156.44 233.293 156.41C233.267 156.379 233.247 156.344 233.234 156.306C233.221 156.267 233.215 156.227 233.218 156.186C233.823 145.168 230.289 135.333 223.955 130.508C223.891 130.459 223.848 130.386 223.837 130.306C223.826 130.225 223.846 130.142 223.894 130.077C223.943 130.013 224.015 129.971 224.094 129.959C224.173 129.948 224.253 129.968 224.318 130.015C230.81 134.945 234.452 145.002 233.817 156.223C233.812 156.304 233.776 156.379 233.717 156.433C233.659 156.488 233.581 156.516 233.502 156.513Z" fill="white"/>
<path d="M241.984 171.413C241.64 168.88 243.067 165.084 246.462 164.185C249.856 163.285 251.368 161.301 250.146 159.132C248.924 156.963 249.208 154.972 252.288 154.073C255.367 153.173 258.066 151.608 256.293 148.292C255.004 145.895 254.72 144.343 257.878 139.622C260.498 135.703 258.356 133.405 255.077 133.836C251.798 134.267 249.771 138.248 247.72 138.914C245.669 139.579 245.197 136.03 242.493 137.62C239.788 139.209 239.952 143.283 239.867 146.123C239.782 148.964 239.601 149.605 237.156 149.26C234.712 148.915 232.316 149.322 232.371 155.342C232.413 160.506 235.117 166.902 235.117 166.902L241.984 171.413Z" fill="#FFDA77"/>
<path d="M237.695 167.562H237.665C237.584 167.552 237.51 167.511 237.459 167.446C237.408 167.381 237.384 167.299 237.392 167.216C239.098 151.694 252.179 138.599 255.591 135.943C255.655 135.894 255.736 135.872 255.816 135.883C255.896 135.894 255.969 135.937 256.018 136.002C256.067 136.067 256.088 136.15 256.077 136.231C256.067 136.313 256.025 136.387 255.96 136.436C252.59 139.055 239.679 151.977 237.997 167.284C237.989 167.36 237.953 167.43 237.897 167.481C237.842 167.532 237.77 167.561 237.695 167.562Z" fill="white"/>
<path d="M243.66 150.967C243.599 150.966 243.539 150.947 243.489 150.912C243.438 150.877 243.399 150.828 243.376 150.77C243.35 150.692 243.354 150.607 243.388 150.533C243.422 150.458 243.483 150.399 243.557 150.369C248.434 148.52 253.964 149.395 254.2 149.432C254.278 149.446 254.348 149.491 254.394 149.556C254.441 149.622 254.46 149.704 254.448 149.784C254.433 149.863 254.389 149.934 254.325 149.982C254.261 150.03 254.182 150.052 254.103 150.043C254.048 150.043 248.494 149.155 243.769 150.948C243.734 150.96 243.697 150.967 243.66 150.967Z" fill="white"/>
<path d="M239.316 160.296C239.274 160.296 239.232 160.286 239.193 160.268C239.155 160.25 239.12 160.224 239.092 160.192C237.064 157.786 235.69 154.882 235.105 151.768C235.099 151.728 235.101 151.687 235.111 151.648C235.12 151.608 235.137 151.571 235.161 151.539C235.184 151.506 235.214 151.478 235.248 151.457C235.282 151.437 235.32 151.423 235.359 151.417C235.399 151.411 235.439 151.412 235.478 151.422C235.516 151.432 235.553 151.449 235.585 151.473C235.617 151.497 235.644 151.527 235.664 151.562C235.685 151.597 235.698 151.635 235.704 151.676C236.283 154.667 237.606 157.457 239.546 159.779C239.584 159.824 239.608 159.879 239.617 159.938C239.625 159.997 239.616 160.057 239.592 160.112C239.568 160.166 239.529 160.212 239.48 160.245C239.432 160.277 239.375 160.295 239.316 160.296Z" fill="white"/>
<path d="M84.2621 77.4769V172.855L180.109 116.496L180.103 29.788L108.838 71.6968L106.375 64.4686L84.2621 77.4769Z" fill="#FFDA77"/>
<path opacity="0.7" d="M84.2621 77.4769V172.855L180.109 116.496L180.103 29.788L108.838 71.6968L106.375 64.4686L84.2621 77.4769Z" fill="black"/>
<path d="M84.2621 172.855L89.1748 86.1471L185.022 29.788L180.109 116.496L84.2621 172.855Z" fill="#AEE6E6"/>
<path d="M84.2621 172.855L91.6312 87.5952L187.478 31.2299L180.109 116.496L84.2621 172.855Z" fill="#FFDA77"/>
<path opacity="0.7" d="M84.2621 172.855L91.6312 87.5952L187.478 31.2299L180.109 116.496L84.2621 172.855Z" fill="black"/>
<path d="M99.0064 86.1471V181.531L194.853 125.166V38.4581L123.582 80.367L121.126 73.1388L99.0064 86.1471Z" fill="#FFDA77"/>
<path opacity="0.5" d="M99.0064 86.1471V181.531L194.853 125.166V38.4581L123.582 80.367L121.126 73.1388L99.0064 86.1471Z" fill="black"/>
<path d="M99.0064 181.531L103.919 94.8172L199.766 38.4581L194.853 125.166L99.0064 181.531Z" fill="#AEE6E6"/>
<path d="M99.0064 181.531L106.376 96.2654L202.223 39.9001L194.853 125.166L99.0064 181.531Z" fill="#FFDA77"/>
<path opacity="0.5" d="M99.0064 181.531L106.376 96.2654L202.223 39.9001L194.853 125.166L99.0064 181.531Z" fill="black"/>
<path d="M180.085 211.88C162.878 201.762 146.918 190.762 139.633 177.859L161.777 164.838L180.085 211.88Z" fill="#AEE6E6"/>
<path d="M116.207 96.2653V191.643L212.054 135.284V48.5764L140.783 90.4852L138.327 83.257L116.207 96.2653Z" fill="#FFDA77"/>
<path opacity="0.2" d="M116.207 96.2653V191.643L212.054 135.284V48.5764L140.783 90.4852L138.327 83.257L116.207 96.2653Z" fill="black"/>
<path d="M143.82 124.463C143.578 124.463 143.542 124.18 143.542 124.014V42.6731C143.561 42.3575 143.652 42.0509 143.808 41.7772C143.963 41.5034 144.178 41.2701 144.437 41.0955L213.615 0.425287C213.71 0.365105 213.818 0.331118 213.93 0.326691C214.172 0.326691 214.208 0.610152 214.208 0.77653V82.117C214.189 82.4335 214.098 82.7412 213.943 83.016C213.788 83.2908 213.572 83.5252 213.313 83.7007L144.135 124.371C144.039 124.428 143.931 124.46 143.82 124.463Z" fill="white"/>
<path d="M213.893 0.610151C213.898 0.655203 213.898 0.700668 213.893 0.745719V82.0862C213.873 82.3486 213.796 82.6031 213.668 82.8312C213.539 83.0594 213.362 83.2554 213.149 83.4049L143.971 124.075L143.85 124.131C143.842 124.086 143.842 124.04 143.85 123.995V42.6546C143.871 42.3933 143.949 42.14 144.077 41.913C144.206 41.686 144.383 41.491 144.595 41.342L213.772 0.671772C213.811 0.644589 213.854 0.625712 213.899 0.616314L213.893 0.610151ZM213.936 9.84432e-05C213.771 0.00509422 213.61 0.0539609 213.47 0.14183L144.292 40.8121C143.988 41.0155 143.735 41.2887 143.553 41.6098C143.371 41.9308 143.266 42.2907 143.245 42.6607V124.001C143.245 124.482 143.481 124.759 143.85 124.759C144.015 124.755 144.176 124.706 144.316 124.617L213.494 83.9472C213.799 83.7452 214.054 83.4723 214.236 83.151C214.417 82.8297 214.522 82.469 214.541 82.0985V0.758046C214.541 0.277398 214.305 -0.00606372 213.936 9.84432e-05Z" fill="#FFDA77"/>
<path opacity="0.7" d="M213.893 0.610151C213.898 0.655203 213.898 0.700668 213.893 0.745719V82.0862C213.873 82.3486 213.796 82.6031 213.668 82.8312C213.539 83.0594 213.362 83.2554 213.149 83.4049L143.971 124.075L143.85 124.131C143.842 124.086 143.842 124.04 143.85 123.995V42.6546C143.871 42.3933 143.949 42.14 144.077 41.913C144.206 41.686 144.383 41.491 144.595 41.342L213.772 0.671772C213.811 0.644589 213.854 0.625712 213.899 0.616314L213.893 0.610151ZM213.936 9.84432e-05C213.771 0.00509422 213.61 0.0539609 213.47 0.14183L144.292 40.8121C143.988 41.0155 143.735 41.2887 143.553 41.6098C143.371 41.9308 143.266 42.2907 143.245 42.6607V124.001C143.245 124.482 143.481 124.759 143.85 124.759C144.015 124.755 144.176 124.706 144.316 124.617L213.494 83.9472C213.799 83.7452 214.054 83.4723 214.236 83.151C214.417 82.8297 214.522 82.469 214.541 82.0985V0.758046C214.541 0.277398 214.305 -0.00606372 213.936 9.84432e-05Z" fill="white"/>
<path d="M150.614 45.7603L175.19 31.3101V60.2106L150.614 74.6609V45.7603Z" fill="#FFDA77"/>
<path opacity="0.8" d="M150.614 45.7603L175.19 31.3101V60.2106L150.614 74.6609V45.7603Z" fill="white"/>
<path d="M171.506 38.5136V47.2023L170.731 47.6398V44.9839C170.731 43.5173 169.564 43.0182 168.112 43.8685L157.699 49.9999C156.253 50.8503 155.08 52.7297 155.08 54.1963V56.8522L154.311 57.3205V48.6504L171.506 38.5136Z" fill="white"/>
<path d="M166.775 60.6358C165.516 61.3752 164.494 60.5988 164.494 58.8919V44.9839L161.329 46.7339V60.7529C161.329 62.4536 160.307 64.4501 159.048 65.1711L156.761 66.5145V67.4388L169.049 60.2106V59.2924L166.775 60.6358Z" fill="white"/>
<path d="M180.085 29.8866C180.085 30.6877 180.793 30.9157 181.658 30.4104L205.568 16.3298C205.993 16.0849 206.355 15.7433 206.628 15.3317C206.901 14.9201 207.077 14.4497 207.141 13.9574C207.141 13.1625 206.433 12.9283 205.568 13.4398L181.676 27.4895C181.245 27.7339 180.876 28.0783 180.6 28.4947C180.323 28.9111 180.147 29.3879 180.085 29.8866Z" fill="#FFA45B"/>
<path d="M180.085 38.5136C180.085 39.3147 180.793 39.5488 181.658 39.0374L205.55 24.9876C205.974 24.7427 206.337 24.4011 206.61 23.9895C206.883 23.5779 207.059 23.1075 207.123 22.6152C207.123 21.8203 206.415 21.5861 205.55 22.0976L181.658 36.1473C181.234 36.3916 180.872 36.7323 180.599 37.1428C180.326 37.5532 180.15 38.0224 180.085 38.5136Z" fill="#FFA45B"/>
<path d="M180.085 47.2022C180.085 48.0033 180.793 48.2375 181.658 47.726L205.55 33.6763C205.974 33.432 206.336 33.0913 206.609 32.6808C206.882 32.2704 207.058 31.8012 207.123 31.31C207.123 30.5089 206.415 30.2748 205.55 30.7862L181.658 44.836C181.234 45.0803 180.872 45.4209 180.599 45.8314C180.326 46.2419 180.15 46.711 180.085 47.2022Z" fill="#FFA45B"/>
<path d="M180.085 55.8724C180.085 56.6735 180.793 56.9076 181.658 56.3962L205.55 42.3465C205.974 42.1022 206.336 41.7615 206.609 41.351C206.882 40.9405 207.058 40.4714 207.123 39.9802C207.123 39.1791 206.415 38.9449 205.55 39.4564L181.658 53.5061C181.234 53.7504 180.872 54.0911 180.599 54.5016C180.326 54.912 180.15 55.3812 180.085 55.8724Z" fill="#FFA45B"/>
<path d="M150.614 81.889C150.614 82.6901 151.316 82.9243 152.188 82.4128L205.568 50.9858C205.992 50.7423 206.355 50.4018 206.628 49.9912C206.901 49.5806 207.077 49.111 207.141 48.6195C207.141 47.8185 206.434 47.5905 205.568 48.0958L152.188 79.5228C151.763 79.766 151.4 80.1063 151.127 80.517C150.854 80.9277 150.679 81.3974 150.614 81.889Z" fill="#FFA45B"/>
<path d="M150.614 90.5592C150.614 91.3603 151.316 91.5945 152.188 91.083L205.568 59.693C205.993 59.448 206.355 59.1064 206.628 58.6948C206.901 58.2832 207.077 57.8128 207.141 57.3205C207.141 56.5256 206.434 56.2914 205.568 56.8029L152.188 88.1929C151.763 88.4361 151.4 88.7765 151.127 89.1872C150.854 89.5979 150.679 90.0676 150.614 90.5592Z" fill="#FFA45B"/>
<path d="M150.614 99.2355C150.614 100.03 151.316 100.265 152.188 99.7531L205.568 68.3631C205.993 68.1182 206.355 67.7765 206.628 67.3649C206.901 66.9533 207.077 66.483 207.141 65.9907C207.141 65.1957 206.434 64.9616 205.568 65.473L152.188 96.8631C151.762 97.1069 151.399 97.4482 151.126 97.86C150.853 98.2718 150.678 98.7428 150.614 99.2355Z" fill="#FFA45B"/>
<path d="M116.207 191.643L133.408 115.054L229.255 58.6885L212.054 135.284L116.207 191.643Z" fill="#FFDA77"/>
<path d="M139.658 121.05V177.859L161.777 164.85V108.047L139.658 121.05Z" fill="#FFDA77"/>
<path opacity="0.2" d="M139.658 121.05V177.859L161.777 164.85V108.047L139.658 121.05Z" fill="black"/>
<path d="M180.127 211.51C178.246 210.08 160.107 195.963 150.887 175.77C141.073 154.301 141.085 129.258 141.085 119.836V119.54L206.839 80.8784C206.839 90.3867 206.839 115.467 216.695 137.01C225.703 156.728 243.146 170.667 245.911 172.799L180.127 211.51Z" fill="white"/>
<path d="M206.536 81.433C206.536 91.3418 206.724 115.941 216.422 137.164C225.129 156.205 241.682 169.897 245.366 172.787L180.145 211.14C177.598 209.187 160.144 195.304 151.165 175.665C141.364 154.257 141.364 129.264 141.364 119.854V119.737L206.512 81.4269L206.536 81.433ZM207.117 80.3608L140.759 119.386C140.759 128.253 140.577 154.017 150.59 175.924C160.446 197.423 180.085 211.88 180.085 211.88L246.462 172.849C246.462 172.849 226.798 158.392 216.973 136.892C206.954 114.986 207.141 89.222 207.141 80.3546L207.117 80.3608Z" fill="#FFDA77"/>
<path opacity="0.7" d="M206.536 81.433C206.536 91.3418 206.724 115.941 216.422 137.164C225.129 156.205 241.682 169.897 245.366 172.787L180.145 211.14C177.598 209.187 160.144 195.304 151.165 175.665C141.364 154.257 141.364 129.264 141.364 119.854V119.737L206.512 81.4269L206.536 81.433ZM207.117 80.3608L140.759 119.386C140.759 128.253 140.577 154.017 150.59 175.924C160.446 197.423 180.085 211.88 180.085 211.88L246.462 172.849C246.462 172.849 226.798 158.392 216.973 136.892C206.954 114.986 207.141 89.222 207.141 80.3546L207.117 80.3608Z" fill="white"/>
<path d="M199.633 93.4493L178.651 105.774C178.231 106.009 177.873 106.344 177.608 106.751C177.342 107.158 177.177 107.623 177.126 108.109C177.157 108.892 177.889 109.113 178.754 108.602L199.742 96.2777C200.157 96.0445 200.511 95.7136 200.775 95.3128C201.04 94.9119 201.206 94.4526 201.261 93.9731C201.224 93.1597 200.504 92.9378 199.633 93.4493Z" fill="#FFA45B"/>
<path d="M200.081 101.861L179.099 114.185C178.684 114.412 178.332 114.743 178.076 115.146C177.82 115.549 177.668 116.011 177.635 116.49C177.701 117.248 178.463 117.451 179.329 116.939L200.317 104.615C200.73 104.389 201.079 104.059 201.332 103.657C201.585 103.255 201.733 102.793 201.763 102.317C201.702 101.553 200.952 101.368 200.081 101.861Z" fill="#FFA45B"/>
<path d="M200.922 110.038L179.934 122.362C179.069 122.874 178.439 123.89 178.542 124.624C178.645 125.357 179.438 125.548 180.309 125.037L201.297 112.712C202.162 112.201 202.779 111.19 202.67 110.457C202.561 109.724 201.787 109.526 200.922 110.038Z" fill="#FFA45B"/>
<path d="M202.18 117.969L181.192 130.293C180.327 130.804 179.728 131.803 179.873 132.517C180.018 133.232 180.841 133.392 181.688 132.881L202.67 120.557C203.542 120.045 204.122 119.053 203.977 118.338C203.832 117.623 203.076 117.457 202.18 117.969Z" fill="#FFA45B"/>
<path d="M203.886 125.634L182.898 137.959C182.033 138.47 181.47 139.444 181.688 140.128C181.906 140.812 182.735 140.966 183.6 140.454L204.588 128.13C205.459 127.618 206.004 126.651 205.798 125.961C205.593 125.271 204.752 125.123 203.886 125.634Z" fill="#FFA45B"/>
<path d="M206.101 133.023L154.952 163.1C154.087 163.612 153.561 164.561 153.797 165.22C154.033 165.879 154.934 166.003 155.799 165.491L206.948 135.414C207.819 134.902 208.321 133.959 208.085 133.294C207.849 132.628 206.936 132.511 206.101 133.023Z" fill="#FFA45B"/>
<path d="M208.793 140.078L157.651 170.156C156.78 170.667 156.302 171.592 156.592 172.22C156.882 172.849 157.802 172.947 158.685 172.436L209.834 142.358C210.705 141.847 211.171 140.923 210.88 140.294C210.59 139.665 209.664 139.573 208.793 140.078Z" fill="#FFA45B"/>
<path d="M212.151 146.801L161.003 176.879C160.131 177.39 159.702 178.29 160.047 178.888C160.392 179.485 161.378 179.547 162.249 179.035L213.361 148.958C214.226 148.453 214.644 147.559 214.299 146.961C213.954 146.364 212.998 146.29 212.151 146.801Z" fill="#FFA45B"/>
<path d="M216.065 153.161L164.923 183.232C164.052 183.743 163.665 184.625 164.058 185.185C164.451 185.746 165.486 185.802 166.357 185.284L217.499 155.206C218.371 154.695 218.746 153.826 218.352 153.259C217.959 152.692 216.937 152.649 216.065 153.161Z" fill="#FFA45B"/>
<path d="M220.53 159.206L169.382 189.277C168.517 189.788 168.172 190.645 168.608 191.181C169.043 191.717 170.114 191.742 170.985 191.23L222.134 161.141C222.999 160.629 223.344 159.785 222.896 159.249C222.448 158.713 221.402 158.676 220.53 159.206Z" fill="#FFA45B"/>
<path d="M225.461 164.961L174.331 195.032C173.46 195.544 173.121 196.382 173.629 196.881C174.138 197.38 175.215 197.393 176.08 196.881L227.228 166.804C228.099 166.292 228.402 165.466 227.918 164.955C227.434 164.444 226.345 164.456 225.461 164.961Z" fill="#FFA45B"/>
<path d="M230.907 170.464L179.758 200.535C178.893 201.047 178.609 201.866 179.153 202.353C179.698 202.84 180.811 202.821 181.682 202.31L232.788 172.232C233.653 171.721 233.926 170.92 233.393 170.427C232.861 169.934 231.754 169.952 230.907 170.464Z" fill="#FFA45B"/>
<path d="M171.046 110.266L146.918 124.439C147.184 133.343 148.182 146.185 151.837 159.119L175.971 144.946C172.31 132.012 171.312 119.164 171.046 110.266Z" fill="#FFDA77"/>
<path opacity="0.8" d="M171.046 110.266L146.918 124.439C147.184 133.343 148.182 146.185 151.837 159.119L175.971 144.946C172.31 132.012 171.312 119.164 171.046 110.266Z" fill="white"/>
<path d="M156.755 122.479C156.788 121.904 156.7 121.329 156.498 120.792C156.295 120.254 155.983 119.766 155.582 119.361L146.918 124.451C146.99 126.805 147.111 129.436 147.323 132.271C148.45 132.403 149.59 132.188 150.596 131.655C154.003 130.065 156.755 125.942 156.755 122.479Z" fill="#FFDA77"/>
<path opacity="0.6" d="M156.755 122.479C156.788 121.904 156.7 121.329 156.498 120.792C156.295 120.254 155.983 119.766 155.582 119.361L146.918 124.451C146.99 126.805 147.111 129.436 147.323 132.271C148.45 132.403 149.59 132.188 150.596 131.655C154.003 130.065 156.755 125.942 156.755 122.479Z" fill="white"/>
<path d="M173.92 136.443C172.31 134.378 169.037 128 167.64 125.221C167.585 125.112 167.499 125.021 167.393 124.961C167.287 124.902 167.166 124.876 167.045 124.887C166.925 124.899 166.81 124.946 166.717 125.025C166.623 125.103 166.555 125.208 166.52 125.326C165.008 130.59 164.131 136.022 163.907 141.502C161.892 139.873 160.159 137.91 158.782 135.697C158.724 135.611 158.642 135.544 158.547 135.504C158.452 135.464 158.348 135.453 158.247 135.471C158.146 135.489 158.052 135.536 157.977 135.607C157.901 135.677 157.847 135.769 157.82 135.87C155.182 146.216 156.507 156.396 156.507 156.396L175.971 144.946C175.16 142.087 174.489 139.24 173.92 136.443Z" fill="#FFDA77"/>
<path opacity="0.6" d="M173.92 136.443C172.31 134.378 169.037 128 167.64 125.221C167.585 125.112 167.499 125.021 167.393 124.961C167.287 124.902 167.166 124.876 167.045 124.887C166.925 124.899 166.81 124.946 166.717 125.025C166.623 125.103 166.555 125.208 166.52 125.326C165.008 130.59 164.131 136.022 163.907 141.502C161.892 139.873 160.159 137.91 158.782 135.697C158.724 135.611 158.642 135.544 158.547 135.504C158.452 135.464 158.348 135.453 158.247 135.471C158.146 135.489 158.052 135.536 157.977 135.607C157.901 135.677 157.847 135.769 157.82 135.87C155.182 146.216 156.507 156.396 156.507 156.396L175.971 144.946C175.16 142.087 174.489 139.24 173.92 136.443Z" fill="white"/>
</svg>
