<svg width="311" height="220" viewBox="0 0 311 220" fill="none" xmlns="http://www.w3.org/2000/svg">
<path d="M56.1743 77.3342H11.0809V161.199H56.1743V77.3342Z" fill="#FBF6F0"/>
<path d="M58.3554 75.0194H8.89514V77.3342H58.3554V75.0194Z" fill="#DBDBDB"/>
<path d="M73.9091 75.0194H58.3553V77.3342H73.9091V75.0194Z" fill="#FBF6F0"/>
<path d="M71.4514 77.3342H56.1743V161.199H71.4514V77.3342Z" fill="#DBDBDB"/>
<path d="M51.3186 106.242H15.9319V86.2155H51.3186V106.242ZM16.0472 106.127H51.2033V86.3308H16.0472V106.127Z" fill="#FFA45B"/>
<path d="M35.5758 92.0626H28.6866V96.0236H35.5758V92.0626Z" fill="#FFA45B"/>
<path d="M37.6693 95.7792H30.6879V92.3023H37.6877L37.6693 95.7792ZM30.7847 95.6639H37.554V92.4361H30.7847V95.6639Z" fill="#FFA45B"/>
<path d="M51.3186 131.341H15.9319V111.338H51.3186V131.341ZM16.0472 131.226H51.2033V111.453H16.0472V131.226Z" fill="#FFA45B"/>
<path d="M35.5758 117.185H28.6866V121.146H35.5758V117.185Z" fill="#FFA45B"/>
<path d="M37.6693 120.906H30.6879V117.424H37.6877L37.6693 120.906ZM30.7847 120.791H37.554V117.54H30.7847V120.791Z" fill="#FFA45B"/>
<path d="M51.3186 156.463H15.9319V136.46H51.3186V156.463ZM16.0472 156.348H51.2033V136.575H16.0472V156.348Z" fill="#FFA45B"/>
<path d="M35.5758 142.307H28.6866V146.268H35.5758V142.307Z" fill="#FFA45B"/>
<path d="M37.6693 146.028H30.6879V142.551H37.6877L37.6693 146.028ZM30.7847 145.899H37.554V142.671H30.7847V145.899Z" fill="#FFA45B"/>
<path d="M286.515 101.774H241.422V161.199H286.515V101.774Z" fill="#FBF6F0"/>
<path d="M288.697 99.459H239.236V101.774H288.697V99.459Z" fill="#DBDBDB"/>
<path d="M304.25 99.459H288.697V101.774H304.25V99.459Z" fill="#FBF6F0"/>
<path d="M301.793 101.774H286.515V161.199H301.793V101.774Z" fill="#DBDBDB"/>
<path d="M281.604 110.715H246.333V130.599H281.604V110.715Z" fill="#AEE6E6"/>
<path d="M278.169 105.624H251.318V125.088H278.169V105.624Z" fill="#FFA45B"/>
<path d="M260.803 103.605H251.318V105.624H261.352L260.803 103.605Z" fill="#FFA45B"/>
<path d="M278.095 125.084H251.249L249.178 107.238H276.025L278.095 125.084Z" fill="#AEE6E6"/>
<path d="M258.447 105.389H248.961L249.178 107.238H259.208L258.447 105.389Z" fill="#AEE6E6"/>
<path d="M264.612 110.715H229.341V130.599H264.612V110.715Z" fill="#FBF6F0"/>
<path d="M264.667 130.682H229.285V110.655H264.667V130.682ZM229.4 130.566H264.552V110.77H229.4V130.566Z" fill="#FFA45B"/>
<path d="M248.929 116.502H242.04V120.463H248.929V116.502Z" fill="#FFA45B"/>
<path d="M251.018 120.223H244.018V116.742H251.018V120.223ZM244.133 120.108H250.903V116.848H244.133V120.108Z" fill="#FFA45B"/>
<path d="M281.604 113.694H264.7V130.599H281.604V113.694Z" fill="#DBDBDB"/>
<path d="M281.66 155.781H246.273V135.777H281.66V155.781ZM246.388 155.666H281.54V135.892H246.388V155.666Z" fill="#FFA45B"/>
<path d="M265.917 141.624H259.028V145.585H265.917V141.624Z" fill="#FFA45B"/>
<path d="M268.01 145.346H261.011V141.864H268.01V145.346ZM261.126 145.23H267.895V141.979H261.126V145.23Z" fill="#FFA45B"/>
<path d="M6.26208 161.199L43.8438 161.088L81.4208 161.047L156.575 160.968L231.729 161.047L269.306 161.088L306.888 161.199L269.306 161.314L231.729 161.351L156.575 161.43L81.4208 161.351L43.8438 161.31L6.26208 161.199Z" fill="#263238"/>
<path d="M156.575 203C229.6 203 288.798 196.513 288.798 188.511C288.798 180.51 229.6 174.023 156.575 174.023C83.5503 174.023 24.3521 180.51 24.3521 188.511C24.3521 196.513 83.5503 203 156.575 203Z" fill="#FBF6F0"/>
<path d="M294.613 128.316C294.18 129.894 293.894 131.509 293.76 133.14C293.806 133.218 293.797 133.518 293.76 133.435C293.76 133.702 293.349 133.651 293.349 133.393V132.886C292.427 131.715 291.044 130.972 289.932 129.958C289.043 129.158 288.395 128.127 288.06 126.979C287.138 123.816 288.005 120.463 286.898 117.295C285.948 114.579 284.242 112.223 282.799 109.751C281.277 107.146 280.152 104.407 280.032 101.354C279.944 99.0209 280.221 95.9037 282.001 94.1561C283.887 92.3116 286.225 93.6949 287.673 95.3458C291.86 100.151 293.797 106.224 294.59 112.435C295.023 115.875 295.47 119.352 295.369 122.801C295.301 124.66 295.048 126.508 294.613 128.316V128.316Z" fill="#FFDA77"/>
<path d="M293.778 134.398C294.007 131.156 293.969 127.9 293.663 124.664C293.663 124.664 293.663 124.641 293.663 124.627C293.714 121.994 293.921 119.375 293.82 116.737C293.693 113.887 293.305 111.055 292.662 108.276C292.662 108.243 292.602 108.276 292.611 108.276C293.128 111.006 293.437 113.771 293.534 116.548C293.589 118.039 293.578 119.527 293.501 121.012C293.474 121.496 293.428 121.98 293.395 122.469C292.298 115.079 289.625 108.012 285.556 101.746C285.501 101.659 285.349 101.746 285.404 101.838C288.307 106.601 290.457 111.784 291.777 117.203C289.762 113.473 286.704 110.406 284.463 106.819C284.463 106.819 284.422 106.819 284.431 106.842C286.455 110.835 289.808 113.98 291.943 117.909C292.312 119.513 292.616 121.136 292.842 122.755C293.144 124.988 293.305 127.238 293.326 129.492C292.1 127.186 290.827 125.005 289.822 122.575C289.822 122.511 289.702 122.575 289.725 122.621C290.578 125.139 291.726 127.855 293.335 129.999C293.335 131.595 293.291 133.189 293.202 134.781C292.953 139.033 292.224 143.229 291.887 147.467C291.884 147.492 291.892 147.518 291.908 147.539C291.924 147.559 291.947 147.572 291.973 147.575C291.998 147.578 292.024 147.571 292.045 147.555C292.065 147.539 292.078 147.515 292.081 147.49C292.943 143.17 293.51 138.796 293.778 134.398V134.398Z" fill="#263238"/>
<path d="M289.264 101.631C289.261 101.627 289.258 101.624 289.254 101.622C289.25 101.62 289.245 101.619 289.241 101.619C289.236 101.619 289.232 101.62 289.228 101.622C289.224 101.624 289.22 101.627 289.218 101.631C289.992 103.775 290.43 105.952 290.993 108.156C290.999 108.174 291.012 108.19 291.029 108.2C291.046 108.21 291.066 108.214 291.085 108.21C291.105 108.207 291.122 108.197 291.135 108.182C291.148 108.167 291.154 108.148 291.154 108.128C290.839 105.883 290.203 103.695 289.264 101.631V101.631Z" fill="#263238"/>
<path d="M308.981 110.614C308.465 111.88 307.869 113.112 307.197 114.303C305.813 116.839 304.338 119.167 304.075 122.142C304.034 123.465 303.845 124.78 303.512 126.061C303.147 127.155 302.622 128.188 301.954 129.128C300.437 131.337 298.541 133.236 297.14 135.528C295.678 137.917 294.598 140.52 293.939 143.243C293.903 143.39 293.672 143.349 293.704 143.201C293.707 143.191 293.707 143.18 293.704 143.169C293.704 143.169 293.704 143.169 293.704 143.137C293.483 136.796 293.99 130.41 295.922 124.332C296.775 121.655 297.801 119.037 298.993 116.493C299.971 114.252 301.381 112.225 303.144 110.531C304.324 109.465 306.883 107.45 308.562 108.52C309.359 109.009 309.3 109.82 308.981 110.614Z" fill="#FFDA77"/>
<path d="M302.613 124.987C301.493 126.826 300.261 128.593 298.924 130.281C298.306 131.083 297.684 131.876 297.08 132.678C296.789 133.061 296.462 133.439 296.199 133.845C296.365 133.176 296.526 132.508 296.697 131.844C297.518 128.639 298.302 125.411 299.524 122.331C300.77 119.347 302.241 116.461 303.923 113.699C303.964 113.625 303.849 113.574 303.803 113.643C302.466 115.847 301.105 118.047 299.98 120.371C299.356 121.665 298.814 122.997 298.357 124.36C298.872 121.47 299.593 118.62 300.515 115.834C300.515 115.81 300.487 115.792 300.478 115.834C299.27 118.649 298.514 121.636 298.237 124.687C298.237 124.687 298.237 124.687 298.237 124.687C297.96 125.508 297.707 126.343 297.472 127.177C296.471 130.723 295.595 134.311 294.783 137.908C294.768 135.543 294.974 133.183 295.397 130.857C295.397 130.846 295.392 130.835 295.384 130.828C295.377 130.82 295.366 130.816 295.355 130.816C295.344 130.816 295.334 130.82 295.326 130.828C295.318 130.835 295.314 130.846 295.314 130.857C294.693 133.281 294.486 135.793 294.7 138.286C294.393 139.654 294.093 141.023 293.801 142.394C293.179 145.318 292.418 148.292 292.049 151.257C292.049 151.271 292.054 151.284 292.062 151.295C292.071 151.306 292.083 151.313 292.097 151.316C292.111 151.319 292.125 151.317 292.137 151.31C292.149 151.304 292.159 151.293 292.164 151.28C292.625 149.68 292.86 148.02 293.22 146.402C293.58 144.783 293.944 143.174 294.322 141.537C294.869 139.176 295.441 136.821 296.038 134.472C296.43 133.615 297.186 132.849 297.758 132.125C298.329 131.401 299.003 130.539 299.602 129.732C300.742 128.241 301.763 126.662 302.655 125.01C302.687 124.978 302.632 124.95 302.613 124.987Z" fill="#263238"/>
<path d="M302.881 122.275C301.485 124.056 300.277 125.975 299.275 128.003C299.275 128.03 299.302 128.058 299.321 128.03C300.534 126.13 301.728 124.212 302.936 122.308C302.959 122.28 302.904 122.243 302.881 122.275Z" fill="#263238"/>
<path d="M275.891 116.622C276.716 118.038 277.653 119.739 277.274 121.436C277.053 122.511 276.265 123.387 276.122 124.484C275.803 126.905 278.22 128.505 279.967 129.649C284.32 132.508 290.287 135.053 291.08 140.886C291.113 141.089 291.468 141.039 291.44 140.836C291.442 140.824 291.442 140.811 291.44 140.799C291.44 140.799 291.44 140.799 291.44 140.767C292.012 137.822 291.984 134.791 291.357 131.858C290.712 128.851 289.397 126.149 287.848 123.507C285.229 119.038 282.453 114.459 278.492 111.056C277.394 110.106 275.149 108.405 274.277 110.544C273.406 112.684 274.886 114.897 275.891 116.622Z" fill="#FFDA77"/>
<path d="M279.88 126.098C282.762 129.225 287.355 130.977 289.835 134.477C288.45 129.149 285.827 124.223 282.181 120.099C282.089 119.993 282.236 119.836 282.342 119.938C284.999 122.52 287.124 125.598 288.595 128.999C287.911 126.624 287.01 124.318 285.902 122.109C285.892 122.092 285.89 122.072 285.895 122.053C285.9 122.034 285.913 122.018 285.93 122.008C285.947 121.998 285.967 121.996 285.986 122.001C286.005 122.006 286.021 122.019 286.031 122.036C287.395 124.442 288.369 127.049 288.918 129.76C292.187 137.686 292.492 146.978 291.805 155.334C291.805 155.453 291.615 155.458 291.62 155.334C291.804 148.749 291.698 142.053 290.121 135.625C290.089 135.491 290.052 135.358 290.02 135.224C287.318 131.456 282.748 129.69 279.811 126.13C279.801 126.117 279.848 126.071 279.88 126.098Z" fill="#263238"/>
<path d="M278.967 117.392C280.309 119.591 281.826 121.677 283.504 123.631C283.507 123.634 283.509 123.637 283.51 123.64C283.511 123.644 283.511 123.648 283.511 123.651C283.511 123.655 283.51 123.658 283.508 123.662C283.507 123.665 283.505 123.668 283.502 123.67C283.499 123.673 283.496 123.675 283.493 123.676C283.489 123.677 283.485 123.678 283.482 123.677C283.478 123.677 283.475 123.676 283.471 123.675C283.468 123.673 283.465 123.671 283.463 123.668C281.582 121.88 280.033 119.772 278.888 117.443C278.882 117.432 278.879 117.42 278.882 117.408C278.884 117.396 278.892 117.385 278.902 117.378C278.913 117.372 278.925 117.369 278.937 117.372C278.949 117.374 278.96 117.382 278.967 117.392Z" fill="#263238"/>
<path d="M285.791 161.24H299.063L297.273 143.386H287.834L285.791 161.24Z" fill="#455A64"/>
<path d="M287.502 146.291H297.564L297.273 143.386H287.834L287.502 146.291Z" fill="#263238"/>
<path d="M286.206 144.262H298.648V141.412H286.206V144.262Z" fill="#455A64"/>
<path d="M85.8614 193.127C84.787 193.478 54.1775 193.081 53.0247 192.325C52.5636 192.044 52.3745 187.58 52.2869 182.18V182.01C52.2638 180.898 52.25 179.75 52.25 178.593C52.25 178.431 52.25 178.27 52.25 178.132C52.2039 170.339 52.3284 162.25 52.3284 162.25L72.8023 162.453L72.189 178.178L72.166 178.8L72.0415 182.056V182.392C72.0415 182.392 83.6895 187.783 84.8746 188.747C86.0597 189.71 86.945 192.786 85.8614 193.127Z" fill="#DD6A57"/>
<path d="M76.6618 184.477C76.5835 184.454 76.5421 184.426 76.5375 184.403L76.6618 184.477Z" fill="#FFDA77"/>
<path d="M85.8568 193.127C84.787 193.473 54.1775 193.081 53.0201 192.32C52.6282 192.076 52.4207 188.521 52.3192 183.942C57.9265 185.113 79.6639 189.508 80.2588 187.631C80.4939 186.902 78.6356 185.639 77.4597 184.924C80.6876 186.455 84.2291 188.207 84.8377 188.724C86.0228 189.706 86.9451 192.786 85.8568 193.127Z" fill="#FFDA77"/>
<path opacity="0.1" d="M66.6556 193.081C59.7664 192.915 53.555 192.657 53.0432 192.32C52.6512 192.076 52.4437 188.521 52.3423 183.942C53.14 184.103 54.2606 184.338 55.6024 184.606L66.6556 193.081Z" fill="black"/>
<path d="M46.0433 74.0602C46.0433 74.0602 50.6546 125.785 51.3878 129.732C51.5584 130.631 51.6691 135.519 51.7382 141.799C51.895 155.513 51.8028 180.239 51.8028 180.239H73.3788C73.3788 180.239 72.7379 137.396 71.7833 129.515C70.8288 121.635 64.7235 74.0649 64.7235 74.0649L46.0433 74.0602Z" fill="#37474F"/>
<path d="M72.4012 176.481C69.035 176.412 70.0033 176.384 66.6371 176.352C64.9909 176.352 54.1591 176.241 52.6189 176.495C52.5867 176.495 52.5867 176.559 52.6189 176.564C54.1591 176.817 64.9909 176.725 66.6371 176.707C70.0033 176.674 69.035 176.647 72.4012 176.578C72.4115 176.574 72.4205 176.568 72.4269 176.559C72.4333 176.55 72.4368 176.54 72.4368 176.529C72.4368 176.518 72.4333 176.508 72.4269 176.499C72.4205 176.49 72.4115 176.484 72.4012 176.481V176.481Z" fill="#263238"/>
<path d="M55.9021 151.986L55.833 142.597C55.8099 139.568 55.833 136.533 55.6716 133.504C55.3765 127.376 54.1314 121.344 53.2507 115.285C52.3699 109.226 51.6275 103.13 50.9451 97.0381C50.1934 90.2042 49.5294 83.3565 48.8285 76.518C48.8285 76.4719 48.7501 76.4719 48.7547 76.518C49.7738 88.7332 50.9082 100.958 52.5959 113.085C53.0201 116.104 53.4812 119.118 53.9793 122.128C54.4865 125.171 54.9845 128.219 55.2243 131.3C55.4641 134.38 55.501 137.336 55.5286 140.361L55.6255 149.74C55.69 156.689 55.7592 167.383 55.8238 174.327C55.8238 174.355 55.8349 174.382 55.8548 174.402C55.8747 174.422 55.9017 174.433 55.9298 174.433C55.958 174.433 55.9849 174.422 56.0048 174.402C56.0247 174.382 56.0359 174.355 56.0359 174.327C55.9944 168.125 55.9483 158.183 55.9021 151.986Z" fill="#263238"/>
<path d="M41.4921 74.0602C41.4921 74.0602 50.6362 125.785 51.3878 129.732C51.5584 130.631 51.6691 135.519 51.7383 141.799L62.0444 74.0602H41.4921Z" fill="#263238"/>
<path d="M60.8039 194.953C59.7111 195.225 29.2031 192.648 28.1056 191.822C27.686 191.513 27.7966 187.045 28.1056 181.678C28.1056 181.622 28.1056 181.562 28.1056 181.507C28.1655 180.396 28.2301 179.252 28.3131 178.095C28.3131 177.933 28.3131 177.777 28.3408 177.634C28.848 169.859 29.5443 161.799 29.5443 161.799L49.9491 163.422L48.2106 179.058L48.1461 179.681L47.791 182.909L47.7495 183.25C47.7495 183.25 58.9871 189.452 60.0984 190.499C61.2097 191.546 61.9014 194.691 60.8039 194.953Z" fill="#DD6A57"/>
<path d="M60.8039 194.953C59.7064 195.225 29.2076 192.648 28.1055 191.822C27.7458 191.56 27.7735 188.258 27.9764 183.946C32.6983 185.154 55.4687 190.863 56.1696 189.019C56.3125 188.618 55.8283 188.027 55.1735 187.451C57.5345 188.834 59.6603 190.093 60.1168 190.517C61.2143 191.55 61.8967 194.686 60.8039 194.953Z" fill="#FFDA77"/>
<path d="M48.6717 181.406L27.1141 180.483C27.1141 180.483 32.9981 133.181 33.1088 130.271C33.2702 125.951 35.3406 108.11 37.0837 93.6673C37.0837 93.6673 33.782 85.8282 39.9611 74.0326H64.7327C64.7327 74.0326 63.0727 85.2748 60.2275 92.4038C58.3188 93.0703 56.4757 93.9116 54.7217 94.9169C54.7217 94.9169 52.2547 127.122 52.1624 131.138C51.9918 139.088 48.6717 181.406 48.6717 181.406Z" fill="#37474F"/>
<path d="M48.1046 177.454C44.7476 177.242 45.7114 177.255 42.3498 177.08C40.7035 176.993 29.8994 176.444 28.3408 176.619C28.3085 176.619 28.3039 176.679 28.3408 176.684C29.8671 177.006 40.6897 177.371 42.3359 177.426C45.7021 177.537 44.7338 177.468 48.1046 177.537C48.1645 177.555 48.1692 177.458 48.1046 177.454Z" fill="#263238"/>
<path d="M41.6027 75.0978C40.3254 77.8645 39.1357 80.7742 38.6884 83.8084C38.3648 87.0631 38.7277 90.3495 39.7536 93.4552C39.7536 93.4552 39.5738 96.0052 39.3801 97.633C39.1864 99.2607 38.9974 100.907 38.8083 102.544C38.4302 105.852 38.049 109.16 37.6647 112.467C36.9085 119.046 36.1538 125.629 35.4006 132.217C34.6474 138.805 33.902 145.39 33.1642 151.972C32.431 158.538 31.647 165.1 30.9969 171.676C30.9139 172.497 30.8355 173.313 30.7571 174.134C30.7571 174.212 30.8908 174.23 30.9 174.134C31.7762 167.572 32.5232 160.996 33.3071 154.421C34.091 147.845 34.8426 141.329 35.6127 134.781C36.3828 128.233 37.139 121.621 37.8953 115.036C38.6423 108.548 39.4816 102.06 40.1225 95.5625C40.1983 94.8103 40.2168 94.0534 40.1779 93.2984C40.1779 93.2984 38.7945 88.6871 38.9651 85.699C39.1357 82.5772 39.8874 80.207 40.9987 77.3342C41.2753 76.6149 41.5658 75.8955 41.8425 75.1808C41.8979 75.0563 41.6673 74.9641 41.6027 75.0978Z" fill="#263238"/>
<path d="M61.1775 91.9473C58.942 92.7575 56.7819 93.762 54.7217 94.9492C54.7062 94.9585 54.6946 94.9731 54.6892 94.9904C54.6838 95.0076 54.6849 95.0263 54.6922 95.0427C54.6996 95.0592 54.7128 95.0724 54.7293 95.0799C54.7458 95.0873 54.7644 95.0884 54.7817 95.083C56.9536 94.1607 59.167 93.2385 61.2881 92.2055C61.3158 92.187 61.3361 92.1593 61.3456 92.1274C61.355 92.0954 61.353 92.0612 61.3399 92.0305C61.3267 91.9999 61.3033 91.9748 61.2737 91.9596C61.244 91.9445 61.21 91.9401 61.1775 91.9473Z" fill="#263238"/>
<path d="M58.1432 88.3367C58.3554 87.0409 58.5306 85.7406 58.6413 84.4356C58.8665 82.0016 58.8402 79.5508 58.5629 77.1221C58.5591 77.1085 58.551 77.0965 58.5398 77.0879C58.5285 77.0793 58.5148 77.0747 58.5006 77.0747C58.4865 77.0747 58.4727 77.0793 58.4615 77.0879C58.4502 77.0965 58.4421 77.1085 58.4384 77.1221C58.4933 80.4984 58.296 83.874 57.8481 87.2208C57.6037 88.8301 56.7921 91.251 58.4752 91.4954C60.1584 91.7398 61.2973 87.6957 61.5048 86.5844C62.0409 83.4243 62.1633 80.2078 61.8691 77.0161C61.8691 76.9377 61.7308 76.9239 61.7308 77.0161C61.7309 79.44 61.6094 81.8624 61.3665 84.2742C61.2651 85.3947 60.3659 91.5784 58.4245 91.1265C58.1017 91.0481 57.9357 90.7299 57.885 90.2411C57.8934 89.6012 57.9801 88.9648 58.1432 88.3459" fill="#263238"/>
<path d="M58.4798 91.2833C58.2985 91.7002 58.1445 92.1284 58.0187 92.5652C57.8932 92.9013 57.8322 93.2579 57.8389 93.6166C57.8389 93.6858 57.9357 93.695 57.9726 93.6489C58.1776 93.3315 58.3331 92.9847 58.4337 92.6206C58.5813 92.224 58.7381 91.832 58.8948 91.4309C58.9045 91.4036 58.9088 91.3747 58.9073 91.3458C58.9058 91.3169 58.8987 91.2886 58.8862 91.2625C58.8738 91.2364 58.8564 91.213 58.8349 91.1936C58.8134 91.1742 58.7884 91.1593 58.7611 91.1496C58.7339 91.1399 58.705 91.1357 58.6761 91.1371C58.6472 91.1386 58.6189 91.1458 58.5928 91.1582C58.5667 91.1706 58.5432 91.188 58.5239 91.2095C58.5045 91.231 58.4895 91.256 58.4798 91.2833Z" fill="#263238"/>
<path d="M51.4385 29.1144C47.4267 32.5544 48.5427 37.5714 46.8688 40.2967C45.8405 41.9613 42.5019 43.7182 41.8379 45.6365C40.7497 48.786 43.4196 49.9204 42.8201 51.6311C41.9762 54.0613 38.7253 53.8722 38.1397 57.8425C37.5541 61.8128 41.9255 66.0367 52.2916 67.1803C62.6577 68.3239 68.3572 64.5288 68.7261 61.158C69.095 57.7872 65.6504 56.6666 65.4152 54.1535C65.2677 52.5442 67.3935 51.4282 67.5041 48.4678C67.6148 45.5074 64.7374 44.5483 64.3131 42.0351C63.8889 39.522 65.2354 33.4167 61.5464 30.2995C57.8574 27.1823 53.4352 27.4129 51.4385 29.1144Z" fill="#263238"/>
<path d="M51.8996 29.202C50.7771 29.9983 49.8628 31.0533 49.2343 32.2777C48.5848 33.5747 48.0881 34.9426 47.7541 36.3541C47.5781 37.1951 47.3074 38.0134 46.9471 38.7934C46.5941 39.4446 46.1254 40.0259 45.5638 40.5088C44.4432 41.5233 43.106 42.2934 42.0961 43.437C41.0863 44.5806 40.4038 45.9593 40.7819 47.4303C40.9894 48.2327 41.5197 48.8829 41.8471 49.6299C42.1745 50.3769 42.2806 51.2161 41.6719 51.8064C41.1554 52.309 40.4038 52.5396 39.8274 52.95C39.2471 53.3535 38.7362 53.8488 38.3149 54.4164C37.8869 54.9781 37.5809 55.6231 37.4165 56.3099C37.2521 56.9968 37.233 57.7104 37.3604 58.4051C37.9737 61.633 40.9986 63.4775 43.8161 64.6164L44.9874 65.0776C45.0473 65.1006 45.098 65.013 45.0381 64.9853C42.2345 63.7311 38.9789 62.2601 37.9045 59.1244C37.658 58.4436 37.5714 57.7153 37.6514 56.9956C37.7313 56.276 37.9757 55.5844 38.3656 54.9743C38.762 54.3691 39.2651 53.8409 39.8504 53.4157C40.413 52.9961 41.0632 52.7425 41.6396 52.3459C41.9237 52.1654 42.1548 51.9128 42.3095 51.6139C42.4642 51.3151 42.537 50.9805 42.5204 50.6443C42.4302 49.9125 42.1678 49.2125 41.7549 48.6016C41.3208 47.9608 41.0909 47.2036 41.0955 46.4297C41.1786 45.6754 41.4655 44.9581 41.9255 44.3546C42.797 43.1188 44.0882 42.3118 45.2456 41.3757C46.432 40.5048 47.3157 39.2841 47.7726 37.885C47.9847 37.1426 48.1184 36.3818 48.3029 35.6347C48.4732 34.9415 48.681 34.2581 48.9254 33.5873C49.383 32.2369 50.1306 31.0029 51.1157 29.9721C51.3784 29.7114 51.6656 29.4767 51.9734 29.2712C51.9872 29.2343 51.955 29.179 51.8996 29.202Z" fill="#263238"/>
<path d="M69.201 58.6864C69.0777 58.1394 68.8387 57.6253 68.5001 57.1785C68.1404 56.7174 67.7023 56.3346 67.3011 55.915C66.8952 55.5418 66.6013 55.0627 66.4527 54.5316C66.3884 53.882 66.5514 53.2301 66.9138 52.6871C67.2621 52.1064 67.5702 51.5024 67.836 50.8795C68.0648 50.2594 68.197 49.6077 68.228 48.9474C68.2853 47.5858 67.9214 46.2397 67.1859 45.0924C66.8308 44.5114 66.4342 43.9627 66.0792 43.3862C65.6822 42.7592 65.372 42.0814 65.1569 41.3711C64.6958 39.8125 64.5897 38.1433 64.207 36.5847C63.8056 34.9484 63.2354 33.3582 62.5054 31.8397C62.5054 31.8028 62.4317 31.8397 62.4501 31.872C63.0879 33.2326 63.5824 34.6559 63.9257 36.1189C64.2531 37.5023 64.3868 38.9226 64.6266 40.3244C64.7343 41.0134 64.9104 41.69 65.1523 42.3441C65.4066 42.9487 65.7153 43.5291 66.0745 44.0779C66.7755 45.2215 67.4994 46.3467 67.6931 47.7024C67.8859 49.0347 67.6519 50.3939 67.0245 51.585C66.4803 52.6134 65.7149 53.7477 66.1898 54.9559C66.5956 55.9796 67.5732 56.5929 68.2142 57.4367C68.5557 57.9029 68.7951 58.4358 68.9167 59.0008C69.0382 59.5657 69.0393 60.15 68.9197 60.7153C68.3571 63.6158 65.452 65.0591 62.7268 65.2021C62.712 65.206 62.699 65.2147 62.6897 65.2267C62.6804 65.2388 62.6753 65.2537 62.6753 65.2689C62.6753 65.2842 62.6804 65.299 62.6897 65.3111C62.699 65.3232 62.712 65.3319 62.7268 65.3358C65.0923 65.3081 67.67 64.266 68.7813 62.048C69.3064 61.0099 69.4547 59.8217 69.201 58.6864V58.6864Z" fill="#263238"/>
<path d="M57.433 53.9598C58.9086 57.8517 65.8255 72.0452 71.0178 73.1565C76.8233 74.3969 88.0794 69.9286 95.3191 66.8114C97.9198 65.6863 91.5747 56.7128 88.7157 55.666C87.0004 55.0343 75.0618 61.1995 72.4196 61.1995C70.9302 61.1995 67.5732 55.7167 60.933 50.5429C57.2993 47.6793 55.4502 48.7261 57.433 53.9598Z" fill="#DD6A57"/>
<path d="M93.4885 67.3509C95.0425 66.8898 103.813 64.3582 105.579 63.2008C107.345 62.0434 112.173 58.2437 111.403 56.8004C110.633 55.357 109.134 56.3392 109.134 56.3392C109.134 56.3392 110.924 54.4117 110.001 53.0284C109.079 51.645 106.806 53.2681 106.806 53.2681C106.806 53.2681 108.498 51.1654 107.498 49.8512C106.497 48.537 104.468 50.5521 104.468 50.5521C104.468 50.5521 106.105 48.7076 104.823 47.9652C103.283 47.0845 100.65 50.8334 98.6024 51.9908C98.1413 52.2537 88.8081 56.662 88.8081 56.662L93.4885 67.3509Z" fill="#DD6A57"/>
<path d="M104.657 50.3815C102.716 53.1483 101.392 54.0014 98.3257 55.2741C98.2657 55.2971 98.2934 55.394 98.3579 55.3709C101.471 54.4025 103.287 53.5541 104.814 50.4691C104.869 50.317 104.754 50.2524 104.657 50.3815Z" fill="#263238"/>
<path d="M106.972 53.0468C104.703 55.7306 103.283 56.6851 100.166 58.2483C100.119 58.2714 100.166 58.3498 100.198 58.3313C103.38 57.0494 105.178 56.1594 107.087 53.1805C107.175 53.0468 107.073 52.9223 106.972 53.0468Z" fill="#263238"/>
<path d="M108.973 56.4038C106.589 58.8432 105.067 59.9545 101.853 61.0888C101.845 61.091 101.838 61.0946 101.832 61.0996C101.825 61.1045 101.82 61.1107 101.816 61.1178C101.807 61.1321 101.805 61.149 101.81 61.1649C101.814 61.1808 101.824 61.1944 101.838 61.2026C101.853 61.2108 101.87 61.213 101.886 61.2087C105.279 60.3741 107.189 58.9953 109.038 56.4822C109.167 56.3116 109.121 56.247 108.973 56.4038Z" fill="#263238"/>
<path d="M86.1058 56.4407C86.1058 56.4407 88.6512 52.6088 90.1315 51.4144C91.6117 50.2201 98.7545 47.8084 99.354 49.3209C100.138 51.2761 96.2921 53.4711 94.2816 54.3149C94.2816 54.3149 96.1261 58.8339 93.6867 61.0151C91.2474 63.1962 86.1058 56.4407 86.1058 56.4407Z" fill="#DD6A57"/>
<path d="M99.3955 49.9158C98.8283 52.2214 96.0984 53.1436 94.194 54.0936C94.1652 54.1062 94.1399 54.1256 94.1203 54.1502C94.1007 54.1747 94.0874 54.2037 94.0815 54.2346C94.0756 54.2654 94.0773 54.2973 94.0865 54.3273C94.0956 54.3574 94.1119 54.3848 94.134 54.4071C94.7704 56.3531 95.107 59.2812 93.8066 61.0104C93.8017 61.0205 93.8002 61.0318 93.8024 61.0428C93.8046 61.0538 93.8103 61.0637 93.8187 61.0711C93.8271 61.0784 93.8377 61.0828 93.8489 61.0835C93.8601 61.0842 93.8711 61.0812 93.8804 61.075C95.5266 59.4149 95.4298 56.5099 94.5952 54.421C96.5642 53.471 99.2617 52.4243 99.4185 49.9204L99.3955 49.9158Z" fill="#263238"/>
<path d="M68.1681 74.2217L71.3038 60.0559C68.1439 56.5558 64.7909 53.2352 61.2605 50.1094C56.165 45.7057 53.7395 46.176 56.7922 54.0198C59.8448 61.8635 64.35 70.9477 68.1681 74.2217Z" fill="#FFDA77"/>
<path d="M68.1681 74.2217L71.3038 60.0559C68.1439 56.5558 64.7909 53.2352 61.2605 50.1094C56.165 45.7057 53.7395 46.176 56.7922 54.0198C59.8448 61.8635 64.35 70.9477 68.1681 74.2217Z" fill="#FFDA77"/>
<path d="M69.5285 59.7516C68.9889 61.6883 68.5232 63.6297 68.1174 65.5987C67.9145 66.5855 67.7255 67.5769 67.5502 68.5729C67.3704 69.5828 67.2597 70.6065 67.0891 71.6256C67.0891 71.6717 67.1537 71.6809 67.1629 71.6256C67.5318 69.6427 67.9699 67.6645 68.3756 65.6817L69.5792 59.7608C69.6069 59.7285 69.5423 59.7101 69.5285 59.7516Z" fill="#263238"/>
<path d="M57.8943 56.247C58.0285 56.5591 58.12 56.888 58.1663 57.2246C58.1663 57.2799 58.1663 57.3353 58.1663 57.3952C58.0649 57.137 57.9588 56.888 57.8528 56.6343C57.8554 56.5043 57.8693 56.3747 57.8943 56.247V56.247ZM66.3236 55.3801C66.2472 56.0527 66.344 56.7337 66.6049 57.3583C66.6534 57.0234 66.6534 56.6833 66.6049 56.3484C66.5489 56.0131 66.4465 55.6872 66.3006 55.3801H66.3236ZM63.4739 65.5248C63.4254 65.8582 63.4254 66.1968 63.4739 66.5301C63.519 66.8655 63.6106 67.1929 63.7459 67.5031C63.7967 67.1684 63.7967 66.8279 63.7459 66.4932C63.6952 66.1578 63.5958 65.8315 63.4508 65.5248H63.4739ZM66.1392 62.3707C66.8119 62.4533 67.4944 62.3563 68.1174 62.0895C67.7825 62.041 67.4424 62.041 67.1075 62.0895C66.7649 62.1336 66.4308 62.2284 66.1161 62.3707H66.1392ZM55.7777 49.1134C56.1127 49.1597 56.4525 49.1597 56.7876 49.1134C57.1229 49.0709 57.4506 48.9808 57.7605 48.8459C57.4257 48.7974 57.0855 48.7974 56.7507 48.8459C56.4079 48.8887 56.0727 48.9787 55.7546 49.1134H55.7777ZM60.3889 62.2647C60.3858 62.2736 60.3858 62.2834 60.3889 62.2923C60.4001 62.2717 60.4094 62.2501 60.4166 62.2278C60.3992 62.2372 60.3835 62.2497 60.3705 62.2647H60.3889ZM68.9613 67.2909C68.6933 67.498 68.4558 67.7417 68.2557 68.0149C68.0496 68.2814 67.8834 68.5766 67.7623 68.891C68.0298 68.6867 68.266 68.4444 68.4632 68.1717C68.67 67.9031 68.8376 67.6065 68.9613 67.2909V67.2909ZM63.7229 59.8438C63.5162 59.577 63.2742 59.3397 63.0035 59.1383C62.7347 58.933 62.4382 58.7669 62.1228 58.6448C62.5461 59.1734 63.0967 59.5859 63.7229 59.8438ZM61.8092 52.3643C61.54 52.5697 61.3009 52.8118 61.0991 53.0837C60.8924 53.3507 60.7247 53.6457 60.6011 53.9598C61.1334 53.5399 61.5493 52.9906 61.8092 52.3643V52.3643Z" fill="white"/>
<path d="M56.7921 54.0198C59.8448 61.8589 64.3315 70.9477 68.1681 74.2217L69.4592 68.3885L55.6946 47.7623C55.1736 48.6016 55.4595 50.6029 56.7921 54.0198Z" fill="#263238"/>
<path d="M65.6043 77.6755C65.6043 77.6755 55.81 79.9811 37.2589 78.3902C37.2589 78.3902 44.5124 55.2371 50.3549 48.9935C53.0155 46.153 55.6117 46.5864 57.8159 48.4171C58.3646 48.8782 65.1939 57.5151 65.7518 60.5308C66.2637 63.1915 64.101 66.1473 64.101 66.1473L65.6043 77.6755Z" fill="#FFDA77"/>
<path d="M58.1432 57.2246C58.1917 57.5579 58.1917 57.8965 58.1432 58.2299C58.0078 57.9217 57.9177 57.5955 57.8758 57.2615C57.825 56.9268 57.825 56.5863 57.8758 56.2516C58.0096 56.562 58.0996 56.8894 58.1432 57.2246V57.2246ZM58.3138 72.8613C58.2675 73.1964 58.2675 73.5362 58.3138 73.8712C58.3552 74.2073 58.4469 74.5353 58.5859 74.8442C58.6322 74.5092 58.6322 74.1693 58.5859 73.8343C58.5418 73.4987 58.4502 73.1711 58.3138 72.8613ZM63.1234 75.8633C63.0407 76.5359 63.1378 77.2185 63.4046 77.8415C63.4509 77.5065 63.4509 77.1667 63.4046 76.8316C63.3583 76.4969 63.2636 76.1707 63.1234 75.8633ZM47.5466 62.1448C47.4958 62.4795 47.4958 62.82 47.5466 63.1547C47.5885 63.4887 47.6786 63.8148 47.814 64.123C47.8625 63.7897 47.8625 63.4511 47.814 63.1178C47.7698 62.7827 47.6799 62.4553 47.5466 62.1448V62.1448ZM63.4508 65.5248C63.4023 65.8582 63.4023 66.1968 63.4508 66.5301C63.4959 66.8655 63.5874 67.1929 63.7228 67.5031C63.7736 67.1684 63.7736 66.8279 63.7228 66.4932C63.6794 66.159 63.5878 65.8328 63.4508 65.5248V65.5248ZM51.978 59.4103C52.3128 59.4588 52.653 59.4588 52.9878 59.4103C53.3232 59.3678 53.6508 59.2778 53.9608 59.1429C53.6259 59.0944 53.2858 59.0944 52.9509 59.1429C52.6159 59.187 52.2885 59.277 51.978 59.4103V59.4103ZM46.2047 69.2092C46.8789 69.2922 47.563 69.1952 48.1875 68.9279C47.8526 68.8795 47.5125 68.8795 47.1777 68.9279C46.8416 68.9749 46.5139 69.0696 46.2047 69.2092V69.2092ZM55.8191 68.4299C56.1542 68.4762 56.494 68.4762 56.829 68.4299C57.1644 68.3874 57.492 68.2974 57.802 68.1625C57.4671 68.114 57.127 68.114 56.7921 68.1625C56.4568 68.2051 56.1292 68.2952 55.8191 68.4299V68.4299ZM38.3794 77.4357C38.7129 77.4819 39.0512 77.4819 39.3846 77.4357C39.7203 77.3944 40.048 77.3043 40.3576 77.1682C39.6849 77.0856 39.0024 77.1827 38.3794 77.4495V77.4357ZM55.7546 49.1365C56.0896 49.1828 56.4294 49.1828 56.7644 49.1365C57.0998 49.094 57.4274 49.0039 57.7374 48.869C57.4025 48.8205 57.0624 48.8205 56.7276 48.869C56.3937 48.9065 56.0665 48.9887 55.7546 49.1134V49.1365ZM52.4898 50.9072C52.222 51.1126 51.9845 51.3548 51.7843 51.6265C51.5781 51.8947 51.4119 52.1914 51.2909 52.5073C51.5574 52.3001 51.7934 52.0564 51.9918 51.7833C52.1994 51.517 52.3672 51.2218 52.4898 50.9072V50.9072ZM43.7284 63.4175C43.4595 63.6217 43.2219 63.864 43.0229 64.1369C42.8152 64.4048 42.6475 64.7015 42.5249 65.0176C43.0565 64.5961 43.4709 64.0451 43.7284 63.4175V63.4175ZM60.3935 62.2509C60.1246 62.4551 59.8869 62.6974 59.688 62.9702C59.4803 63.2382 59.3125 63.5349 59.19 63.851C59.7215 63.4295 60.136 62.8785 60.3935 62.2509ZM52.061 71.5748C51.7942 71.7815 51.5569 72.0235 51.3555 72.2942C51.1502 72.563 50.9841 72.8595 50.862 73.1749C51.13 72.9678 51.3675 72.7241 51.5676 72.4509C51.7818 72.1799 51.9543 71.8784 52.0794 71.5564L52.061 71.5748ZM61.2835 52.8531L61.0806 53.1021C60.873 53.3685 60.7052 53.6636 60.5826 53.9783C60.8527 53.7736 61.0905 53.5296 61.2881 53.2543C61.3342 53.1898 61.3757 53.1252 61.4264 53.0606L61.2835 52.8531ZM63.7044 59.8622C63.4977 59.5955 63.2557 59.3581 62.985 59.1567C62.7162 58.9514 62.4197 58.7853 62.1043 58.6633C62.5276 59.1919 63.0782 59.6044 63.7044 59.8622V59.8622ZM42.4926 71.4872C42.2856 71.2192 42.0419 70.9817 41.7687 70.7817C41.5023 70.5741 41.2072 70.4063 40.8925 70.2837C41.0967 70.5526 41.3391 70.7902 41.6119 70.9892C41.8898 71.1896 42.1939 71.3509 42.5157 71.4687L42.4926 71.4872ZM64.1655 71.8515C63.7467 71.3172 63.1949 70.9021 62.5654 70.6479C62.77 70.9181 63.014 71.1559 63.2894 71.3535C63.5597 71.5554 63.8579 71.7169 64.1747 71.833L64.1655 71.8515ZM49.2158 57.3629C49.0075 57.0961 48.764 56.8587 48.4919 56.6574C48.2253 56.4513 47.9302 56.285 47.6157 56.164C47.82 56.4315 48.0624 56.6676 48.3351 56.8649C48.6037 57.0716 48.9002 57.2393 49.2158 57.3629V57.3629ZM55.3672 78.1136C54.9439 77.585 54.3933 77.1725 53.7671 76.9146C53.9713 77.1835 54.2137 77.4212 54.4865 77.6201C54.7553 77.8254 55.0518 77.9915 55.3672 78.1136V78.1136ZM53.5227 65.3588C53.3257 65.0886 53.0895 64.8492 52.8218 64.6487C52.5538 64.441 52.2572 64.2733 51.9411 64.1507C52.3626 64.6823 52.9135 65.0967 53.5412 65.3542L53.5227 65.3588ZM46.5644 75.605C46.1459 75.0723 45.5961 74.6575 44.9689 74.4015C45.1731 74.6704 45.4154 74.9081 45.6882 75.107C45.9598 75.3132 46.2595 75.4794 46.5782 75.6004L46.5644 75.605Z" fill="white"/>
<path d="M62.2011 54.1581C62.7972 54.9594 63.3499 55.7922 63.8565 56.6528C63.649 56.1686 63.4507 55.6798 63.2801 55.1772H63.3124C63.4922 55.5323 63.6767 55.8827 63.8242 56.2516C63.9718 56.6205 64.0871 56.9157 64.2116 57.2477C64.788 58.2621 65.4612 59.2858 65.7517 60.4248C65.9956 61.4525 65.9734 62.5253 65.6872 63.542C65.5377 64.0661 65.3336 64.573 65.0785 65.0545C64.8766 65.4918 64.6074 65.8948 64.2807 66.2488C64.4698 67.314 64.5943 68.3977 64.7419 69.4767C64.9152 70.5235 65.0246 71.5799 65.0693 72.64C65.0693 72.6547 65.0634 72.6688 65.0531 72.6792C65.0427 72.6895 65.0286 72.6954 65.0139 72.6954C64.9993 72.6954 64.9852 72.6895 64.9748 72.6792C64.9644 72.6688 64.9586 72.6547 64.9586 72.64L64.8894 72.4187C64.8857 72.4133 64.8836 72.4068 64.8836 72.4002C64.8836 72.3936 64.8857 72.3872 64.8894 72.3818C64.6852 71.402 64.5313 70.4123 64.4283 69.4168C64.29 68.3931 64.0317 66.2627 64.0271 66.2534C64.0225 66.2442 64.5159 65.3589 64.705 64.9531C64.94 64.4583 65.1284 63.9427 65.2676 63.4129C65.563 62.4165 65.5853 61.359 65.3321 60.351C64.972 59.2741 64.4892 58.2421 63.8934 57.2753C63.317 56.2424 62.7221 55.2187 62.1273 54.195C62.1088 54.1674 62.1734 54.1351 62.2011 54.1581Z" fill="#263238"/>
<path d="M48.8101 50.5752C43.9682 57.1324 34.7181 72.6446 37.8214 76.0615C42.9261 81.678 55.2012 86.4276 59.0332 87.4698C60.684 87.9309 66.2083 75.8494 64.6405 74.9133C62.7591 73.7836 49.6124 69.7626 49.6493 68.6466C49.6493 68.0103 51.0327 62.6889 52.1624 55.8643C53.4582 47.9467 51.1203 47.4533 48.8101 50.5752Z" fill="#DD6A57"/>
<path d="M59.7111 73.8528C59.7111 73.8528 62.6715 72.8936 65.7749 71.4872C67.5041 70.7033 70.589 69.6427 72.1246 69.6427C74.4302 69.6427 84.0124 71.1552 83.6988 73.4885C83.4129 75.6004 75.3386 73.2625 75.3386 73.2625C75.3386 73.2625 83.7172 74.8857 82.8872 77.3665C82.0572 79.8474 73.3004 75.9832 73.3004 75.9832C73.3004 75.9832 81.8543 77.8553 80.6139 80.2808C79.6916 82.1253 71.5297 79.0727 71.5297 79.0727C71.5297 79.0727 78.8708 80.7374 77.9855 82.6603C77.0125 84.7907 69.3163 82.4574 69.3163 82.4574C66.2498 86.9764 61.5049 88.7379 58.1571 87.2023C57.6176 86.9672 59.7111 73.8528 59.7111 73.8528Z" fill="#DD6A57"/>
<path d="M72.4796 72.4971C73.471 72.6539 74.4717 72.806 75.4446 73.0504C76.4176 73.2948 77.3814 73.5715 78.3267 73.9081C79.5692 74.3194 80.7606 74.8717 81.8773 75.5543C79.8069 74.4891 76.3438 73.5577 75.3662 73.3133C74.3887 73.0689 73.4387 72.7784 72.4704 72.534C72.4473 72.5293 72.4566 72.4971 72.4796 72.4971Z" fill="#263238"/>
<path d="M71.5342 75.9924C72.7885 76.246 74.0428 76.4535 75.2878 76.7625C76.5328 77.0714 77.6718 77.4726 78.8846 77.8645C78.9768 77.8968 78.9307 77.9383 78.8385 77.9107C77.6073 77.5648 76.4452 77.3435 75.214 77.0115C73.9828 76.6794 72.7655 76.3059 71.525 76.02L71.5342 75.9924Z" fill="#263238"/>
<path d="M70.1878 78.8422C72.1196 79.1872 74.0109 79.7296 75.832 80.4607C75.9242 80.4976 75.8597 80.5391 75.7628 80.5114C73.8953 79.9396 72.4335 79.4739 70.174 78.9113C70.1417 78.9021 70.1463 78.8375 70.1878 78.8422Z" fill="#263238"/>
<path d="M67.6101 70.7356C68.1033 70.4421 68.6218 70.1936 69.1595 69.9932C69.6551 69.7854 70.1652 69.6144 70.6858 69.4813C71.8132 69.194 72.9883 69.1469 74.1351 69.343C76.8842 69.7913 79.5639 70.5926 82.1079 71.727C82.1494 71.727 82.1356 71.8284 82.1079 71.8146C79.9498 71.2336 77.5935 70.3113 74.2965 69.8133C73.1681 69.6164 72.0132 69.6274 70.8887 69.8456C70.3119 69.9789 69.7425 70.142 69.1826 70.3344C68.68 70.4958 68.1866 70.7171 67.6747 70.8324C67.6619 70.841 67.6461 70.8441 67.631 70.8411C67.6159 70.838 67.6026 70.8291 67.594 70.8163C67.5854 70.8034 67.5823 70.7877 67.5854 70.7726C67.5884 70.7574 67.5973 70.7441 67.6101 70.7356Z" fill="#263238"/>
<path d="M36.6226 73.8343L50.0551 68.37C51.1425 63.7826 51.9723 59.1379 52.5406 54.4578C53.2738 47.7623 51.5077 46.0331 46.7858 52.9961C42.0638 59.959 37.1436 68.8173 36.6226 73.8343Z" fill="#FFDA77"/>
<path d="M47.4636 52.7102C47.3963 52.562 47.3437 52.4076 47.3069 52.249C47.3653 52.163 47.4252 52.08 47.4867 52C47.51 52.2367 47.5023 52.4755 47.4636 52.7102V52.7102ZM47.5466 62.1448C47.4959 62.4795 47.4959 62.8199 47.5466 63.1546C47.5886 63.4887 47.6787 63.8148 47.8141 64.123C47.8626 63.7897 47.8626 63.4511 47.8141 63.1178C47.7699 62.7827 47.6799 62.4553 47.5466 62.1448V62.1448ZM46.2048 69.2092C46.879 69.2922 47.5631 69.1952 48.1876 68.9279C47.8527 68.8794 47.5126 68.8794 47.1777 68.9279C46.8417 68.9748 46.514 69.0696 46.2048 69.2092V69.2092ZM43.3135 58.4466L43.1475 58.7186H43.2951C43.6306 58.6767 43.9583 58.5867 44.268 58.4512C43.9519 58.4011 43.6301 58.3996 43.3135 58.4466V58.4466ZM52.4899 50.9072C52.2221 51.1126 51.9846 51.3548 51.7844 51.6265C51.5782 51.8947 51.4119 52.1914 51.291 52.5073C51.5575 52.3001 51.7935 52.0564 51.9919 51.7833C52.1995 51.517 52.3673 51.2218 52.4899 50.9072V50.9072ZM43.7285 63.4175C43.4596 63.6217 43.222 63.864 43.023 64.1368C42.8153 64.4048 42.6476 64.7015 42.525 65.0176C43.0566 64.5961 43.471 64.0451 43.7285 63.4175V63.4175ZM42.4973 71.4872C42.2903 71.2192 42.0466 70.9817 41.7734 70.7817C41.507 70.574 41.2119 70.4063 40.8972 70.2836C41.1014 70.5525 41.3438 70.7902 41.6166 70.9892C41.8931 71.1892 42.1956 71.3505 42.5158 71.4687L42.4973 71.4872ZM49.2159 57.3629C49.0076 57.0961 48.7641 56.8587 48.4919 56.6574C48.2254 56.4512 47.9303 56.285 47.6158 56.164C47.8201 56.4315 48.0625 56.6676 48.3352 56.8649C48.6038 57.0716 48.9003 57.2393 49.2159 57.3629V57.3629Z" fill="white"/>
<path d="M52.4206 58.6079C52.2321 58.9965 52.0778 59.4007 51.9595 59.8161C51.9088 59.9544 51.8673 60.0974 51.8212 60.2357C51.9365 59.461 52.0471 58.6817 52.1532 57.9024C52.1532 57.8517 52.084 57.8286 52.0748 57.9024C51.7336 59.6593 50.1703 67.9042 50.1012 68.3285C50.0597 68.3285 49.6401 68.5729 49.617 68.5683C49.5939 68.5636 49.617 68.6559 49.6493 68.6374C49.6816 68.619 50.1888 68.393 50.1888 68.3884C50.3594 68.0149 51.5722 61.7252 51.7105 60.9597C51.7292 60.9268 51.7462 60.893 51.7612 60.8582C51.8027 60.7476 51.8396 60.6369 51.8811 60.5308C51.9595 60.3279 52.0241 60.1251 52.0978 59.9222C52.2583 59.5061 52.3893 59.0793 52.4898 58.6448C52.4947 58.6357 52.4957 58.6249 52.4927 58.615C52.4897 58.605 52.4828 58.5967 52.4737 58.5918C52.4645 58.5869 52.4538 58.5859 52.4438 58.5889C52.4339 58.5919 52.4255 58.5988 52.4206 58.6079Z" fill="#263238"/>
<path d="M49.8153 66.8575C49.283 66.9816 48.758 67.1356 48.2429 67.3186C47.7218 67.4846 47.1961 67.6368 46.6751 67.8074C45.6744 68.1348 44.683 68.4898 43.6916 68.8587C41.6994 69.5737 39.7447 70.3894 37.8353 71.3027C37.7938 71.3027 37.8353 71.3903 37.8676 71.3765C39.8919 70.6663 41.884 69.864 43.8945 69.1124L46.8641 68.0103L48.3443 67.4477C48.8377 67.2679 49.368 67.1249 49.8384 66.899C49.8661 66.8897 49.843 66.8528 49.8153 66.8575Z" fill="#263238"/>
<path d="M52.7619 48.2511C52.8725 48.7538 55.2197 52.0185 57.5022 51.9401C58.2446 51.9125 58.2769 47.8453 58.2769 47.8453L58.3461 47.5456L59.3329 43.3494L54.4265 40.1215L53.721 39.6973C53.721 39.6973 53.5227 40.8639 53.2968 42.3165C53.2968 42.381 53.2737 42.4502 53.2645 42.524C53.2553 42.5977 53.2322 42.6807 53.223 42.7591C53.1861 42.9759 53.1492 43.2203 53.1169 43.4185C53.0847 43.6168 53.0662 43.7506 53.0478 43.9304C53.0293 44.1102 53.0063 44.2808 52.9786 44.4561C52.8181 45.7145 52.7456 46.9826 52.7619 48.2511V48.2511Z" fill="#DD6A57"/>
<path d="M53.283 42.3165C53.6973 43.5045 54.3658 44.5879 55.2418 45.491C56.1179 46.3942 57.1804 47.0953 58.3553 47.5456L59.3421 43.3494L54.4358 40.1215L53.7303 39.6973C53.7303 39.6973 53.5227 40.8639 53.283 42.3165Z" fill="#263238"/>
<path d="M65.3967 36.7138C66.365 44.2163 61.9844 45.6458 60.3658 45.8533C58.8948 46.0423 53.8732 46.4988 52.1301 39.1347C50.3871 31.7705 53.5688 28.953 56.9028 28.3397C60.2367 27.7264 64.4237 29.2343 65.3967 36.7138Z" fill="#DD6A57"/>
<path d="M64.1701 35.5564C63.9955 35.5473 63.8216 35.5288 63.649 35.501C63.4632 35.5098 63.2799 35.4562 63.128 35.3488C63.0876 35.3053 63.0626 35.2497 63.0567 35.1906C63.0509 35.1315 63.0646 35.0721 63.0957 35.0214C63.1719 34.9303 63.2711 34.8613 63.383 34.8215C63.4949 34.7818 63.6155 34.7728 63.732 34.7955C63.9761 34.8055 64.2078 34.9058 64.3822 35.0768C64.42 35.1178 64.4449 35.1689 64.454 35.2238C64.4631 35.2788 64.4559 35.3352 64.4334 35.3861C64.4109 35.437 64.3739 35.4803 64.3272 35.5105C64.2804 35.5408 64.2258 35.5567 64.1701 35.5564V35.5564Z" fill="#263238"/>
<path d="M59.0101 36.0913C59.1774 36.0465 59.3421 35.9926 59.5035 35.9299C59.682 35.8954 59.8441 35.803 59.9647 35.667C59.9962 35.6174 60.0101 35.5586 60.0043 35.5001C59.9984 35.4415 59.9731 35.3867 59.9324 35.3442C59.8384 35.2704 59.7263 35.2233 59.6078 35.2079C59.4893 35.1925 59.3689 35.2093 59.2591 35.2566C59.024 35.3173 58.8201 35.4637 58.6873 35.667C58.6572 35.7162 58.6426 35.7733 58.6455 35.8308C58.6484 35.8884 58.6686 35.9438 58.7035 35.9896C58.7384 36.0355 58.7864 36.0698 58.8411 36.0879C58.8958 36.106 58.9547 36.1072 59.0101 36.0913V36.0913Z" fill="#263238"/>
<path d="M60.3981 37.8113C60.3981 37.8113 60.3613 37.8389 60.3659 37.862C60.4489 38.3692 60.4581 38.9641 60.02 39.1947C60.02 39.1947 60.02 39.2269 60.02 39.2223C60.578 39.0702 60.5595 38.277 60.3981 37.8113Z" fill="#263238"/>
<path d="M59.8725 37.3362C59.0424 37.3824 59.1946 39.0378 59.9647 38.9963C60.7348 38.9548 60.5688 37.2993 59.8725 37.3362Z" fill="#263238"/>
<path d="M59.5542 37.4562C59.4205 37.5622 59.2914 37.7374 59.1208 37.7743C58.9502 37.8112 58.7519 37.6498 58.6043 37.4977H58.5767C58.6043 37.8112 58.7565 38.1294 59.0977 38.1432C59.439 38.1571 59.6096 37.8573 59.6603 37.5299C59.6695 37.493 59.6096 37.41 59.5542 37.4562Z" fill="#263238"/>
<path d="M63.2387 37.4423C63.2387 37.4423 63.2802 37.4423 63.2848 37.4838C63.3079 38.0003 63.4278 38.5813 63.9073 38.715V38.7427C63.3309 38.7104 63.1834 37.9357 63.2387 37.4423Z" fill="#263238"/>
<path d="M63.6536 36.866C64.4744 36.7368 64.6773 38.3877 63.9165 38.5076C63.1556 38.6275 62.9666 36.9766 63.6536 36.866Z" fill="#263238"/>
<path d="M64.0134 36.9351C64.1517 37.0043 64.2993 37.1472 64.4745 37.138C64.6497 37.1288 64.7696 36.9351 64.8665 36.7507C64.8665 36.7507 64.8665 36.7507 64.8941 36.7507C64.9402 37.0642 64.8941 37.4055 64.5806 37.5023C64.267 37.5991 64.0733 37.3455 63.958 37.0412C63.9211 36.9997 63.9534 36.9028 64.0134 36.9351Z" fill="#263238"/>
<path d="M60.7256 42.0259C60.8547 42.1412 60.9838 42.3026 61.1867 42.3072C61.3768 42.2958 61.5624 42.2439 61.7308 42.155C61.7308 42.155 61.7677 42.155 61.7585 42.155C61.6893 42.2594 61.5933 42.3432 61.4805 42.3976C61.3677 42.4519 61.2423 42.4749 61.1175 42.464C61.0115 42.4417 60.9143 42.3887 60.838 42.3117C60.7618 42.2346 60.7098 42.1368 60.6887 42.0305C60.661 42.0213 60.7071 42.0121 60.7256 42.0259Z" fill="#263238"/>
<path d="M62.676 39.9555C62.676 39.9555 62.8605 40.7071 62.8974 41.0668C62.8974 41.1037 62.8144 41.1267 62.6945 41.1452C62.391 41.2343 62.0688 41.2384 61.7631 41.1571C61.4574 41.0758 61.1798 40.9122 60.9607 40.6841C60.933 40.6518 60.9607 40.6103 61.0114 40.6287C61.5027 40.8958 62.0675 40.9961 62.6207 40.9146C62.6207 40.8132 62.261 39.6373 62.321 39.6235C62.6039 39.6214 62.8859 39.6555 63.1602 39.7249C62.819 38.1433 62.238 36.6262 61.9152 35.0491C61.9145 35.0381 61.9174 35.0271 61.9235 35.0178C61.9296 35.0086 61.9386 35.0016 61.949 34.998C61.9595 34.9943 61.9709 34.9942 61.9814 34.9976C61.9919 35.001 62.0011 35.0077 62.0074 35.0168C62.6899 36.621 63.2105 38.2893 63.5614 39.997C63.5983 40.1953 62.8282 40.0016 62.676 39.9555Z" fill="#263238"/>
<path d="M52.845 39.3283C54.0623 39.2868 54.0531 36.723 54.0531 36.723C54.0531 36.723 56.5063 36.4555 56.9167 32.8357C56.9673 33.9008 56.7044 34.9574 56.1605 35.8745C56.1605 35.8745 60.4351 34.9292 61.8507 31.1065C61.8507 31.1065 61.3297 33.0294 60.721 33.7626C61.781 33.304 62.6541 32.4993 63.1972 31.48C63.1972 31.48 64.1932 33.4813 64.8388 33.9931C64.8388 33.9931 63.8059 26.4445 56.8844 28.04C56.8844 28.04 52.5268 28.8285 51.3509 32.4806C50.175 36.1327 52.845 39.3283 52.845 39.3283Z" fill="#263238"/>
<path d="M59.3053 40.7302C58.8663 40.7335 58.4352 40.6137 58.061 40.3843C57.6867 40.1548 57.3843 39.8251 57.188 39.4324C56.9918 39.0397 56.9096 38.5999 56.9508 38.1628C56.992 37.7258 57.1549 37.3091 57.4211 36.96C57.6873 36.6109 58.046 36.3435 58.4566 36.188C58.8671 36.0326 59.313 35.9954 59.7436 36.0808C60.1743 36.1661 60.5723 36.3704 60.8926 36.6706C61.2129 36.9708 61.4426 37.3548 61.5556 37.779V37.779C61.7144 38.3819 61.6273 39.0232 61.3134 39.5619C60.9995 40.1006 60.4845 40.4927 59.8817 40.6518C59.6933 40.7005 59.4999 40.7268 59.3053 40.7302ZM59.2776 36.3449C59.1081 36.3462 58.9394 36.3679 58.775 36.4095C58.2716 36.5391 57.8366 36.8558 57.5586 37.295C57.2805 37.7342 57.1804 38.2628 57.2785 38.7733C57.3766 39.2838 57.6657 39.7376 58.0867 40.0424C58.5078 40.3472 59.0292 40.48 59.5448 40.4138C60.0604 40.3476 60.5313 40.0873 60.8617 39.686C61.192 39.2847 61.357 38.7725 61.323 38.2538C61.2889 37.7351 61.0584 37.2489 60.6784 36.8943C60.2984 36.5396 59.7974 36.3431 59.2776 36.3449V36.3449Z" fill="#FFDA77"/>
<path d="M64.6497 40.0292C63.7274 40.0292 62.9297 39.107 62.7729 37.9035C62.6923 37.3244 62.7938 36.7345 63.0634 36.2157C63.1653 35.9851 63.3251 35.7848 63.5274 35.6342C63.7296 35.4836 63.9673 35.3878 64.2175 35.3563C64.4676 35.3247 64.7217 35.3584 64.955 35.4541C65.1883 35.5497 65.3929 35.7041 65.5489 35.9022C65.9388 36.3394 66.1823 36.8876 66.2452 37.47C66.4066 38.7519 65.761 39.8955 64.8018 40.0154C64.7516 40.0246 64.7007 40.0292 64.6497 40.0292ZM64.373 35.6578H64.2577C64.0597 35.6921 63.8727 35.7732 63.7123 35.8943C63.5519 36.0154 63.4227 36.173 63.3355 36.3541C63.098 36.817 63.011 37.3426 63.0865 37.8573C63.2248 38.9687 63.9764 39.7941 64.7649 39.7018C65.5535 39.6096 66.0745 38.6182 65.9316 37.5023C65.8753 36.9888 65.661 36.5054 65.3183 36.1189C65.2012 35.9809 65.0567 35.8686 64.894 35.7893C64.7313 35.7099 64.5539 35.6651 64.373 35.6578V35.6578Z" fill="#FFDA77"/>
<path d="M61.514 38.0602L61.2834 37.8481C61.597 37.5069 62.3671 37.0043 63.0127 37.5392L62.8098 37.7836C62.2334 37.2994 61.5417 38.028 61.514 38.0602Z" fill="#FFDA77"/>
<path d="M51.6737 39.9924L51.3785 39.8863C51.4293 39.748 51.895 38.5352 52.5729 38.3369C53.2507 38.1387 56.9674 37.9911 57.1472 37.9819V38.3C55.6451 38.3313 54.1458 38.4437 52.6559 38.6367C52.2132 38.7704 51.7982 39.6604 51.6737 39.9924Z" fill="#FFDA77"/>
<path d="M52.476 41.906C52.5894 41.9446 52.707 41.9694 52.8264 41.9798C52.9456 41.9984 53.0669 41.9984 53.1861 41.9798C53.3392 41.9585 53.4857 41.9033 53.6149 41.8184C53.7178 41.7554 53.8111 41.6777 53.8916 41.5878C54.0073 41.4511 54.0978 41.295 54.1591 41.1267L53.6564 39.1254C53.6564 39.1254 51.9042 36.8198 50.862 37.47C49.8199 38.1202 51.1986 41.491 52.476 41.906Z" fill="#DD6A57"/>
<path d="M51.2771 38.4568V38.4891C52.1993 38.8119 52.6605 39.6096 53.034 40.4396C52.9786 40.3539 52.9053 40.2812 52.8192 40.2264C52.7332 40.1716 52.6363 40.1359 52.5352 40.1219C52.4341 40.1079 52.3312 40.1159 52.2334 40.1452C52.1357 40.1746 52.0454 40.2247 51.9688 40.2921C51.9688 40.2921 51.9688 40.3474 51.9965 40.3382C52.1492 40.2815 52.3159 40.2742 52.4731 40.3172C52.6302 40.3602 52.77 40.4514 52.8726 40.578C53.0498 40.7887 53.2043 41.0174 53.3337 41.2604C53.3798 41.3388 53.5228 41.2881 53.4859 41.2005C53.4306 40.0384 52.4899 38.5075 51.2771 38.4568Z" fill="#263238"/>
<path d="M52.5636 41.5832C52.5801 41.6505 52.6162 41.7113 52.6672 41.7581C52.7183 41.8049 52.7821 41.8355 52.8505 41.846C52.919 41.8566 52.989 41.8466 53.0518 41.8174C53.1146 41.7882 53.1673 41.7411 53.2033 41.6819C53.2393 41.6227 53.257 41.5543 53.2541 41.4851C53.2512 41.4159 53.2279 41.3491 53.1871 41.2931C53.1463 41.2372 53.0898 41.1946 53.0248 41.1707C52.9598 41.1468 52.8892 41.1428 52.8218 41.159C52.7319 41.1819 52.6545 41.2392 52.6062 41.3184C52.5579 41.3977 52.5427 41.4928 52.5636 41.5832V41.5832Z" fill="white"/>
<path d="M51.8212 41.0852C51.8386 41.1479 51.8793 41.2016 51.9351 41.235C51.9909 41.2685 52.0574 41.2793 52.1209 41.2651C52.1851 41.2498 52.2406 41.2096 52.2752 41.1534C52.3098 41.0972 52.3206 41.0296 52.3054 40.9654C52.2978 40.9337 52.284 40.9038 52.2648 40.8775C52.2456 40.8513 52.2213 40.8291 52.1934 40.8124C52.1654 40.7956 52.1344 40.7846 52.1022 40.78C52.07 40.7754 52.0371 40.7773 52.0056 40.7855C51.9415 40.8008 51.886 40.841 51.8514 40.8972C51.8168 40.9534 51.8059 41.021 51.8212 41.0852V41.0852Z" fill="white"/>
<path d="M58.2861 48.1681L57.1564 51.5989L52.7296 47.6332L51.6367 49.0627C51.6367 49.0627 56.1373 55.5184 56.1419 55.2233L57.3362 52.249L59.4574 54.1304L58.9686 49.1042L58.2861 48.1681Z" fill="#FBF6F0"/>
<path d="M59.356 51.6358C59.2499 50.8058 59.1623 49.9711 59.0148 49.1503C59.0148 49.1227 58.964 49.1088 58.9594 49.1503C58.8441 49.9619 59.273 53.1252 59.3191 53.8861C59.2315 53.8077 57.3593 52.2399 57.3455 52.2675C57.0734 52.7287 56.1973 54.9098 56.142 55.1081C55.4318 54.0798 52.7158 50.3539 51.8904 49.3947C51.8627 49.3671 51.8212 49.3947 51.8397 49.427C52.4806 50.5153 56.082 55.5369 56.1281 55.5185C56.5998 54.4951 57.0154 53.4468 57.3732 52.3782C57.6959 52.7241 59.5958 54.504 59.5958 54.3795C59.5647 53.4613 59.4847 52.5454 59.356 51.6358Z" fill="#263238"/>
<path d="M145.411 55.7259H92.0775V124.194H145.411V55.7259Z" fill="#FBF6F0"/>
<path d="M145.411 124.194L118.786 124.286L92.0775 124.337H91.93V124.189L91.8516 55.7213V55.5184H92.0775L145.411 55.5738H145.586V55.7444L145.508 90.006L145.411 124.194ZM145.411 124.194L145.296 89.9137L145.241 55.7259L145.411 55.9012L92.0775 55.9519L92.3035 55.7259L92.2205 124.194L92.0775 124.046L118.707 124.102L145.411 124.194Z" fill="#DBDBDB"/>
<path d="M97.9108 70.362L118.744 70.3067L139.578 70.362L118.744 70.4127L97.9108 70.362Z" fill="#FFA45B"/>
<path d="M97.9108 72.059L118.744 72.0082L139.578 72.059L118.744 72.1143L97.9108 72.059Z" fill="#FFA45B"/>
<path d="M97.9108 73.7605L118.744 73.7052L139.578 73.7605L118.744 73.8112L97.9108 73.7605Z" fill="#FFA45B"/>
<path d="M97.9108 75.4575L118.744 75.4067L139.578 75.4575L118.744 75.5082L97.9108 75.4575Z" fill="#FFA45B"/>
<path d="M97.9108 77.159L118.744 77.1036L139.578 77.159L118.744 77.2097L97.9108 77.159Z" fill="#FFA45B"/>
<path d="M97.9108 78.8559L118.744 78.8052L139.578 78.8559L118.744 78.9067L97.9108 78.8559Z" fill="#FFA45B"/>
<path d="M97.9108 80.5529L118.744 80.5021L139.578 80.5529L118.744 80.6082L97.9108 80.5529Z" fill="#FFA45B"/>
<path d="M97.9108 82.2544L118.744 82.2037L139.578 82.2544L118.744 82.3052L97.9108 82.2544Z" fill="#FFA45B"/>
<path d="M97.9108 83.9514L118.744 83.9006L139.578 83.9514L118.744 84.0067L97.9108 83.9514Z" fill="#FFA45B"/>
<path d="M97.9108 85.6529L118.744 85.5976L139.578 85.6529L118.744 85.7037L97.9108 85.6529Z" fill="#FFA45B"/>
<path d="M97.9108 87.3499L118.744 87.2992L139.578 87.3499L118.744 87.4052L97.9108 87.3499Z" fill="#FFA45B"/>
<path d="M97.9108 89.0514L118.744 88.9961L139.578 89.0514L118.744 89.1022L97.9108 89.0514Z" fill="#FFA45B"/>
<path d="M97.9108 90.7484L118.744 90.6976L139.578 90.7484L118.744 90.8037L97.9108 90.7484Z" fill="#FFA45B"/>
<path d="M97.9108 92.4499L118.744 92.3946L139.578 92.4499L118.744 92.5006L97.9108 92.4499Z" fill="#FFA45B"/>
<path d="M97.9108 94.1469L118.744 94.0961L139.578 94.1469L118.744 94.2022L97.9108 94.1469Z" fill="#FFA45B"/>
<path d="M105.478 88.9961H102.319V96.1251H105.478V88.9961Z" fill="#FFDA77"/>
<path d="M111.339 85.1918H108.18V96.1251H111.339V85.1918Z" fill="#FFDA77"/>
<path d="M117.2 80.9356H114.041V96.1297H117.2V80.9356Z" fill="#FFDA77"/>
<path d="M123.06 79.1096H119.902V96.1297H123.06V79.1096Z" fill="#FFDA77"/>
<path d="M128.921 75.8494H125.763V96.1297H128.921V75.8494Z" fill="#FFDA77"/>
<path d="M134.782 72.6262H131.624V96.1251H134.782V72.6262Z" fill="#FFDA77"/>
<path d="M99.0405 69.1677L99.1235 75.9093L99.1788 82.6464C99.2203 87.1423 99.2295 91.6337 99.2388 96.1297L99.0405 95.9314H109.185L119.33 95.9544L129.475 96.019L139.619 96.1343L129.475 96.2496L119.33 96.3141H109.185H99.0405H98.8468V96.1204C98.8468 91.626 98.8652 87.1316 98.9021 82.6371L98.9621 75.9001L99.0405 69.1677Z" fill="#FFA45B"/>
<path d="M105.478 97.5546H102.319V97.8405H105.478V97.5546Z" fill="#FFA45B"/>
<path d="M111.339 97.5546H108.18V97.8405H111.339V97.5546Z" fill="#FFA45B"/>
<path d="M117.2 97.5546H114.041V97.8405H117.2V97.5546Z" fill="#FFA45B"/>
<path d="M123.06 97.5546H119.902V97.8405H123.06V97.5546Z" fill="#FFA45B"/>
<path d="M128.921 97.5546H125.763V97.8405H128.921V97.5546Z" fill="#FFA45B"/>
<path d="M134.782 97.5546H131.624V97.8405H134.782V97.5546Z" fill="#FFA45B"/>
<path d="M102.674 89.8953C104.217 89.8721 105.757 89.7567 107.285 89.5494C108.818 89.3495 110.341 89.0725 111.846 88.7194C114.848 88.0423 117.761 87.0162 120.524 85.6622C123.295 84.3271 125.852 82.5865 128.11 80.4976L128.539 80.1102L128.944 79.6998L129.747 78.8744C130.245 78.2888 130.78 77.7308 131.232 77.1083C132.189 75.8965 133.055 74.6157 133.823 73.2763H133.846C131.747 77.467 128.62 81.0572 124.757 83.7116C123.479 84.5991 122.134 85.3883 120.736 86.0726C115.112 88.7612 108.928 90.0716 102.697 89.8953H102.674Z" fill="#263238"/>
<path d="M134.708 75.4851L134.27 75.5958L133.731 73.4377L131.619 74.134L131.481 73.7052L134.054 72.8613L134.708 75.4851Z" fill="#263238"/>
<path d="M97.0208 108.483H140.468V106.726H97.0208V108.483Z" fill="#DBDBDB"/>
<path d="M97.0207 112.924H121.483V111.167H97.0207V112.924Z" fill="#DBDBDB"/>
<path d="M106.511 65.0499H130.973V63.293H106.511V65.0499Z" fill="#DBDBDB"/>
<path d="M135.331 140.886L83.0855 151.621L69.3071 84.5554L108.097 76.5872L124.176 86.6028L135.331 140.886Z" fill="#FFDA77"/>
<path opacity="0.8" d="M135.331 140.886L83.0855 151.621L69.3071 84.5554L108.097 76.5872L124.176 86.6028L135.331 140.886Z" fill="white"/>
<path d="M108.097 76.5872L124.176 86.6028L110.721 89.365L108.097 76.5872Z" fill="#FFDA77"/>
<path d="M77.0676 96.4819L106.116 90.5139L105.762 88.793L76.7141 94.761L77.0676 96.4819Z" fill="#DBDBDB"/>
<path d="M77.9585 100.827L107.007 94.8593L106.653 93.1383L77.6049 99.1063L77.9585 100.827Z" fill="#DBDBDB"/>
<path d="M78.8585 105.172L107.907 99.2037L107.553 97.4827L78.505 103.451L78.8585 105.172Z" fill="#DBDBDB"/>
<path d="M79.7509 109.519L122.309 100.776L121.956 99.0548L79.3974 107.798L79.7509 109.519Z" fill="#DBDBDB"/>
<path d="M80.7273 113.637L123.306 104.947L122.954 103.225L80.3759 111.915L80.7273 113.637Z" fill="#DBDBDB"/>
<path d="M81.5372 118.21L124.095 109.466L123.742 107.745L81.1836 116.489L81.5372 118.21Z" fill="#DBDBDB"/>
<path d="M82.4336 122.559L124.992 113.815L124.638 112.094L82.08 120.838L82.4336 122.559Z" fill="#DBDBDB"/>
<path d="M83.3244 126.904L125.883 118.161L125.529 116.44L82.9708 125.183L83.3244 126.904Z" fill="#DBDBDB"/>
<path d="M84.2161 131.254L126.774 122.511L126.421 120.79L83.8626 129.533L84.2161 131.254Z" fill="#DBDBDB"/>
<path d="M85.107 135.6L127.665 126.856L127.312 125.135L84.7534 133.879L85.107 135.6Z" fill="#DBDBDB"/>
<path d="M86.007 139.944L128.565 131.2L128.212 129.479L85.6535 138.223L86.007 139.944Z" fill="#DBDBDB"/>
<path d="M86.8988 144.294L129.457 135.55L129.103 133.829L86.5452 142.573L86.8988 144.294Z" fill="#DBDBDB"/>
<path d="M242.46 92.1409L183.938 96.4017C177.275 71.0675 184.399 45.7333 179.221 20.3991L237.733 16.1383C244.401 41.4725 237.272 66.8067 242.46 92.1409Z" fill="#FBF6F0"/>
<path d="M242.46 92.141L183.975 96.5585H183.837C183.822 96.5116 183.809 96.4639 183.8 96.4156C177.1 71.086 184.21 45.7518 178.995 20.4176C178.995 20.3438 178.963 20.2654 178.944 20.1916H179.175L237.696 16H237.858C237.87 16.0545 237.886 16.1084 237.904 16.1614C244.512 41.4633 237.313 66.8021 242.46 92.141ZM242.46 92.141C237.203 66.8114 244.304 41.4818 237.581 16.1522L237.784 16.2997L179.267 20.6297L179.447 20.3807C184.616 45.7426 177.446 71.0537 184.058 96.3925L183.878 96.2588L242.46 92.141Z" fill="#DBDBDB"/>
<path d="M186.285 31.254L219.14 28.8884C219.214 29.5371 219.279 30.1873 219.334 30.839L186.437 33.2092C186.391 32.5544 186.341 31.9042 186.285 31.254Z" fill="#DBDBDB"/>
<path d="M186.613 36.1834L219.569 33.8132C219.609 34.4619 219.646 35.1121 219.68 35.7638L186.691 38.134C186.668 37.4838 186.64 36.8336 186.613 36.1834Z" fill="#DBDBDB"/>
<path d="M186.765 41.1083L219.8 38.7381C219.8 39.3883 219.832 40.0385 219.846 40.6887L186.783 43.0681C186.783 42.4087 186.774 41.7585 186.765 41.1083Z" fill="#DBDBDB"/>
<path d="M186.783 46.0331L235.261 42.5654C235.261 43.2156 235.261 43.8658 235.261 44.516L186.756 47.9836C186.774 47.3335 186.783 46.6833 186.783 46.0331Z" fill="#DBDBDB"/>
<path d="M186.719 50.9579L235.257 47.4902L235.229 49.4408L186.677 52.9131L186.719 50.9579Z" fill="#DBDBDB"/>
<path d="M186.603 55.8873L235.169 52.415C235.169 53.0652 235.142 53.7154 235.123 54.3656L186.548 57.824C186.571 57.1877 186.59 56.5375 186.603 55.8873Z" fill="#DBDBDB"/>
<path d="M186.488 60.8121L235.049 57.3629C235.049 58.0131 235.022 58.6679 235.003 59.3181L186.451 62.7857C186.465 62.1125 186.474 61.4623 186.488 60.8121Z" fill="#DBDBDB"/>
<path d="M186.414 65.7369L234.966 62.2693C234.966 62.9195 234.943 63.5697 234.934 64.2198L186.424 67.6875C186.405 67.0465 186.405 66.3871 186.414 65.7369Z" fill="#DBDBDB"/>
<path d="M186.419 70.6617L234.883 67.1941C234.883 67.8443 234.883 68.4945 234.883 69.1446L186.465 72.6169C186.437 71.9667 186.428 71.3165 186.419 70.6617Z" fill="#DBDBDB"/>
<path d="M186.548 75.5912L234.925 72.1189C234.925 72.7691 234.952 73.4193 234.976 74.0741L186.645 77.5417C186.608 76.8931 186.576 76.2429 186.548 75.5912Z" fill="#DBDBDB"/>
<path d="M186.848 80.516L235.1 77.0437C235.132 77.6985 235.174 78.3487 235.215 78.9989L187.009 82.4665C186.954 81.8025 186.899 81.1662 186.848 80.516Z" fill="#DBDBDB"/>
<path d="M187.355 85.4408L235.455 81.9731C235.515 82.6233 235.58 83.2735 235.653 83.9237L187.623 87.396C187.526 86.7458 187.438 86.091 187.355 85.4408Z" fill="#DBDBDB"/>
<path d="M234.136 119.26C213.957 115.838 194.008 112.421 174.287 109.009C176.865 83.9744 189.499 58.9584 188.854 33.9424C209.033 37.3639 228.982 40.7855 248.703 44.207C246.144 69.2231 233.491 94.2529 234.136 119.26Z" fill="#FFDA77"/>
<path opacity="0.8" d="M234.136 119.26C213.957 115.838 194.008 112.421 174.287 109.009C176.865 83.9744 189.499 58.9584 188.854 33.9424C209.033 37.3639 228.982 40.7855 248.703 44.207C246.144 69.2231 233.491 94.2529 234.136 119.26Z" fill="white"/>
<path d="M193.815 46.0008C204.753 47.9037 215.641 49.8066 226.477 51.7095C226.366 52.3551 226.251 52.9961 226.131 53.637C215.316 51.7372 204.46 49.8343 193.562 47.9283C193.654 47.2873 193.737 46.6464 193.815 46.0008Z" fill="#DBDBDB"/>
<path d="M193.115 50.8657C203.963 52.7686 214.774 54.6715 225.545 56.5744C225.407 57.22 225.269 57.8609 225.126 58.5019C214.382 56.6021 203.599 54.6991 192.778 52.7932C192.893 52.1522 193.004 51.5112 193.115 50.8657Z" fill="#DBDBDB"/>
<path d="M192.211 55.7305L224.453 61.4393C224.296 62.0802 224.144 62.7258 223.992 63.3668C213.293 61.4608 202.568 59.5579 191.814 57.658C191.943 57.0171 192.082 56.3761 192.211 55.7305Z" fill="#DBDBDB"/>
<path d="M191.159 60.5908C206.875 63.3821 222.537 66.1704 238.148 68.9556C237.977 69.5965 237.802 70.2375 237.627 70.8831C222.019 68.0979 206.376 65.3111 190.698 62.5229C190.837 61.8819 190.989 61.2409 191.159 60.5908Z" fill="#DBDBDB"/>
<path d="M189.947 65.4603C205.6 68.2516 221.222 71.0399 236.811 73.8251C236.636 74.466 236.46 75.107 236.28 75.7526L189.449 67.3878C189.615 66.7468 189.776 66.1243 189.947 65.4603Z" fill="#DBDBDB"/>
<path d="M188.665 70.3251L235.464 78.6899C235.289 79.3309 235.109 79.9719 234.934 80.6174L188.144 72.2526C188.319 71.6117 188.494 70.9661 188.665 70.3251Z" fill="#DBDBDB"/>
<path d="M187.337 75.19L234.141 83.5548C233.966 84.1958 233.795 84.8367 233.624 85.4777C217.995 82.6925 202.388 79.9058 186.802 77.1175C186.982 76.4765 187.157 75.831 187.337 75.19Z" fill="#DBDBDB"/>
<path d="M185.995 80.0549C201.593 82.8401 217.218 85.6268 232.868 88.4151C232.707 89.0606 232.545 89.7016 232.407 90.3426C216.729 87.5574 201.087 84.7706 185.483 81.9824C185.626 81.3414 185.815 80.6958 185.995 80.0549Z" fill="#DBDBDB"/>
<path d="M184.704 84.9197C200.327 87.7049 215.996 90.4917 231.711 93.2799C231.563 93.9255 231.42 94.5665 231.277 95.2074C215.525 92.4222 199.832 89.6355 184.196 86.8472C184.339 86.2017 184.51 85.5607 184.704 84.9197Z" fill="#DBDBDB"/>
<path d="M183.431 89.7846C199.109 92.5698 214.846 95.3565 230.641 98.1448C230.512 98.7904 230.392 99.4313 230.272 100.072C214.419 97.2871 198.648 94.5004 182.961 91.7121C183.113 91.0665 183.27 90.4256 183.431 89.7846Z" fill="#DBDBDB"/>
<path d="M182.283 94.6449C198.029 97.4362 213.861 100.224 229.779 103.01C229.673 103.651 229.576 104.296 229.483 104.937C213.51 102.152 197.638 99.3591 181.868 96.5585C182.001 95.9314 182.14 95.2904 182.283 94.6449Z" fill="#DBDBDB"/>
<path d="M181.278 99.5097C197.119 102.298 213.057 105.086 229.092 107.875C229.018 108.516 228.953 109.161 228.893 109.802C212.785 107.011 196.799 104.222 180.936 101.437C181.042 100.796 181.158 100.155 181.278 99.5097Z" fill="#DBDBDB"/>
<path d="M209.724 109.004H106.299V183.974H209.724V109.004Z" fill="#FFDA77"/>
<path d="M142.843 101.239H106.299V109.004H144.941L142.843 101.239Z" fill="#FFDA77"/>
<g opacity="0.1">
<path opacity="0.1" d="M209.724 109.004H106.299V183.974H209.724V109.004Z" fill="black"/>
<path opacity="0.1" d="M142.843 101.239H106.299V109.004H144.941L142.843 101.239Z" fill="black"/>
</g>
<path d="M209.019 155.919C188.826 150.141 169.085 144.432 149.649 138.779C154.537 115.93 168.232 93.5474 169.164 70.362C189.338 75.8079 209.065 81.2538 228.511 86.7227C223.535 109.931 209.858 132.526 209.019 155.919Z" fill="#FBF6F0"/>
<path d="M209.019 155.919C188.826 150.187 169.071 144.516 149.621 138.908L149.478 138.867L149.506 138.738C154.375 115.884 168.043 93.492 168.929 70.2974C168.929 70.2283 168.929 70.1545 168.929 70.0853L169.164 70.1499C189.352 75.6096 209.088 81.0832 228.51 86.5752L228.672 86.6213C228.672 86.6674 228.672 86.7181 228.64 86.7688C223.632 109.973 209.913 132.563 209.019 155.919ZM209.019 155.919C209.803 132.526 223.438 109.931 228.331 86.6766C228.372 86.7412 228.414 86.8057 228.46 86.8703C209.037 81.4244 189.315 75.9923 169.154 70.5695L169.399 70.422C168.417 93.6027 154.698 115.976 149.787 138.816L149.677 138.65C169.095 144.345 188.854 150.1 209.019 155.919Z" fill="#DBDBDB"/>
<path d="M205.823 113.468C202.821 121.487 193.723 125.955 185.234 123.447C176.745 120.938 172.295 112.467 175.223 104.494C178.151 96.5216 186.908 91.9842 195.512 94.4419C204.117 96.8997 208.862 105.444 205.823 113.468Z" fill="#455A64"/>
<path d="M190.532 108.972C187.051 112.947 183.528 116.913 180.092 120.878C177.609 119.049 175.789 116.46 174.911 113.503C174.032 110.546 174.141 107.383 175.223 104.494C178.11 96.5585 186.963 91.998 195.512 94.442C204.062 96.8859 208.853 105.509 205.832 113.468C200.732 111.965 195.632 110.466 190.532 108.972Z" fill="#DBDBDB"/>
<path d="M190.532 108.972C193.566 113.053 196.568 117.134 199.635 121.229C197.543 122.629 195.169 123.554 192.681 123.937C190.192 124.32 187.65 124.153 185.234 123.447C176.758 120.961 172.322 112.417 175.223 104.494C178.123 96.5724 186.963 91.998 195.512 94.442C204.062 96.8859 208.853 105.509 205.832 113.468C200.732 111.965 195.632 110.466 190.532 108.972Z" fill="#DBDBDB"/>
<path d="M190.532 108.972L174.49 111.647C174.134 109.239 174.386 106.78 175.223 104.494C178.11 96.5585 186.963 91.998 195.512 94.442C204.062 96.8859 208.853 105.509 205.832 113.468C200.732 111.965 195.632 110.466 190.532 108.972Z" fill="#FFDA77"/>
<path d="M173.729 80.4192C181.928 82.6971 190.067 84.9766 198.145 87.2576C198.003 87.8525 197.86 88.4427 197.707 89.033C189.653 86.7489 181.55 84.4678 173.397 82.1899C173.512 81.5996 173.637 81.0094 173.729 80.4192Z" fill="#DBDBDB"/>
<path d="M171.88 126.098C182.679 129.286 193.537 132.485 204.454 135.694C204.292 136.284 204.131 136.875 203.993 137.465C193.027 134.246 182.135 131.043 171.317 127.855C171.492 127.269 171.686 126.684 171.88 126.098Z" fill="#DBDBDB"/>
<path d="M170.469 130.53C181.339 133.727 192.285 136.939 203.305 140.167C203.167 140.757 203.033 141.352 202.904 141.942C191.837 138.705 180.852 135.487 169.948 132.286C170.118 131.701 170.289 131.115 170.469 130.53Z" fill="#DBDBDB"/>
<path d="M169.205 134.966C180.162 138.178 191.213 141.406 202.36 144.649C202.249 145.24 202.143 145.834 202.047 146.429C190.841 143.174 179.742 139.938 168.749 136.723C168.896 136.142 169.048 135.551 169.205 134.966Z" fill="#DBDBDB"/>
<path d="M165.493 126.144L161.564 124.991L162.159 123.239L166.083 124.397C165.885 124.978 165.687 125.563 165.493 126.144Z" fill="#FFDA77"/>
<path d="M164.096 130.571L160.14 129.409C160.319 128.828 160.504 128.242 160.688 127.657L164.635 128.819C164.451 129.4 164.271 129.985 164.096 130.571Z" fill="#455A64"/>
<path d="M162.851 135.003L158.881 133.836C159.037 133.25 159.199 132.669 159.365 132.084L163.34 133.246C163.165 133.83 163.002 134.415 162.851 135.003Z" fill="#DBDBDB"/>
<path d="M209.452 183.974H106.027L98.0491 115.225H201.475L209.452 183.974Z" fill="#FFDA77"/>
<path d="M133.768 108.105H97.2236L98.0491 115.225H136.691L133.768 108.105Z" fill="#FFDA77"/>
<path d="M168.776 62.6013C168.613 62.0003 168.536 61.3794 168.546 60.7568C168.533 60.1341 168.611 59.5128 168.776 58.9123C169.085 60.1226 169.085 61.3909 168.776 62.6013V62.6013Z" fill="#263238"/>
<path d="M165.023 63.6849C164.583 63.2453 164.206 62.7473 163.902 62.2047C163.583 61.6711 163.341 61.0952 163.183 60.494C163.623 60.9332 164 61.4314 164.304 61.9742C164.622 62.5078 164.865 63.0837 165.023 63.6849Z" fill="#263238"/>
<path d="M162.321 66.4978C161.719 66.3395 161.144 66.0973 160.61 65.7784C160.066 65.4774 159.567 65.1001 159.13 64.6579C159.731 64.8162 160.307 65.0583 160.84 65.3773C161.382 65.6822 161.88 66.0591 162.321 66.4978V66.4978Z" fill="#263238"/>
<path d="M161.385 70.2744C160.174 70.5826 158.906 70.5826 157.696 70.2744C158.907 69.9723 160.173 69.9723 161.385 70.2744V70.2744Z" fill="#263238"/>
<path d="M162.468 74.0418C162.029 74.4819 161.531 74.859 160.988 75.1623C160.454 75.4812 159.878 75.7234 159.277 75.8817C160.17 75.0092 161.267 74.3749 162.468 74.0372V74.0418Z" fill="#263238"/>
<path d="M165.281 76.7301C165.122 77.331 164.88 77.9068 164.562 78.4409C164.259 78.983 163.882 79.4797 163.441 79.9165C163.599 79.3168 163.842 78.7424 164.161 78.2103C164.463 77.6671 164.84 77.1688 165.281 76.7301V76.7301Z" fill="#263238"/>
<path d="M169.072 77.6847C169.381 78.8949 169.381 80.1634 169.072 81.3737C168.763 80.1634 168.763 78.8949 169.072 77.6847V77.6847Z" fill="#263238"/>
<path d="M172.825 76.5964C173.264 77.0369 173.641 77.5349 173.946 78.0766C174.265 78.6103 174.507 79.1862 174.665 79.7874C174.223 79.3499 173.845 78.8515 173.544 78.3072C173.226 77.7735 172.983 77.1976 172.825 76.5964V76.5964Z" fill="#263238"/>
<path d="M175.532 73.7836C176.132 73.9419 176.706 74.184 177.238 74.5029C177.778 74.8063 178.273 75.1834 178.709 75.6235C177.508 75.2878 176.412 74.6532 175.523 73.779L175.532 73.7836Z" fill="#263238"/>
<path d="M176.463 69.9931C177.065 69.8329 177.685 69.7553 178.308 69.7625C178.931 69.75 179.552 69.8277 180.152 69.9931C179.552 70.1585 178.931 70.2362 178.308 70.2237C177.685 70.2309 177.065 70.1533 176.463 69.9931V69.9931Z" fill="#263238"/>
<path d="M175.38 66.2442C175.819 65.8041 176.317 65.427 176.86 65.1236C177.392 64.8011 177.969 64.5572 178.571 64.3997C178.133 64.8418 177.635 65.2191 177.09 65.5202C176.556 65.8387 175.98 66.0823 175.38 66.2442V66.2442Z" fill="#263238"/>
<path d="M172.567 63.5374C172.725 62.9362 172.967 62.3602 173.286 61.8266C173.587 61.2823 173.965 60.7838 174.407 60.3464C174.248 60.9476 174.006 61.5235 173.687 62.0571C173.384 62.5999 173.007 63.0981 172.567 63.5374Z" fill="#263238"/>
<path d="M170.658 146.526H194.355C195.048 145.044 195.448 143.442 195.531 141.809V122.843H171.834V142.072C171.834 143.976 170.658 146.526 170.658 146.526Z" fill="#455A64"/>
<path d="M174.734 128.432C177.501 128.201 180.309 128.15 183.094 128.136C185.879 128.123 188.669 128.201 191.454 128.432C188.688 128.657 185.879 128.713 183.094 128.722C180.309 128.731 177.519 128.657 174.734 128.432Z" fill="white"/>
<path d="M174.734 131.553C177.243 131.327 179.746 131.272 182.255 131.258C184.764 131.244 187.267 131.323 189.771 131.553C187.267 131.784 184.759 131.835 182.255 131.848C179.751 131.862 177.243 131.784 174.734 131.553Z" fill="white"/>
<path d="M174.734 134.68C176.924 134.449 179.119 134.398 181.31 134.385C183.507 134.372 185.703 134.471 187.89 134.68C185.695 134.906 183.505 134.961 181.31 134.97C179.115 134.979 176.924 134.906 174.734 134.68Z" fill="white"/>
<path d="M174.734 137.802C177.501 137.576 180.309 137.52 183.094 137.506C185.879 137.493 188.669 137.571 191.454 137.802C188.688 138.032 185.879 138.083 183.094 138.097C180.309 138.11 177.519 138.032 174.734 137.802Z" fill="white"/>
</svg>
