<svg width="21" height="21" viewBox="0 0 21 21" fill="none" xmlns="http://www.w3.org/2000/svg">
<path d="M8.41175 17.3405C3.86371 17.3405 0.200012 13.6767 0.200012 9.1285C0.200012 4.58032 3.86371 0.916504 8.41175 0.916504C12.9598 0.916504 16.6235 4.58032 16.6235 9.1285C16.6235 13.6767 12.9598 17.3405 8.41175 17.3405ZM8.41175 2.17989C4.55855 2.17989 1.46336 5.27518 1.46336 9.1285C1.46336 12.9818 4.55855 16.0771 8.41175 16.0771C12.2649 16.0771 15.3601 12.9818 15.3601 9.1285C15.3601 5.27518 12.2649 2.17989 8.41175 2.17989Z" fill="#CDCDCD"/>
<path d="M14.5276 14.3506L20.2 20.0232L19.3068 20.9164L13.6344 15.2438L14.5276 14.3506Z" fill="#CDCDCD"/>
</svg>
