<svg width="26" height="26" viewBox="0 0 26 26" fill="none" xmlns="http://www.w3.org/2000/svg">
<path d="M0 2.88889V23.1111C0 24.7 1.28556 26 2.88889 26H23.1111C24.7 26 26 24.7 26 23.1111V2.88889C26 1.3 24.7 0 23.1111 0H2.88889C1.28556 0 0 1.3 0 2.88889ZM17.3333 8.66667C17.3333 11.0644 15.3978 13 13 13C10.6022 13 8.66667 11.0644 8.66667 8.66667C8.66667 6.26889 10.6022 4.33333 13 4.33333C15.3978 4.33333 17.3333 6.26889 17.3333 8.66667ZM4.33333 20.2222C4.33333 17.3333 10.1111 15.7444 13 15.7444C15.8889 15.7444 21.6667 17.3333 21.6667 20.2222V21.6667H4.33333V20.2222Z" fill="white"/>
</svg>
